<svg width="121" height="85" viewBox="0 0 121 85" fill="none" xmlns="http://www.w3.org/2000/svg">
<path d="M88.9448 33.1174C88.9448 33.1174 88.9619 33.1158 88.9852 33.1127C88.9696 33.1143 88.9401 33.1174 88.9417 33.1174C88.9417 33.1174 88.9417 33.1174 88.9463 33.1174H88.9448Z" fill="#15151E"/>
<path d="M113.987 15.8492C113.965 15.8554 113.942 15.8616 113.92 15.8663C113.87 15.8772 108.926 16.9572 102.168 18.3753C96.3771 19.5908 91.1456 20.236 86.9429 20.7533C86.1704 20.8484 85.4369 20.9388 84.7483 21.0276C80.4058 21.5839 70.4478 22.3444 70.3467 22.3522C70.3359 22.3522 70.3265 22.3522 70.3157 22.3538L63.836 22.628C63.836 22.628 63.8236 22.628 63.8174 22.628C63.4584 22.6358 55.0297 22.8135 53.8392 22.8166C52.8149 22.8228 48.819 22.9865 47.1109 23.0597L46.8948 23.0691L49.2091 26.7998C49.2138 26.8091 49.22 26.8169 49.2246 26.8263C49.2946 26.9478 50.9607 29.8433 52.0549 32.0437C52.5585 33.0566 52.6113 33.9262 52.2119 34.6306C51.6508 35.6201 50.4711 35.737 50.3375 35.7464C50.2738 35.751 50.21 35.7495 50.1479 35.7417C50.0499 35.7292 47.745 35.4269 46.5855 35.1807C45.2147 34.8893 44.6971 33.8935 44.6008 33.3231C44.5759 33.2016 44.4438 32.5611 44.2853 31.7725C44.1936 31.3144 43.6931 30.4619 43.3574 29.9866C43.2517 29.8542 42.7341 29.2106 42.1917 28.4781C41.8653 28.0371 41.5933 27.8829 41.5203 27.8455C41.4923 27.8392 41.5063 27.8392 41.4643 27.8221C41.4612 27.8221 40.6654 27.5057 39.5184 27.5166C39.5215 27.526 39.5231 27.5353 39.5262 27.5431C39.8075 28.1462 42.8942 34.7739 43.7071 36.6455C44.7049 38.941 43.7164 41.0682 43.6729 41.157C43.6558 41.1928 43.2315 42.0889 42.6176 43.2826C41.9197 44.6384 40.9778 45.0514 40.7043 45.1449C38.3341 46.0534 37.027 46.538 36.8218 46.5879L36.7799 46.5988C36.3991 46.6939 35.2412 46.9837 33.7398 46.658C32.8352 46.4617 31.0929 45.8446 29.7454 45.1511C28.8035 44.668 27.9285 43.7408 27.1467 42.3959L27.1187 42.346C27.0581 42.2432 26.8576 41.8801 26.4799 41.196C25.9623 40.2563 25.1806 38.8366 24.9583 38.4719C24.5946 37.8751 22.47 34.4856 21.64 33.2265C21.3649 32.8073 20.9701 32.7699 19.949 33.0629C19.8247 33.0987 19.7143 33.1299 19.6211 33.1517C19.1455 33.2623 17.6316 33.7719 17.0892 33.9589L5.65156 37.886C5.67021 37.914 5.69041 37.9405 5.71062 37.9624L17.3565 49.061C17.5306 49.2262 35.0438 65.8119 36.0898 66.7983C37.2896 67.9313 38.8703 69.0657 39.5806 69.3307C39.5837 69.1172 39.5386 68.7977 39.4609 68.5452C39.4547 68.5265 39.45 68.5063 39.4454 68.4876C39.4298 68.4221 37.8569 61.9253 37.5399 60.554C37.1793 58.9987 37.2928 57.8486 38.0046 55.8165C38.7506 53.6894 40.8597 52.3959 40.9483 52.3414C40.9701 52.3274 40.9934 52.3149 41.0167 52.304C41.082 52.2713 47.5911 49.047 49.8215 47.9748C51.7285 47.057 52.0782 46.2825 53.0139 44.2098L53.0652 44.0976C54.1454 41.7071 56.0042 41.2302 56.413 41.1523C56.9492 41.0136 58.4055 40.5773 59.1702 40.0926C59.8758 39.6454 60.2224 37.8689 60.3701 37.1099L60.3887 37.0118C60.6281 35.7931 61.1534 34.9048 61.9803 33.7813C62.9905 32.4099 64.8883 31.7367 66.4145 31.1959C68.3185 30.5212 69.9333 31.2988 70.0017 31.3315C70.0219 31.3409 70.0421 31.3518 70.0623 31.3642C70.2566 31.478 74.8385 34.174 75.6327 34.6758C75.9638 34.8846 76.3741 34.7942 76.4798 34.7661C77.1263 34.4701 77.905 34.0883 78.0682 33.9714C78.8298 33.4057 79.5649 32.8151 80.8145 31.3377C82.333 29.5394 83.8981 29.4085 84.6955 29.4911C85.3094 29.5534 87.3796 29.9337 88.2485 32.1824C88.55 32.9631 88.9261 33.0878 89.0225 33.1065C89.8571 33.0068 97.1356 32.1372 98.7334 31.958C99.8167 31.8364 100.239 31.4406 100.317 31.3564C100.351 31.2988 100.362 31.2957 100.417 31.2411C104.933 26.6736 113.71 17.7582 114.601 16.7078C115.146 16.0627 115.323 15.7479 115.379 15.6076H115.373C115.051 15.6076 114.465 15.7042 113.987 15.846V15.8492ZM34.4842 54.5761C33.9107 56.2124 33.5532 57.671 33.6154 59.3151C28.0948 54.0883 20.0376 46.457 19.9257 46.351L12.6658 39.4319L18.3 37.4964C18.7585 37.339 19.2496 37.1754 19.6568 37.0445C20.5381 38.433 21.539 40.0319 21.7752 40.4215C21.9586 40.7238 22.8072 42.265 23.216 43.0052C23.7056 43.8935 23.8284 44.1148 23.9108 44.255L23.9263 44.2815C25.0733 46.2544 26.4613 47.6678 28.045 48.4798C29.5697 49.2636 31.5887 50.0194 32.9549 50.3139C34.4547 50.6396 35.9841 50.6241 37.5041 50.2719C36.4581 51.1898 35.1697 52.6312 34.4873 54.5776L34.4842 54.5761ZM49.666 42.5549L49.6148 42.6686C49.3179 43.3262 49.0102 44.0057 48.8423 44.2223C48.8066 44.2675 48.6325 44.4 48.2066 44.6041C47.5243 44.9314 46.469 45.4487 45.3204 46.0129C45.5349 45.709 45.74 45.3724 45.9312 44.9999C46.5747 43.7517 47.0254 42.798 47.0378 42.7699C47.2181 42.3928 47.8025 41.0339 47.8771 39.1981C48.7522 39.3306 49.5215 39.4319 49.6645 39.4506C49.98 39.4911 50.2986 39.5005 50.6157 39.4771C51.1255 39.4381 51.6881 39.3244 52.257 39.1202C51.2622 39.9321 50.3406 41.0588 49.6645 42.5564L49.666 42.5549ZM98.1055 28.2678C96.7641 28.4205 93.2143 28.8428 90.8238 29.1264C89.3193 26.9634 86.9911 25.9676 85.0763 25.7713C83.5484 25.6139 80.5907 25.8133 77.9687 28.9192C77.1559 29.8791 76.6523 30.3404 76.2342 30.6723C74.7095 29.7622 72.518 28.4719 71.9492 28.1384C71.8512 28.0808 71.7502 28.0262 71.6476 27.9764C70.1633 27.2439 67.6828 26.7795 65.1711 27.6709C63.2719 28.3441 60.6716 29.2667 58.9806 31.5606C57.8973 33.0301 57.1 34.3968 56.7285 36.2918L56.7083 36.3931C56.6726 36.577 56.6088 36.9058 56.5358 37.2019C56.2451 37.3078 55.9094 37.4154 55.611 37.498C55.2007 37.579 54.7717 37.7052 54.3334 37.8829C54.7577 37.4964 55.1416 37.032 55.454 36.4803C56.0446 35.4378 56.8233 33.2577 55.3934 30.3778C54.7686 29.1202 53.9713 27.6569 53.3636 26.566C53.5547 26.5614 53.7102 26.5598 53.8236 26.5598C53.833 26.5598 53.8407 26.5598 53.8501 26.5598C55.1152 26.5598 62.9983 26.3899 63.8967 26.3697C63.9293 26.3697 63.9604 26.3681 63.993 26.3666L70.4726 26.0923C70.5255 26.0907 70.5768 26.0876 70.6296 26.0829C71.0415 26.0518 80.7835 25.3069 85.2208 24.7381C85.9047 24.6508 86.6305 24.5604 87.3983 24.4669C91.6709 23.9402 96.988 23.2841 102.933 22.0374C103.499 21.919 104.05 21.8021 104.59 21.6884C102.546 23.7703 100.286 26.0642 98.107 28.2678H98.1055Z" fill="#15151E"/>
<path d="M119.922 12.2197C119.064 11.0027 116.977 9.17001 112.575 10.4167C111.696 10.6084 107.094 11.6089 101.023 12.882C95.4617 14.0493 90.3591 14.6773 86.2606 15.1837C85.4788 15.2804 84.7374 15.3723 84.0396 15.4611C80.0374 15.9738 70.9358 16.6798 70.0002 16.7515L63.648 17.0211C60.1603 17.0974 54.7282 17.2081 53.8594 17.2081C53.8501 17.2081 53.8407 17.2081 53.8298 17.2081C52.8072 17.2081 49.8821 17.3281 46.8731 17.4574L46.2483 17.4839C44.1609 17.5712 42.4046 18.6589 41.5498 20.3902C41.298 20.9014 41.1379 21.4468 41.068 22.0031C40.5862 21.9408 40.0484 21.905 39.4687 21.9065C37.5103 21.9206 35.8069 22.8041 34.7951 24.3313C33.774 25.8741 33.6092 27.8766 34.3552 29.689C34.3817 29.7544 34.4112 29.8199 34.4407 29.8838C34.4734 29.9539 37.7155 36.9136 38.5563 38.8397C38.5563 38.8584 38.5517 38.8802 38.547 38.902C38.4367 39.1327 38.2035 39.6127 37.8989 40.2157C36.8125 40.6287 35.7323 41.0354 35.3297 41.1804C35.2272 41.2006 35.0919 41.2147 34.921 41.1773C34.5588 41.0993 33.3916 40.7035 32.4404 40.2344C32.3627 40.1519 32.2057 39.9617 31.9804 39.5721L31.9446 39.5098C31.8824 39.4023 31.6151 38.9161 31.3789 38.4875C30.5831 37.0445 30.0003 35.9879 29.7345 35.5516C29.349 34.9173 27.1871 31.4702 26.3105 30.1378C25.1743 28.4127 23.3372 27.3686 21.2685 27.272C20.005 27.2128 18.9683 27.512 18.4103 27.6709C18.3761 27.6803 18.3435 27.6896 18.3139 27.699C17.557 27.8813 16.0898 28.3737 15.2754 28.6542L3.70409 32.6281C3.45697 32.7122 3.21917 32.8182 2.98914 32.9429C1.36963 33.8249 0.300311 35.324 0.0547417 37.0523C-0.313613 39.6563 1.27948 41.4624 1.77528 41.9549C1.79549 41.9751 1.81725 41.9954 1.83901 42.0157L13.5113 53.1408C14.2341 53.8249 31.2048 69.8964 32.2508 70.8844C32.9145 71.5124 34.032 72.463 35.1743 73.2468C35.953 73.7814 37.7295 75 39.8246 75C40.437 75 41.0773 74.8956 41.7285 74.6385C44.5666 73.5164 45.8333 70.4106 44.851 67.0414C44.6303 66.1298 43.275 60.5275 42.9875 59.287C42.9129 58.9629 42.8802 58.8257 43.2688 57.7162C43.345 57.5868 43.575 57.3546 43.7832 57.1941C45.0717 56.5568 50.3064 53.9668 52.2399 53.0364C55.984 51.2349 57.0176 48.9473 58.1102 46.5256L58.1195 46.5037C59.0101 46.2575 60.8022 45.6965 62.1559 44.8379C64.9022 43.0987 65.5488 39.7825 65.8597 38.1883L65.8783 38.0948C65.8907 38.034 65.9172 37.8969 66.3663 37.2736C66.6803 37.0756 67.3921 36.806 67.9237 36.6144C69.7375 37.6834 72.1776 39.1265 72.6424 39.421C74.6535 40.6957 76.9414 40.5726 78.4117 40.035C78.5205 39.9945 78.6293 39.9508 78.735 39.9025C80.6591 39.0283 81.1518 38.6636 81.3927 38.4844C82.1465 37.925 82.9687 37.2782 84.0676 36.1079C85.5177 38.0449 87.6268 38.8319 89.3737 38.7119C89.4515 38.7073 89.5276 38.6995 89.6053 38.6901C89.6861 38.6808 97.6858 37.7239 99.3504 37.5385C102.122 37.2284 103.713 35.9458 104.476 35.1074C107.675 31.8723 117.7 21.718 118.864 20.345C119.587 19.4926 120.376 18.447 120.76 17.1582C121.265 15.4596 120.967 13.708 119.922 12.2244V12.2197ZM116.021 17.9202C114.882 19.2651 102.684 31.6042 101.777 32.5237C101.536 32.8166 100.724 33.6192 98.9385 33.8187C97.2599 34.0057 89.2447 34.9641 89.1655 34.9734C89.1499 34.975 89.1344 34.9765 89.1188 34.9781C88.4661 35.0217 87.1916 34.6259 86.5077 32.8587C86.0352 31.6354 84.9488 31.397 84.5043 31.3518C83.7443 31.2723 82.9625 31.6868 82.2367 32.547C80.8596 34.1755 80.0017 34.8612 79.1748 35.4768C78.8018 35.7526 77.6672 36.2793 77.1978 36.4928C77.1761 36.5022 77.1543 36.5115 77.1325 36.5193C76.9973 36.5692 75.7804 36.9821 74.6364 36.2575C73.906 35.7947 69.6194 33.2732 69.1593 33.0005C69.0101 32.9366 68.1009 32.5813 67.0378 32.9584C65.7524 33.4135 64.1531 33.9807 63.4817 34.8924C62.6921 35.9645 62.3735 36.591 62.2196 37.3717L62.201 37.4684C61.9741 38.6309 61.5529 40.7955 60.1665 41.6744C58.9744 42.4302 56.9259 42.9522 56.8389 42.9741C56.7953 42.985 56.7798 42.9896 56.7378 42.9943C56.6166 43.0177 55.4851 43.2733 54.7639 44.8706L54.7127 44.9828C53.7366 47.1458 53.1475 48.4517 50.6266 49.6641C48.4988 50.6864 42.4513 53.6816 41.884 53.9621C41.6726 54.0977 40.2458 55.0607 39.7624 56.4399C39.1718 58.1229 39.0801 58.952 39.3537 60.1332C39.6583 61.4485 41.1333 67.5432 41.2483 68.0201C41.6027 69.1748 41.5809 70.6771 40.3593 71.1586C40.1867 71.2272 40.0033 71.2615 39.8028 71.2615C39.1672 71.2615 38.3729 70.9093 37.2788 70.1597C36.312 69.4974 35.3437 68.6699 34.8075 68.1635C33.7615 67.1755 16.2468 50.5898 16.0712 50.423L4.40816 39.3041C4.40816 39.3041 4.40039 39.2963 4.39573 39.2916C4.26517 39.1623 3.62172 38.4735 3.74761 37.5759C3.80357 37.1847 4.02427 36.6331 4.76875 36.2279C4.81382 36.203 4.862 36.1827 4.91174 36.1656L16.483 32.1917C16.6913 32.12 18.544 31.4842 19.1967 31.3315C19.2651 31.3159 19.346 31.2926 19.4361 31.2661C20.2288 31.0385 22.083 30.5056 23.1958 32.198C24.0537 33.5008 26.1706 36.8777 26.5483 37.4995C26.7923 37.9 27.5228 39.2277 28.1103 40.2937C28.3854 40.7939 28.6698 41.3097 28.718 41.3908L28.7553 41.4546C29.5029 42.7387 30.1681 43.2701 30.594 43.4883C31.7907 44.1039 33.3621 44.6649 34.1314 44.8316C35.2085 45.0654 36.0494 44.855 36.326 44.7849L36.3664 44.7755C36.6275 44.6945 38.4522 44.0072 40.0546 43.3933C40.0997 43.3761 40.0873 43.3761 40.1199 43.3699C40.2085 43.3294 40.6017 43.1205 40.9592 42.4271C41.5576 41.2645 41.9834 40.3654 41.9881 40.356C41.9928 40.3451 42.6471 38.8911 41.9959 37.3951C41.1706 35.497 37.8523 28.3737 37.8181 28.3021C37.8119 28.2896 37.8056 28.2756 37.801 28.2631C37.7279 28.087 37.3922 27.1691 37.9005 26.4024C38.1258 26.0627 38.5859 25.6544 39.492 25.6482C40.9328 25.6435 41.9446 26.005 42.142 26.0829C42.358 26.1609 43.017 26.4616 43.6869 27.3639C44.2588 28.1353 44.8168 28.8257 44.8215 28.8335C44.8339 28.8475 44.8448 28.8631 44.8557 28.8786C44.9614 29.0282 45.9017 30.3638 46.1099 31.4063C46.284 32.2774 46.427 32.9647 46.427 32.9662C46.4348 33.0068 46.4363 32.9865 46.4363 33.0021C46.4659 33.0831 46.5762 33.2686 46.9679 33.3527C47.9098 33.5522 49.7655 33.8062 50.2613 33.8716C50.3919 33.8436 50.5504 33.7735 50.5877 33.7065C50.625 33.6379 50.6312 33.3776 50.3825 32.879C49.3521 30.8048 47.7388 27.9935 47.6144 27.7769L45.0919 23.708C44.9598 23.5101 44.5324 22.7761 44.8914 22.0483C45.067 21.693 45.4711 21.2598 46.4021 21.2208L47.0301 21.1944C48.8874 21.1149 52.7419 20.9497 53.8267 20.9497H53.8547C55.0592 20.9497 63.4413 20.7689 63.7661 20.7611L70.2193 20.4884C70.6685 20.4541 80.2939 19.7139 84.509 19.1747C85.2006 19.0859 85.9358 18.9955 86.7113 18.9004C90.8798 18.3862 96.0678 17.7473 101.783 16.5473C108.242 15.1915 113.042 14.1459 113.486 14.0493C114.685 13.6955 116.233 13.4727 116.873 14.3812C117.773 15.659 116.982 16.7857 116.018 17.9233L116.021 17.9202Z" fill="#15151E"/>
</svg>
