<svg width="121" height="85" viewBox="0 0 121 85" fill="none" xmlns="http://www.w3.org/2000/svg">
<path d="M106.352 59.4418C105.38 57.8364 103.864 55.3537 102.259 52.725C99.589 48.3514 96.562 43.3924 95.1623 41.0362C91.8753 35.5015 86.0522 25.9387 82.9234 20.8029C81.4059 18.3121 80.673 17.1072 80.5599 16.9126C79.7689 15.5488 79.0004 14.8369 78.0915 14.1866C77.5329 13.7877 77.1503 13.6482 76.7709 13.7034C76.0848 13.8039 75.5068 14.0634 74.4833 14.7299C73.1385 15.6072 72.3926 16.8623 72.136 17.3602C71.6984 18.2051 68.2097 25.9225 67.43 28.4214C66.6906 30.789 67.3331 34.1166 68.3518 35.8404C69.3559 37.5383 70.3036 39.1421 73.2095 40.527C74.3558 41.0735 75.4536 41.4059 76.6159 41.7594C78.4886 42.3286 80.4243 42.9173 82.7152 44.4303C86.0441 46.6292 88.054 49.6909 88.8596 53.792C89.2083 55.5645 89.0937 57.5769 88.5674 58.9213C88.1299 60.037 87.1984 60.9175 86.4703 61.2954C85.605 61.7429 84.4781 61.7851 84.3522 61.79C84.3425 61.79 84.3328 61.79 84.3215 61.79C82.3164 61.7819 35.1902 61.5824 33.7615 61.5532C32.5055 61.5273 30.3954 61.3408 30.3066 61.3327C30.3002 61.3327 30.2921 61.3327 30.2857 61.331C29.9547 61.2938 22.162 60.4294 21.4791 60.3435L21.358 60.3273C20.5798 60.2299 19.6967 60.1181 19.3109 59.3316C18.988 58.6732 19.2447 58.0051 19.5805 57.6061C19.8598 57.2121 21.9537 54.2737 22.3751 53.7336C22.9094 53.0493 24.0976 51.7925 26.0543 51.0482C27.6509 50.4417 29.895 50.6087 29.9902 50.6168C30.0031 50.6168 30.016 50.6185 30.029 50.6201L56.0403 53.7434C57.2334 53.8991 58.5943 53.458 58.7461 52.8677C58.872 52.3796 58.6056 52.1153 58.4748 52.0196C58.4522 52.0066 58.4571 52.0082 58.4296 51.9888C57.9421 51.6304 46.4685 43.2157 45.03 42.1032C43.5335 40.9454 42.5648 40.1151 41.7302 38.3345C40.9375 36.6432 41.2523 34.1474 41.4218 32.808L41.438 32.6766C41.4574 32.5258 41.4832 32.3507 41.5139 32.1561C41.6995 30.9609 42.0111 28.9614 40.9892 27.2846C40.2062 25.9971 38.2334 25.2771 36.4931 24.6414C35.6568 24.3349 34.8673 24.0462 34.2345 23.7041C32.6282 22.8349 29.5769 19.9435 27.0988 17.5207C26.9261 17.3521 26.7872 17.2159 26.6871 17.1202C25.6523 16.1213 21.7632 11.3244 21.1546 10.5558C20.37 9.56333 19.503 8.71197 18.7152 8.15412C17.9726 7.62871 16.5664 7.88331 15.9772 8.13628C15.8319 8.19791 15.6252 8.60656 15.5558 8.96656L8.31678 57.4051C8.31678 57.4051 8.31517 57.4164 8.31356 57.4213C8.31033 57.4375 8.05364 59.0007 8.06494 60.1505C8.07462 61.0862 8.78658 63.217 9.12722 64.2419L9.18049 64.4041C9.27574 64.6911 9.47593 65.1857 9.70518 65.7581C10.6512 68.1063 11.3099 69.8431 11.1598 70.7917C11.0354 71.5782 10.5188 72.1734 10.3542 72.3469C9.85693 72.929 6.302 77.0788 5.97751 77.4323C5.90324 77.5134 5.84351 77.6578 5.82252 77.7551C5.85804 77.7696 5.90647 77.7826 5.94845 77.7875L105.359 78.1475C105.377 78.1475 105.393 78.1475 105.411 78.1475C105.422 78.1475 105.433 78.1475 105.444 78.1475C108.446 78.2497 109.75 77.8248 109.92 77.7648C111.678 76.8794 114.529 75.4361 114.814 75.2642C115.15 75.0583 115.157 74.995 115.178 74.7874C115.21 74.4728 115.021 74.0723 114.953 73.9572C114.887 73.8453 108.904 63.6727 106.347 59.4467L106.352 59.4418ZM108.536 74.1064C108.187 74.1745 107.257 74.3107 105.582 74.2539C105.525 74.2523 105.47 74.2507 105.415 74.2507C105.38 74.2507 105.344 74.2507 105.309 74.2507L14.0253 73.9199C14.4338 73.2728 14.8325 72.4198 14.994 71.395C15.2894 69.5122 14.6759 67.7009 13.3037 64.2954C13.1406 63.8916 12.9195 63.3403 12.8613 63.1651L12.8065 63.0013C12.6127 62.4224 12.0348 60.6889 11.9444 60.0289C11.9492 59.4629 12.059 58.5499 12.1397 58.0618C12.1445 58.0342 12.1478 58.0083 12.1526 57.9807L18.7588 13.765C20.0471 15.3575 22.932 18.8894 24.004 19.9256C24.0992 20.0181 24.2332 20.1478 24.3979 20.3083C28.4549 24.2749 30.7732 26.25 32.3973 27.129C33.2788 27.6057 34.2393 27.9576 35.1692 28.2966C35.9151 28.569 37.268 29.0636 37.7378 29.4204C37.9396 29.9247 37.783 30.9333 37.6861 31.5528C37.649 31.7912 37.6167 32.0036 37.5941 32.1885L37.5779 32.3166C37.2518 34.8934 37.1049 37.6064 38.2237 39.9918C39.4216 42.5476 40.881 43.8059 42.6617 45.1843C43.2235 45.6189 45.2318 47.106 47.5324 48.8039L30.4842 46.7573C30.418 46.7492 30.3535 46.7427 30.2873 46.7379C29.5398 46.6795 26.9277 46.5546 24.6772 47.4092C21.9828 48.4325 20.2779 50.1077 19.3206 51.3336C18.8815 51.8963 17.1654 54.3012 16.4986 55.2385C15.1667 56.9169 14.8987 59.1564 15.8286 61.0537C17.1363 63.7197 19.8469 64.0619 20.8688 64.19L20.9931 64.2062C21.6922 64.2938 29.0216 65.1079 29.8546 65.2003C29.8901 65.2035 29.924 65.2084 29.9595 65.21C30.1969 65.2311 32.3134 65.416 33.6775 65.4452C35.1369 65.4743 82.2922 65.6738 84.2989 65.6835C84.3489 65.6835 84.4006 65.6835 84.4507 65.6819C85.0851 65.6641 86.7254 65.5392 88.2397 64.756C89.5732 64.0651 91.3054 62.5424 92.1659 60.3483C92.9699 58.2986 93.1523 55.5661 92.6551 53.0396C91.6525 47.933 89.0227 43.9422 84.8381 41.1789C82.0775 39.3562 79.6688 38.6232 77.7315 38.0361C76.6676 37.7134 75.7474 37.4329 74.8643 37.0129C73.0255 36.1372 72.546 35.3264 71.6791 33.8572C71.1931 33.0334 70.7346 30.8296 71.1221 29.5874C71.7889 27.4501 75.0516 20.1737 75.5698 19.1537C75.7474 18.8099 76.1203 18.3007 76.5869 17.9959C76.7838 18.2132 76.984 18.4856 77.2052 18.8667C77.3311 19.084 77.8041 19.8624 79.6139 22.8349C82.7378 27.9657 88.5545 37.514 91.8301 43.0308C93.2411 45.4081 96.2762 50.3769 98.9529 54.7602C100.556 57.3856 102.07 59.8651 103.037 61.464C104.779 64.3424 108.124 70.0036 110.083 73.3247C109.581 73.5793 109.051 73.8469 108.533 74.108L108.536 74.1064Z" fill="#15151E"/>
<path d="M119.943 70.9506C119.548 70.2793 113.859 60.6078 111.318 56.4094C110.339 54.7942 108.82 52.3066 107.212 49.6731C104.55 45.3141 101.533 40.3713 100.152 38.0459C96.8493 32.482 91.0148 22.903 87.8797 17.7559C86.7157 15.844 85.7099 14.1931 85.5824 13.9758C84.1762 11.5515 82.6393 10.272 81.4592 9.42873C79.6801 8.15737 77.8235 7.65141 75.9314 7.92547C74.1233 8.19142 72.7801 8.88062 71.3191 9.83252C68.9007 11.4088 67.5607 13.5412 66.9763 14.6715C66.4645 15.6623 62.8095 23.7105 61.8845 26.6733C60.5897 30.8215 61.6423 35.9215 63.3536 38.821C64.4917 40.7459 66.2111 43.6535 70.7185 45.8022C72.257 46.5352 73.6793 46.9665 74.9321 47.3476C76.6095 47.8568 77.9349 48.2606 79.5219 49.3082C81.535 50.6379 82.6554 52.3682 83.1575 54.9239C83.2285 55.2823 83.2511 55.6391 83.2479 55.9472C78.3385 55.9261 71.1431 55.8953 63.7556 55.8629C64.0252 55.3861 64.2334 54.8737 64.3723 54.3369C65.1859 51.1925 63.6829 48.533 61.7811 47.2179C58.4183 44.7514 49.7151 38.3588 48.5785 37.4767C47.4436 36.5994 47.266 36.4096 47.0577 35.9864C46.9915 35.5875 47.0368 34.7653 47.1901 33.5442L47.2079 33.4064C47.2208 33.3058 47.2402 33.1891 47.2595 33.0593C47.5065 31.4685 48.0877 27.7436 45.9519 24.2392C44.1082 21.21 40.8584 20.0229 38.4852 19.1553C37.9379 18.9559 37.2567 18.7062 37.008 18.5716C36.6416 18.3591 35.3404 17.4251 31.1558 13.3369C30.9734 13.1585 30.8233 13.0126 30.7248 12.9169C30.0354 12.2342 26.7372 8.22223 25.7088 6.92329C24.9161 5.92112 23.6407 4.49407 22.0667 3.38163C19.3335 1.44701 15.848 1.84106 13.696 2.76702C10.7336 4.04001 9.99093 7.06276 9.83433 7.95953C9.82787 8.00007 9.82141 8.04061 9.81495 8.07953L2.57756 56.5018C2.50653 56.938 2.24177 58.6683 2.25791 60.2089C2.27405 61.9262 2.91336 63.9743 3.62209 66.0987L3.67536 66.2576C3.82712 66.7149 4.04667 67.2598 4.32435 67.9474C4.49548 68.3722 4.76509 69.0436 4.99595 69.6598C3.42997 71.4874 1.93341 73.2274 1.70094 73.4869C0.176938 75.1572 -0.752961 78.1297 0.8001 80.7308C2.03674 82.8032 4.1952 83.5832 5.80154 83.6238C5.83544 83.6238 5.86934 83.6238 5.90324 83.6238L105.386 83.9838C105.732 83.9951 106.061 84 106.378 84C109.698 84 111.466 83.4584 112.257 83.1113C112.335 83.0773 112.412 83.0416 112.488 83.0027C117.305 80.58 117.678 80.3497 117.856 80.241C120.169 78.8172 120.825 76.8015 120.967 75.368C121.175 73.2939 120.347 71.6252 119.945 70.9523L119.943 70.9506ZM117.11 74.9772C117.004 76.0621 116.403 76.568 115.83 76.9215C115.439 77.1632 111.531 79.1302 110.751 79.5226C110.736 79.5307 110.72 79.5372 110.704 79.5437C110.562 79.607 109.325 80.1064 106.36 80.1064C106.071 80.1064 105.766 80.1016 105.441 80.0918C105.433 80.0918 105.427 80.0918 105.419 80.0918L5.91293 79.7318C5.91293 79.7318 5.90002 79.7318 5.89194 79.7318C5.76925 79.7286 4.68275 79.6751 4.11771 78.7297C3.61563 77.8864 3.96918 76.7513 4.55683 76.1123C4.78769 75.861 7.28518 72.9501 8.90766 71.056C8.9238 71.0382 8.93995 71.0204 8.9577 71.0025C9.05618 70.9004 9.22247 70.6604 9.24991 70.4901C9.2935 69.9209 8.32647 67.516 7.91318 66.4895C7.67102 65.8879 7.46115 65.3673 7.34652 65.0235L7.29325 64.863C6.73628 63.1959 6.14056 61.3197 6.12926 60.1732C6.11635 58.884 6.37788 57.2607 6.4021 57.1115L13.6459 8.65683C13.6459 8.65683 13.6492 8.64062 13.6492 8.63251C13.6798 8.45413 13.9898 6.87302 15.2184 6.34437C15.9642 6.02328 18.247 5.43787 19.8324 6.56005C21.0302 7.40654 22.0376 8.54007 22.6721 9.34117C23.4406 10.3125 27.1408 14.8548 28.0303 15.7142C28.132 15.8131 28.2741 15.951 28.4501 16.1229C29.719 17.3634 33.5807 21.137 35.1547 21.9884C35.6632 22.264 36.3897 22.5284 37.1566 22.8089C39.0939 23.5176 41.5058 24.3981 42.6423 26.2663C44.0356 28.5528 43.64 31.0906 43.4286 32.4544C43.4011 32.628 43.3769 32.7836 43.3607 32.9166L43.3446 33.0512C43.2106 34.1134 42.9313 36.3253 43.4834 37.5042C44.1163 38.8535 44.7669 39.4421 46.2118 40.5594C47.6018 41.6362 58.985 49.986 59.55 50.3996C60.1474 50.7969 61.0127 51.8412 60.6204 53.3558C60.1587 55.1412 57.8065 55.9375 55.7998 55.6731L29.8207 52.5531C29.2766 52.5126 27.7155 52.4947 26.7388 52.8661C25.2213 53.4434 24.3075 54.4083 23.8991 54.932C23.602 55.3131 22.275 57.165 21.4161 58.3715C21.4791 58.3797 21.5404 58.3878 21.5985 58.3943L21.7212 58.4105C22.3767 58.4932 30.1436 59.3559 30.4875 59.3932C30.6457 59.4078 32.654 59.5813 33.8018 59.6056C35.2031 59.6348 83.1285 59.8375 84.3118 59.8424C84.5298 59.8343 85.1917 59.7662 85.5824 59.5651C85.9214 59.3899 86.5123 58.8516 86.7657 58.2078C87.0934 57.371 87.2807 55.798 86.9611 54.1683C86.2523 50.5569 84.5653 47.9784 81.6529 46.0552C79.5961 44.6979 77.8768 44.1741 76.0557 43.6211C74.8772 43.2627 73.6567 42.893 72.3797 42.2832C68.9394 40.6437 67.7431 38.6183 66.6857 36.8313C65.4281 34.7004 64.6709 30.7533 65.5815 27.836C66.408 25.1846 69.9565 17.3505 70.4166 16.4602C70.8251 15.6704 71.7582 14.1818 73.4291 13.0936C74.7012 12.2634 75.5036 11.918 76.4932 11.7736C77.6492 11.6066 78.5548 12.1255 79.2151 12.5974C80.1789 13.285 81.2138 14.1656 82.2357 15.9315C82.3422 16.1164 83.2786 17.6537 84.5766 19.7845C87.7069 24.9252 93.5333 34.4929 96.8267 40.0373C98.2199 42.3838 101.244 47.3363 103.912 51.705C105.519 54.3353 107.035 56.8196 108.01 58.4283C110.549 62.6235 116.445 72.6453 116.621 72.9453C116.705 73.0831 117.213 73.9766 117.115 74.9739L117.11 74.9772ZM6.12603 68.3463C6.16316 68.3057 6.19545 68.2733 6.22128 68.2474C6.18899 68.2798 6.15671 68.3138 6.12603 68.3463Z" fill="#15151E"/>
</svg>
