<svg width="121" height="85" viewBox="0 0 121 85" fill="none" xmlns="http://www.w3.org/2000/svg">
<path d="M40.5196 21.022C40.5196 21.022 40.5089 21.0144 40.5028 21.0098C40.5089 21.0144 40.515 21.019 40.5196 21.022Z" fill="#15151E"/>
<path d="M118.468 54.3822C114.015 51.6035 106.73 47.046 106.09 46.6185C105.172 45.9971 103.776 45.2139 103.621 45.1269C103.615 45.1238 103.608 45.1192 103.601 45.1162C81.7095 33.0424 81.3193 32.8515 81.1913 32.7889C78.9735 31.7064 76.3548 32.3431 74.8229 34.334C74.7604 34.415 74.7025 34.4959 74.6461 34.5814C74.6461 34.5814 72.8063 37.3342 72.567 37.6869C72.2789 38.1128 71.8323 38.8365 71.7455 38.977C71.7013 39.0472 71.6601 39.1205 71.6205 39.1938C71.4086 39.5862 71.1861 39.9953 70.965 40.3999C69.6176 39.6381 68.4622 38.9816 68.2046 38.8289C67.0843 38.1602 66.156 37.7632 65.9823 37.6899C65.9472 37.6746 65.9121 37.6609 65.8756 37.6472C63.8026 36.841 60.2145 35.4547 59.4783 35.2226C57.3474 34.5447 55.1082 35.186 53.5855 36.7128C52.4149 36.3967 47.2096 34.9875 43.4858 33.963C44.6366 32.2775 45.5832 30.8927 45.7188 30.7003C46.9489 28.9659 46.9626 26.8375 45.8987 25.1856C45.7646 24.4802 45.5237 23.8954 45.2814 23.4481C45.4247 23.184 45.4811 23.0542 45.5283 22.9458C46.5008 20.6892 45.7813 18.0814 43.78 16.602C43.751 16.5806 43.7205 16.5592 43.6901 16.5379C43.3989 16.3333 40.8321 14.5302 40.2498 14.1393C39.8428 13.866 39.0716 13.353 39.0716 13.353C38.942 13.266 38.8064 13.1866 38.6676 13.1133C36.6953 12.0766 34.4485 10.8873 34.104 10.6903C33.3053 10.2353 32.313 9.80171 32.121 9.71926C32.1012 9.7101 32.0814 9.70247 32.0615 9.69483C31.9076 9.63071 28.2738 8.1253 26.9477 7.58024C24.1659 6.43974 21.4771 7.29321 20.8613 7.51917C17.9698 8.57112 13.2614 10.2811 12.8651 10.4185C11.6533 10.8369 10.751 11.5316 10.4171 11.811C10.3836 11.84 10.3501 11.869 10.3165 11.898C10.1611 12.0369 6.4983 15.3042 5.67063 16.0615C4.78504 16.8707 3.34767 17.7394 3.00776 17.9196C1.05671 18.9166 0.36013 20.3747 0.120823 21.422C-0.124582 22.4969 0.00802798 23.6099 0.480546 24.5901C1.40272 30.1766 2.87667 39.1022 2.94831 39.4762C2.95746 39.522 2.96508 39.5663 2.9727 39.6091C3.06415 40.1312 3.23487 41.1038 3.87658 42.0977C5.29871 44.3039 7.67807 44.881 9.53918 44.4917C12.4825 43.9665 16.6331 43.2337 17.9485 43.0153C17.9607 43.0184 17.9729 43.0199 17.9835 43.023C18.0537 43.0397 18.0902 43.0459 18.1634 43.0596C21.5594 43.6795 27.0986 44.6948 27.8531 44.8459C30.0785 45.3788 31.9426 44.6734 32.6621 44.3314C34.4485 43.5237 36.4682 42.6168 36.7806 42.4871C36.9209 42.4306 37.0413 42.3863 37.1404 42.3512C37.3583 42.3985 37.6159 42.4611 37.8308 42.5176C38.3034 42.6458 48.653 45.4612 50.9104 46.0735C52.2945 46.4491 54.5869 47.8644 55.567 48.469C55.7667 48.5927 55.9405 48.6995 56.0822 48.785C57.1309 49.4156 59.7222 50.9897 59.7237 50.9897C59.7587 51.0111 59.7953 51.0325 59.8304 51.0523C59.9889 51.1424 75.6963 60.097 77.53 61.1459C79.292 62.152 83.6865 64.8834 83.7307 64.9109C83.7962 64.9521 83.8648 64.9918 83.9334 65.03C83.9441 65.0361 84.9943 65.6193 86.0628 66.3247C87.366 67.1873 89.0854 68.2408 89.1585 68.2851C89.1966 68.308 89.2347 68.3309 89.2744 68.3538L104.703 77.1862C104.802 77.2427 104.904 77.2962 105.008 77.345C105.91 77.8015 106.809 78 107.661 78C109.62 78 111.324 76.9435 112.245 75.5159C112.594 74.98 113.069 74.2701 113.24 74.038C113.702 73.409 114.277 72.4593 114.386 72.2761C114.421 72.2181 114.455 72.1585 114.489 72.0975C115.447 70.3279 120.237 61.4833 120.416 61.1428C120.419 61.1367 120.422 61.1306 120.426 61.1245C121.672 58.7229 120.831 55.8327 118.47 54.3822H118.468ZM27.7357 44.8169C27.7616 44.823 27.7875 44.8307 27.8119 44.8368C27.7738 44.8276 27.7479 44.8215 27.7357 44.8169ZM117.179 59.4343C117.002 59.7702 111.507 69.9187 111.272 70.3493C111.266 70.3615 111.259 70.3737 111.253 70.3844C111.23 70.4241 110.673 71.3478 110.292 71.8654C109.972 72.299 109.227 73.4395 109.175 73.5204C108.922 73.9174 108.376 74.325 107.658 74.325C107.34 74.325 106.986 74.2456 106.61 74.0487C106.579 74.0349 106.549 74.0197 106.518 74.0029L91.0898 65.1705C91.0821 65.1659 91.0745 65.1613 91.0669 65.1567C90.9968 65.114 89.3308 64.0925 88.0809 63.2666C86.8782 62.4726 85.7137 61.8268 85.7015 61.8207C85.6878 61.8131 85.6741 61.8054 85.6604 61.7963C85.6162 61.7688 81.1638 59.0023 79.3423 57.961C77.5071 56.9121 61.7982 47.956 61.6397 47.8659C61.632 47.8613 61.6259 47.8583 61.6183 47.8537C61.6183 47.8537 59.0179 46.2765 57.9677 45.6429C57.8351 45.5635 57.6736 45.4627 57.4876 45.3482C56.2789 44.6016 53.7638 43.0489 51.8677 42.5344C49.5584 41.9084 38.7743 38.9755 38.7743 38.9755C38.1235 38.8029 37.2577 38.6212 37.0276 38.6197C36.805 38.6212 36.2639 38.7449 35.4179 39.0869C35.011 39.2518 32.1941 40.5221 31.1211 41.0076C30.9107 41.1114 29.8605 41.5786 28.6503 41.2672C28.321 41.1923 22.5898 40.1419 18.8219 39.4533C18.8097 39.4503 18.7975 39.4488 18.7838 39.4457C18.4698 39.3755 18.014 39.3083 17.8265 39.3251C17.4272 39.3694 12.2417 40.2854 8.83193 40.8946C8.24966 41.0351 7.43114 40.8519 6.95252 40.1099C6.71017 39.7358 6.64005 39.3312 6.57756 38.9755C6.56689 38.9113 6.55469 38.8472 6.5425 38.7816C6.46933 38.4029 4.30947 25.3092 4.03053 23.6221C3.98785 23.4557 3.92078 23.2542 3.8842 23.1778C3.683 22.8969 3.61289 22.5641 3.68757 22.2373C3.81561 21.6755 4.31404 21.364 4.67681 21.1793C4.9649 21.0327 6.82449 19.967 8.13839 18.767C8.95082 18.0234 12.5984 14.7714 12.7523 14.6324C12.7584 14.6263 12.766 14.6202 12.7721 14.6157C12.8331 14.5653 13.3803 14.1149 14.0632 13.8797C14.5235 13.7194 22.0441 10.9865 22.1204 10.959C22.1829 10.9346 23.9175 10.2964 25.5652 10.9712C26.8852 11.5117 30.6287 13.0644 30.6653 13.0797C30.7156 13.1011 31.6408 13.5011 32.2963 13.8752C32.8953 14.2156 36.9285 16.3363 36.9696 16.3577C36.9971 16.373 37.0245 16.3882 37.0504 16.405C37.0504 16.405 37.8095 16.9089 38.2104 17.1791C38.7728 17.5562 41.4753 19.4556 41.5896 19.5365C41.5957 19.5411 41.6018 19.5456 41.6079 19.5487C42.1186 19.9273 42.5133 20.6968 42.1704 21.4938C42.0256 21.8282 41.265 23.0526 40.9068 23.6237C40.9159 23.642 40.9312 23.671 40.9601 23.7076L41.9067 24.9443C41.9661 25.0207 42.274 25.4482 42.3365 26.0726C42.3502 26.2024 42.4051 26.5322 42.4478 26.7719C43.2084 27.3429 43.0956 28.0819 42.7344 28.5872C42.5987 28.7781 39.5807 33.1981 37.5488 36.1753C37.5443 36.1906 37.5412 36.2043 37.5397 36.215C37.8308 36.2425 38.189 36.2792 38.4695 36.3295C38.6905 36.3708 38.9496 36.4532 39.3429 36.5784C39.7285 36.7006 40.2559 36.8685 40.9601 37.0655C45.0024 38.1876 52.7959 40.2946 52.8752 40.316C52.8828 40.3175 52.892 40.3205 52.8996 40.3236C52.9758 40.3465 54.5214 40.8106 55.2851 41.0519C55.3811 40.7984 55.4969 40.4809 55.5701 40.2793C56.0213 39.0243 57.2285 38.351 58.3747 38.7159C59.0942 38.9434 63.9992 40.8488 64.5556 41.0641C64.5632 41.0671 64.5693 41.0702 64.5769 41.0733C64.6104 41.087 65.3924 41.4168 66.3374 41.9786C66.9456 42.3405 71.3339 44.8123 72.3811 45.4017C72.8018 44.6871 74.2742 41.9863 74.8397 40.9404C74.8473 40.9252 74.8565 40.9114 74.8641 40.8977C74.8839 40.8656 75.3412 40.1221 75.5957 39.7465C75.8396 39.3846 77.6885 36.6196 77.6885 36.6196C77.6992 36.6028 77.7114 36.586 77.7236 36.5708C78.1001 36.0807 78.8454 35.7188 79.5923 36.0837C80.0161 36.2914 99.6073 47.0949 101.84 48.327C101.901 48.3606 103.24 49.1087 104.043 49.6538C104.65 50.066 112.492 54.9685 116.555 57.5045C117.167 57.8724 117.586 58.6587 117.182 59.4359L117.179 59.4343Z" fill="#15151E"/>
<path d="M40.541 21.0373C40.541 21.0373 40.5333 21.0312 40.5211 21.0236C40.5211 21.0236 40.5608 21.051 40.5425 21.0388L40.541 21.0373Z" fill="#15151E"/>
<path d="M100.95 49.9301C93.9874 46.0887 81.1089 38.9907 79.0497 37.8731C78.5985 38.5464 77.309 40.4763 77.1063 40.7755C76.8959 41.0855 76.5072 41.7145 76.431 41.8382C76.1551 42.3466 74.2269 45.9009 73.855 46.4933C73.2606 47.4399 72.2698 47.4048 71.75 47.1498C71.7348 47.1422 71.718 47.1346 71.7028 47.1254C71.4741 46.9972 66.1042 43.9741 65.3969 43.5543C64.6211 43.0917 63.9596 42.8046 63.8757 42.768C62.3667 42.1817 58.3778 40.6396 57.8168 40.4625C57.6522 40.4106 57.4083 40.5603 57.2849 40.9007C57.1172 41.3649 56.945 41.8366 56.8352 42.087C56.7468 42.2901 56.6157 42.4642 56.4572 42.6031C57.2315 43.0413 57.9235 43.4688 58.4448 43.7909C58.6247 43.9024 58.7802 43.9986 58.9082 44.0749C59.9218 44.6856 62.3713 46.1727 62.5542 46.2826C63.045 46.562 78.4308 55.3349 80.2462 56.3716C82.054 57.4037 86.2365 60.0008 86.6023 60.2283C86.7746 60.3244 87.8964 60.952 89.0854 61.7382C90.256 62.5138 91.8595 63.4971 92.0058 63.5887L107.355 72.3753C107.376 72.386 107.398 72.3967 107.419 72.4074C107.552 72.4822 107.636 72.4929 107.657 72.4944C107.786 72.2959 108.483 71.2333 108.817 70.7814C109.12 70.3676 109.596 69.5844 109.672 69.4592C111.425 66.2224 114.575 60.4054 115.371 58.929C113.694 57.8831 103.746 51.6722 103.011 51.1729C102.275 50.6737 100.961 49.9393 100.949 49.9316L100.95 49.9301ZM106.501 67.6332C106.501 67.6332 106.492 67.6484 106.488 67.6561L93.873 60.4344C93.5773 60.2527 92.1506 59.3733 91.1035 58.6801C89.9344 57.9075 88.8171 57.2694 88.4635 57.0709C87.7928 56.6541 83.8435 54.2066 82.0616 53.1883C81.3879 52.8035 78.85 51.3561 75.899 49.6721C76.2999 49.327 76.6566 48.9148 76.9523 48.4446C77.3364 47.8338 78.7479 45.2444 79.5984 43.6749C79.7722 43.394 80.0191 43.0016 80.138 42.8275C80.1578 42.7985 80.1883 42.7527 80.2279 42.6947C84.723 45.165 93.085 49.7744 99.179 53.1364C99.6393 53.3929 100.522 53.9059 100.962 54.2051C101.552 54.6051 106.753 57.8602 110.519 60.2145C109.318 62.4345 107.742 65.346 106.501 67.6347V67.6332Z" fill="#15151E"/>
<path d="M115.584 59.0603L115.597 59.0664C115.592 59.0633 115.586 59.0603 115.58 59.0557C115.58 59.0572 115.583 59.0587 115.584 59.0603Z" fill="#15151E"/>
<path d="M40.6659 27.204C40.6553 27.146 40.5455 26.5337 40.5166 26.2589C40.5059 26.149 40.4556 26.0635 40.4434 26.0436L39.5075 24.8207C38.8277 23.9305 39.067 23.0786 39.3353 22.6832C39.7377 22.0434 40.1965 21.2923 40.3992 20.9365C39.8246 20.5335 37.6662 19.0189 37.1922 18.6998C36.8477 18.4677 36.2395 18.0631 36.0795 17.9578C35.6222 17.7181 31.9914 15.8081 31.3924 15.4676C30.8254 15.1454 29.9626 14.7714 29.9535 14.7683C29.9276 14.7576 26.1886 13.208 24.8716 12.6675C23.8992 12.269 22.7605 12.6766 22.7499 12.6797C22.4328 12.7942 15.1347 15.4477 14.6591 15.6126C14.3604 15.7149 14.0586 15.9302 13.9549 16.0142C13.7019 16.2401 10.1504 19.4082 9.36999 20.1212C8.114 21.2678 6.37636 22.3381 5.6691 22.7259C5.72855 22.8954 5.7758 23.0664 5.81238 23.2145C5.81848 23.2374 5.82305 23.2603 5.8261 23.2847C6.66596 28.3735 8.271 38.0899 8.33502 38.435C8.34874 38.5098 8.36246 38.5846 8.37617 38.6594C8.40361 38.8121 8.43867 39.0182 8.47525 39.0976C10.5193 38.7327 17.2077 37.5418 17.6619 37.5006C18.2046 37.4517 18.9682 37.6105 19.1633 37.6533C22.0701 38.1846 28.8149 39.4167 29.103 39.4915C29.7142 39.6488 30.3056 39.3633 30.3117 39.3602C30.3254 39.3526 30.3315 39.3495 30.3468 39.3434C30.5038 39.2717 34.2016 37.5983 34.729 37.3845C35.1344 37.2212 35.5048 37.0914 35.8356 36.9937C35.7777 36.8181 35.7548 36.6761 35.7274 36.5051L35.7243 36.4868C35.6344 35.9463 35.8447 35.4654 35.9118 35.331C35.9301 35.2929 35.953 35.2562 35.9758 35.2211C36.43 34.5554 39.9739 29.3613 40.9815 27.8941C40.7452 27.5979 40.6781 27.3032 40.6614 27.2009L40.6659 27.204ZM28.6274 36.1112C28.6716 36.0883 28.7234 36.0624 28.7829 36.0349C28.731 36.0593 28.6792 36.0853 28.6274 36.1112ZM32.9593 33.1569C32.8389 33.3325 32.7307 33.5172 32.6362 33.7096C32.5447 33.8959 32.4365 34.1417 32.339 34.4363C31.4351 34.8379 30.1715 35.4074 29.3042 35.7998C28.3439 35.615 25.9859 35.1768 19.8843 34.0638C19.3051 33.9386 18.2914 33.7691 17.3418 33.8531C17.1498 33.8699 16.8205 33.8989 11.446 34.8501C10.9964 32.137 10.315 28.0147 9.73276 24.4909C10.4293 24.0038 11.1701 23.4374 11.8347 22.8297C12.4993 22.2221 15.2612 19.7563 16.1346 18.9777C17.4211 18.5151 22.3627 16.7196 23.8108 16.1928C25.2375 16.7791 28.1747 17.9975 28.5298 18.144C28.8195 18.2708 29.3209 18.5044 29.5816 18.6525C30.1852 18.996 33.2017 20.5854 34.2107 21.1152C34.4577 21.2801 34.8845 21.564 35.1512 21.7427C35.2396 21.8022 35.4073 21.9182 35.6268 22.0694C35.1802 23.5641 35.3372 25.3932 36.6023 27.0498L36.8797 27.4116C35.7289 29.0957 34.104 31.4759 32.9578 33.1554L32.9593 33.1569Z" fill="#15151E"/>
</svg>
