<svg width="121" height="85" viewBox="0 0 121 85" fill="none" xmlns="http://www.w3.org/2000/svg">
<path d="M114.206 35.6295C113.565 34.659 111.93 33.7669 111.301 33.4793C107.073 32.0688 100.677 29.9447 100.263 29.8263C99.924 29.7309 98.8859 29.4386 97.5756 30.1108C96.601 30.6107 95.549 31.8258 95.5413 33.3131C95.5274 36.0018 97.6112 36.8816 97.7705 36.9446C97.9129 36.9938 99.0932 37.4045 99.6037 37.5706C100.153 37.7106 105.294 39.1334 106.63 43.8154C107.97 48.5035 106.424 49.977 104.929 50.7369L104.596 50.9061L104.563 50.8968C103.247 51.3967 102.045 50.9584 101.483 50.5738C100.909 50.2308 92.0466 44.9413 86.9028 41.8881C83.8073 40.0516 78.1685 36.7216 73.6357 34.0453C70.353 32.1057 67.7602 30.5753 67.2807 30.2892C65.4939 29.2233 63.4131 28.9311 61.5722 29.4894C59.4482 30.1339 58.322 31.8319 58.3096 31.8489L58.2926 31.875C58.2214 31.9781 51.1702 42.1373 50.0842 43.7139C49.1854 45.0182 49.0075 46.5101 48.9812 47.2838C48.9781 47.3607 48.9858 47.5837 48.992 47.7991C49.0229 48.8281 49.0384 49.8032 48.9007 50.4046C48.5727 51.8382 47.776 52.5488 47.2052 52.9594C46.1146 53.7408 44.6155 53.7439 44.4484 53.7439C44.4422 53.7439 42.5564 53.7439 37.6091 53.7116C35.6058 53.6977 33.6194 53.3517 31.5356 52.6518C29.82 52.075 27.2875 50.5784 27.1808 50.5154L27.1421 50.4908C26.8018 50.2662 18.7991 44.9766 18.1478 44.4967C17.2103 43.8061 16.7339 43.0355 16.5529 41.9189C16.4105 41.0422 16.6302 40.0501 17.1423 39.2672C18.2793 37.5245 20.3461 37.5353 20.671 37.5491C21.1552 37.5491 30.1139 37.5799 33.7447 37.5706C34.5832 37.5691 34.8771 37.5568 35.2592 37.5368C38.7029 37.3538 40.6768 35.3081 41.3652 34.436C42.4404 33.0747 42.9184 30.6461 41.9175 29.1987C40.9228 27.7636 39.6295 27.5422 38.9272 27.5422C38.9163 27.5422 38.9071 27.5422 38.8978 27.5422C38.5992 27.5452 36.6113 27.5452 33.8576 27.5452C28.9552 27.5452 22.2412 27.5452 19.7768 27.5591C16.8019 27.576 13.2748 28.6358 10.5706 30.3261C9.39333 31.0614 7.88964 32.1826 6.70154 34.3437C5.48251 36.5616 5.24427 38.8273 5.99611 41.0775C6.73867 43.3001 8.36148 45.032 10.566 45.9549L10.6155 45.9764C11.2652 46.2517 15.1095 47.7837 16.607 48.3759C18.2546 49.0296 19.1224 50.137 19.4922 50.7384L19.5247 50.7922C19.9269 51.4429 20.4761 52.335 20.3879 54.6421C20.3121 56.6048 20.4822 57.0524 21.1954 57.7937C21.9256 58.5535 23.1617 58.4505 23.174 58.449L23.2653 58.4443L108.381 58.4643C110.747 58.5259 112.657 57.7045 114.068 56.0264C115.436 54.3976 115.426 52.2058 115.426 52.1842C115.426 52.0473 115.433 39.9009 115.426 39.4179C115.414 38.5043 114.879 36.6508 114.206 35.6342V35.6295ZM14.0312 37.2523C13.0164 38.8057 12.6003 40.7192 12.8896 42.5003C12.9143 42.6495 12.9406 42.7971 12.9731 42.9417C12.5368 42.7664 12.212 42.6341 12.0696 42.5741L12.0062 42.548C10.7686 42.0296 9.93169 41.1421 9.52018 39.9101C9.09476 38.635 9.23399 37.4276 9.95953 36.1094C10.7299 34.7082 11.6581 34.0007 12.5461 33.4454C14.6655 32.1211 17.512 31.2567 19.7985 31.2444C21.9674 31.2321 27.4592 31.2305 32.0879 31.2305H33.8576C36.5896 31.2305 38.1908 31.2305 38.7524 31.229C38.7353 31.5228 38.5977 31.9581 38.4461 32.1488C38.1521 32.5195 37.0414 33.7392 35.0628 33.8438C34.7719 33.8592 34.5414 33.8715 33.7354 33.873C30.2485 33.8822 21.8111 33.8546 20.77 33.8515C18.6908 33.77 15.7546 34.6082 14.0297 37.2507L14.0312 37.2523ZM24.1022 54.7498C24.127 54.0561 24.1084 53.4363 24.0543 52.8764C24.4379 53.1302 24.7876 53.3624 25.0892 53.5608L25.2795 53.6808C25.5239 53.8254 26.2711 54.2638 27.2086 54.7498H24.1022ZM50.7169 54.756C51.6049 53.7669 52.2097 52.5826 52.5222 51.2214C52.7574 50.1955 52.7435 49.0142 52.7048 47.6883C52.7017 47.5576 52.6971 47.4438 52.6955 47.3592C52.711 47.0331 52.7868 46.3225 53.1488 45.798C54.2317 44.226 61.2798 34.0714 61.351 33.9699L61.3402 34.0176L61.4191 33.8776C61.5475 33.7207 62.0007 33.2178 62.6582 33.0194C63.1502 32.8702 64.1588 32.7287 65.3732 33.4531C65.859 33.7438 68.4564 35.2773 71.7438 37.2184C76.2734 39.8947 81.9122 43.2232 85.0031 45.0582C89.9907 48.0175 98.4775 53.084 99.5016 53.6947C100.294 54.2084 101.355 54.6329 102.551 54.7683L50.7169 54.756ZM104.163 54.7683C104.268 54.756 104.373 54.7421 104.48 54.7252L104.627 54.7683H104.163ZM111.712 52.1642L111.704 52.1089L111.711 52.2104C111.69 52.5426 111.554 53.2548 111.217 53.6562C110.543 54.4576 109.693 54.8036 108.476 54.7713H105.151L106.616 54.0253C108.47 53.084 109.738 51.6828 110.385 49.8586C111.067 47.936 111.007 45.6303 110.201 42.8079C108.391 36.4693 102.121 34.4267 100.663 34.0314C100.306 33.913 99.6873 33.6992 99.2742 33.5562C99.268 33.5346 99.2618 33.4946 99.2572 33.4347C99.268 33.4193 99.2804 33.4054 99.2928 33.3916C100.264 33.6992 106.114 35.6434 109.894 36.9031C110.369 37.143 110.928 37.5045 111.138 37.7137C111.378 38.1259 111.672 39.0765 111.712 39.4964C111.717 40.2362 111.714 47.4069 111.712 52.1627V52.1642Z" fill="#15151E"/>
<path d="M120.994 39.3425C120.968 37.2938 120.05 34.3898 118.861 32.5902C117.286 30.2046 114.385 28.7849 113.535 28.4066L113.33 28.3158L113.118 28.2451C109.147 26.9208 102.395 24.6736 101.787 24.4998C98.8968 23.6846 96.5144 24.4244 95.0246 25.1888C91.9739 26.7531 89.9922 29.9308 89.9752 33.2839C89.9659 35.1266 90.4114 36.6632 91.0875 37.9183C90.6249 37.6429 90.1809 37.3799 89.7617 37.1307C86.6615 35.2927 81.0196 31.9596 76.4853 29.2818C73.3387 27.4237 70.6206 25.8179 70.1519 25.538C67.0161 23.6661 63.2987 23.1739 59.9525 24.1891C56.201 25.3257 54.1868 28.0144 53.6825 28.7711C53.107 29.6001 46.5601 39.0334 45.4942 40.5807C43.8822 42.9187 43.4769 45.4135 43.4197 47.0962C43.4119 47.3469 43.4197 47.6022 43.429 47.9575C43.4305 48.0206 43.4336 48.1052 43.4351 48.2005C42.4126 48.1974 40.567 48.1898 37.6493 48.1698C36.2493 48.1605 34.8323 47.9083 33.3193 47.4007C32.5442 47.1408 31.022 46.3317 30.1278 45.8088C28.7572 44.9028 27.3277 43.9553 26.0314 43.0955C28.7897 43.1017 31.9409 43.1063 33.7602 43.1017C34.7271 43.1001 35.1154 43.0832 35.5593 43.0586C41.2802 42.7556 44.5908 39.3149 45.7495 37.849C48.056 34.9297 49.1049 29.8016 46.5075 26.0517C44.7037 23.4508 41.9191 21.9742 38.8514 22.0003C38.5775 22.0034 36.3916 22.0034 33.8607 22.0019C28.9521 22.0019 22.2273 22.0019 19.7474 22.0157C15.7345 22.0388 11.1956 23.3908 7.60963 25.6318C5.99766 26.6393 3.64312 28.362 1.8192 31.6812C-0.663739 36.191 -0.153228 40.227 0.713094 42.8187C1.96926 46.5794 4.70127 49.5033 8.40789 51.0537L8.43728 51.066C9.22007 51.3967 13.4774 53.0902 14.5495 53.5147C14.6841 53.5685 14.7382 53.6208 14.7552 53.6377L14.7815 53.6808C14.7924 53.6977 14.8032 53.7147 14.814 53.7316C14.8264 53.8377 14.8419 54.0576 14.828 54.4253C14.7351 56.8324 14.845 59.1949 17.1763 61.6159C19.3947 63.9216 22.3077 64.0308 23.4123 63.9769L108.306 63.9969C108.409 63.9985 108.511 64 108.613 64C112.493 64 115.939 62.4357 118.346 59.5702C120.877 56.5555 121.005 52.9794 120.997 52.1412C120.997 50.0263 121.003 39.8424 120.997 39.3425H120.994ZM44.4438 48.2036C44.4763 48.2036 44.4979 48.2036 44.5088 48.2036H44.4422C44.4422 48.2036 44.4422 48.2036 44.4438 48.2036ZM115.493 57.2046C113.784 59.2395 111.412 60.3085 108.618 60.3085C108.528 60.3085 108.437 60.3085 108.346 60.3055L23.3024 60.2855C22.9435 60.3116 21.1103 60.3685 19.8557 59.0642C18.6181 57.7799 18.4526 56.6863 18.5346 54.5668C18.6011 52.8179 18.2669 52.2765 17.9436 51.752L17.9096 51.6966C17.6605 51.2906 17.0696 50.5415 15.9217 50.0862C14.5371 49.5371 10.5845 47.9652 9.88992 47.6699L9.8466 47.6514C7.14244 46.5194 5.1499 44.3906 4.23562 41.6543C3.31515 38.8965 3.59671 36.1371 5.0741 33.4531C6.48342 30.8906 8.3228 29.5463 9.58361 28.7573C12.5647 26.8946 16.4662 25.7256 19.7675 25.7072C22.2366 25.6933 28.9552 25.6933 33.8592 25.6933C36.503 25.6933 38.593 25.6933 38.8823 25.6903C39.9436 25.6857 41.9531 25.9871 43.4475 28.1451C44.1638 29.1802 44.4546 30.5645 44.2628 32.0442C44.0957 33.3408 43.5728 34.6252 42.8272 35.568C41.9825 36.637 39.563 39.1487 35.3598 39.3718C34.9591 39.3933 34.6311 39.4071 33.7509 39.4087C30.0334 39.4179 20.7406 39.3871 20.6478 39.3871H20.5874C20.5426 39.3825 19.3112 39.3302 18.7016 40.2654C18.3861 40.7484 18.3335 41.2806 18.3876 41.6189C18.4913 42.2557 18.7094 42.6064 19.2555 43.0079C19.7629 43.3832 25.8287 47.4007 28.1507 48.9342C28.3797 49.068 30.6708 50.4062 32.1296 50.8953C34.0232 51.5305 35.8192 51.8458 37.623 51.8582C42.5611 51.892 44.4407 51.892 44.4593 51.8905C44.7578 51.8905 45.6149 51.8151 46.1207 51.4552C46.4967 51.186 46.9066 50.7999 47.0923 49.9878C47.1897 49.5648 47.1541 48.4036 47.1387 47.8468C47.1294 47.5591 47.1247 47.3515 47.1278 47.2161C47.1681 46.0256 47.4481 44.2707 48.5542 42.6649C49.6278 41.1068 56.4996 31.2059 56.7595 30.8306C56.9157 30.5938 58.3359 28.5342 61.0323 27.7175C63.3745 27.0069 66.0013 27.3668 68.2382 28.7004C68.7132 28.9834 71.3044 30.5153 74.5856 32.4518C79.1183 35.1281 84.7587 38.4597 87.8558 40.2977C93.1496 43.4385 102.376 48.948 102.469 49.0034L102.534 49.0465C102.596 49.088 103.261 49.5048 104.081 49.0896L104.265 48.9957C104.955 48.6173 105.847 47.8298 104.843 44.3168C103.761 40.5223 99.1737 39.3641 99.1273 39.3518L99.0592 39.3318C98.5193 39.1564 97.1997 38.6965 97.144 38.6781C96.9893 38.6212 93.6648 37.3568 93.6849 33.2993C93.6973 31.0306 95.2195 29.2372 96.7248 28.465C98.0273 27.7975 99.3887 27.656 100.772 28.0467C101.363 28.2143 110.855 31.3797 111.936 31.7397L112.02 31.772C112.291 31.8919 114.687 32.9901 115.758 34.6113C116.65 35.9618 117.267 38.1705 117.283 39.3856C117.289 39.8793 117.283 51.5813 117.283 52.1565C117.286 52.3888 117.274 55.0805 115.495 57.2L115.493 57.2046Z" fill="#15151E"/>
</svg>
