<svg width="121" height="85" viewBox="0 0 121 85" fill="none" xmlns="http://www.w3.org/2000/svg">
<path d="M104.972 17.4921L104.555 13.7743L104.541 13.6641C104.183 11.1012 102.229 6.51409 97.1697 5.5797C92.4159 4.70185 89.1441 7.33821 87.8921 9.11935L80.8076 18.6513C80.7025 18.7884 80.5875 18.9368 80.4726 19.0782C80.1191 19.0598 79.6393 19.0301 78.9892 18.982C74.9594 18.6838 70.7137 19.5531 70.1332 19.6789C68.9323 19.9277 45.8149 24.7128 43.9214 25.1171C40.9164 25.7574 39.0924 27.7605 38.3855 29.4243L35.2555 36.7453L35.2343 36.7651L35.186 36.9136C35.1619 36.9659 35.1335 37.0224 35.1022 37.0775C35.1193 34.3719 35.1917 22.4807 35.2115 20.5328C35.2414 17.6674 34.7048 15.5159 34.0007 13.0011C33.1519 9.97316 31.2456 7.15162 31.0298 6.83921L28.1298 2.86841C26.9048 1.01377 24.3654 -0.500199 21.254 0.155711C17.7564 0.899265 16.2035 3.89186 16.2291 6.38403V10.5132L16.1368 42.7984L16.0005 71.0365C15.9934 72.4684 16.0488 74.1407 16.7855 75.8724C18.0446 78.8254 20.628 80.9288 23.6954 81.4971C26.7515 82.064 29.7097 81.1762 31.8772 79.1435C32.3045 80.345 33.1221 81.3854 34.2676 82.1261C35.3876 82.8499 36.4933 83.0719 36.9177 83.1326L37.0923 83.1581L37.2683 83.1694C38.4039 83.2401 65.0984 84.8968 66.6867 84.983C66.894 84.9943 67.0955 85 67.2943 85C69.9841 85 71.8536 84.0077 73.1978 83.1213C75.4931 81.6116 76.4867 79.2339 76.6627 78.7731L76.7394 78.5526C76.7592 78.4918 78.694 72.4345 79.5087 70.0809C79.7401 69.4136 80.4953 68.7591 80.8459 68.5316C81.4832 68.1612 87.6082 64.5975 90.6998 62.7895C95.6026 59.9227 95.3812 54.8027 94.0355 52.0603L93.9617 51.9104L93.8765 51.7663C93.8553 51.7309 92.0227 48.6394 90.9127 46.7338C92.1292 45.1153 95.2832 40.9225 96.7183 39.0198C98.8915 39.1018 100.839 38.1066 101.969 36.3255C102.599 35.3317 102.809 34.3479 102.879 33.8248C103.018 32.9201 104.382 24.047 104.656 22.2135C105.079 19.4005 105.007 17.8879 104.974 17.4907L104.972 17.4921ZM33.0951 61.513V61.5201C33.0951 61.5201 33.0951 61.5215 33.0951 61.5229C33.0951 61.5201 33.0951 61.5173 33.0951 61.513ZM101.285 21.7117C101.009 23.5536 99.5856 32.8184 99.5033 33.3499C99.3997 34.3549 98.5792 35.7671 96.7112 35.6229C95.1228 35.4985 95.0987 35.5311 94.6871 36.0668C94.0299 36.9277 87.7558 45.2722 87.6934 45.3556L87.6834 45.3683C87.6536 45.4079 86.8488 46.502 87.5472 47.7149C88.5394 49.4381 90.9184 53.4499 90.9425 53.4908L90.9737 53.5502C91.6523 54.9327 92.1079 58.0313 88.9737 59.8648C85.7288 61.7618 79.1383 65.5955 79.073 65.6337C79.0574 65.6422 77.0147 66.8776 76.288 68.9726C75.459 71.3672 73.5115 77.4627 73.4931 77.5249L73.4774 77.5687C73.4505 77.6394 72.7975 79.3187 71.3199 80.2899C70.1233 81.0787 68.9664 81.6074 67.3141 81.6074C67.1708 81.6074 67.0231 81.6031 66.8713 81.5946C65.2957 81.5098 37.7581 79.7994 37.4798 79.7824L37.4103 79.7753C36.2932 79.6128 34.7204 78.6699 34.9702 76.7389C35.1803 75.1246 36.1924 69.1323 36.2676 68.6899C36.3485 68.0524 36.5515 66.3405 36.5473 65.7934C36.5416 65.0654 36.5033 61.4805 36.5033 61.4805C36.5033 61.4749 36.4862 60.8204 36.1427 60.204C35.7225 59.452 35.0057 59.0859 33.9482 59.0859H33.9369C33.2924 59.0859 32.7942 59.2753 32.4109 59.6598C31.5096 60.5659 31.5124 62.2453 31.5124 62.2622L31.4996 71.8224C31.4982 73.1328 31.352 74.1789 30.6309 75.3366C29.9609 76.4124 28.0035 78.8409 24.32 78.1596C22.3782 77.8005 20.7344 76.4477 19.9225 74.545C19.4385 73.4085 19.403 72.1956 19.4087 71.0506L19.5449 42.8125L19.6358 10.5202V6.36C19.6244 5.52881 20.0928 3.86924 21.9651 3.47202C24.0475 3.03239 25.1206 4.48133 25.3122 4.77253L28.2207 8.75323C28.2931 8.85925 30.0064 11.3656 30.7189 13.9086C31.3705 16.2354 31.8304 18.0703 31.8048 20.4932C31.7821 22.6546 31.6955 36.9758 31.6927 37.5808C31.7026 37.7773 31.8786 40.309 34.5529 40.8052C37.1491 41.2872 38.3258 38.2381 38.3741 38.1081L38.3897 38.0699L41.5225 30.7432C41.5523 30.6725 42.316 28.9267 44.6354 28.432C46.5275 28.0277 70.6002 23.0447 70.8429 22.9953C71.0062 22.9599 75.0658 22.092 78.7366 22.3634C81.7245 22.5839 81.8651 22.4835 82.0127 22.3761C82.0524 22.3464 82.095 22.3167 82.1433 22.2842C82.3647 22.1344 83.0432 21.3329 83.5386 20.6784L90.6657 11.0885C90.8701 10.7973 92.7892 8.21889 96.5508 8.91296C100.498 9.64238 101.143 13.9454 101.168 14.1277L101.171 14.1504L101.579 17.7635C101.583 17.8172 101.679 19.0951 101.286 21.7103L101.285 21.7117Z" fill="#15151E"/>
<path d="M99.4778 14.3553C99.4437 14.1376 98.927 11.0786 96.2371 10.5824C93.4678 10.0707 92.1178 11.9762 92.0625 12.0582L92.0412 12.0879L84.9013 21.6947C84.6174 22.0708 83.6593 23.3091 83.0986 23.6879C83.0673 23.7091 83.0389 23.7303 83.012 23.7501C82.3491 24.2293 81.9304 24.3014 78.6088 24.0555C75.1893 23.8024 71.2347 24.6463 71.1949 24.6548C70.9451 24.7071 46.8767 29.6886 44.9902 30.0915C43.5679 30.3954 43.1038 31.3751 43.0853 31.4175L39.9639 38.7201C39.8972 38.8926 39.4926 39.8878 38.6864 40.8123C37.4642 42.2117 35.927 42.7871 34.242 42.4747C30.9645 41.8668 30.0277 39.0325 29.9893 37.6189V37.5907C29.9893 37.4422 30.0788 22.6786 30.1015 20.4776C30.1228 18.4632 29.7878 16.9012 29.078 14.3666C28.462 12.1685 26.929 9.88269 26.8211 9.72296L23.8771 5.68713C23.8317 5.61786 23.3505 4.9153 22.3186 5.133C21.3916 5.32949 21.3405 6.17906 21.3405 6.34728V10.5259L21.2483 42.821L21.112 71.0605C21.1078 72.0288 21.1333 73.0438 21.491 73.8849C21.7735 74.5464 22.6436 76.1268 24.6323 76.4944C27.1873 76.9679 28.5812 75.413 29.1845 74.4446C29.6983 73.6205 29.7963 72.8869 29.7977 71.8224L29.8105 62.2721C29.8105 62.1887 29.792 59.8945 31.193 58.4766C31.9028 57.7585 32.8254 57.3924 33.934 57.391C36.1143 57.3797 37.1704 58.5105 37.6729 59.4562C38.1853 60.4217 38.2066 61.3632 38.2066 61.4664C38.2066 61.4664 38.2464 65.0541 38.2506 65.7835C38.2563 66.5469 37.9866 68.6814 37.9554 68.9217L37.9497 68.9556C37.9383 69.0192 36.8681 75.3493 36.6594 76.958C36.5515 77.7949 37.2769 78.0295 37.6303 78.0946C38.9021 78.1737 65.4234 79.8192 66.9635 79.9026C68.2339 79.9718 69.1268 79.7018 70.3802 78.8763C71.3255 78.2543 71.8153 77.1347 71.8791 76.9821C72.0282 76.5156 73.8721 70.7481 74.6783 68.4199C75.6137 65.7227 78.1049 64.2328 78.2114 64.1706C78.2809 64.1296 84.8701 60.2973 88.1121 58.4017C90.5422 56.981 89.6267 54.6924 89.4549 54.3192C89.2165 53.9163 87.0177 50.2056 86.0695 48.5602C84.8275 46.4059 86.1973 44.5117 86.3307 44.3364C86.6132 43.9604 92.6714 35.9043 93.3315 35.0377C94.2925 33.7838 95.0561 33.7909 96.8432 33.9309C97.5601 33.9874 97.7645 33.5421 97.8099 33.1576L97.8156 33.1152C97.8312 33.0177 99.3174 23.3444 99.5998 21.4601C99.9405 19.1884 99.8866 18.0293 99.8795 17.9077L99.4792 14.3539L99.4778 14.3553ZM96.23 20.9625C96.0313 22.2955 95.2236 27.5569 94.7666 30.5297C93.4039 30.6881 91.9362 31.2676 90.6203 32.9852C89.9617 33.8475 84.0652 41.6901 83.6209 42.281C82.1646 44.1738 81.4492 47.3587 83.1156 50.2481C83.919 51.6419 85.5557 54.4111 86.2384 55.5632C82.9495 57.4857 76.5619 61.2006 76.4981 61.2388L76.4796 61.2487C75.8678 61.6092 72.7493 63.5924 71.459 67.313C70.6939 69.5239 69.07 74.5902 68.6981 75.7508C68.6342 75.8681 68.5406 76.0024 68.4824 76.059C67.74 76.5453 67.554 76.5354 67.1495 76.5142C65.8833 76.4463 47.392 75.2999 40.4252 74.8673C40.7304 72.9717 41.1222 70.6293 41.3096 69.5197L41.3351 69.35C41.4586 68.3874 41.663 66.6402 41.6573 65.7609C41.6531 65.047 41.6147 61.5978 41.6119 61.4325C41.5821 57.8235 38.888 53.9983 33.9496 53.9983H33.9269C31.9028 54.0026 30.1171 54.7277 28.7643 56.0975C26.5159 58.3734 26.3995 61.5597 26.4038 62.2891L26.391 71.8168C26.391 72.4939 26.3413 72.5716 26.2902 72.655C25.9027 73.277 25.5734 73.2162 25.2554 73.1569C24.8906 73.089 24.6947 72.7144 24.628 72.5589C24.513 72.2903 24.5173 71.3743 24.5187 71.0746L24.655 42.8281L24.7402 12.8456C25.139 13.5694 25.572 14.4698 25.7991 15.277C26.4464 17.5882 26.7146 18.8167 26.6976 20.4409C26.6749 22.6489 26.5883 36.9602 26.584 37.5695V37.7052C26.6706 40.996 28.9091 44.9343 33.6175 45.8065C36.472 46.3366 39.2556 45.3259 41.257 43.0359C42.3458 41.7891 42.9277 40.4787 43.118 40.0009L45.9597 33.3513C49.1365 32.6827 71.6463 28.0234 71.882 27.974L71.916 27.9669C71.9515 27.9598 75.4519 27.2191 78.3576 27.4354C81.5897 27.6743 83.2121 27.7944 85.0148 26.4911L85.0319 26.4784C85.3356 26.272 86.1121 25.7306 87.6196 23.7374L94.7822 14.1009L94.7964 14.0811C95.059 13.8097 95.4493 13.8818 95.6182 13.9129C95.6452 13.9171 95.6566 13.9214 95.6566 13.9214C95.79 14.0132 96.0228 14.467 96.1079 14.8529L96.4813 18.1565C96.4855 18.3897 96.4798 19.31 96.2314 20.9568L96.23 20.9625Z" fill="#15151E"/>
</svg>
