<svg width="121" height="85" viewBox="0 0 121 85" fill="none" xmlns="http://www.w3.org/2000/svg">
<path d="M113.733 33.6882C113.542 32.8271 113.281 31.9786 112.96 31.1682C112.242 29.3573 110.437 24.9282 109.181 22.9115C109.049 22.701 108.917 22.481 108.781 22.2546C107.119 19.5082 105.051 16.0906 97.6391 14.4475C89.2975 12.5971 79.3587 10.4205 79.2602 10.3984C79.2538 10.3984 79.2491 10.3952 79.2427 10.3936C79.1633 10.3746 71.3413 8.51943 67.6147 8.7078C64.5555 8.86134 60.3696 9.59108 55.173 10.8764C51.5576 11.7692 12.761 22.2372 12.3685 22.3433C12.3414 22.3512 8.28427 23.5289 6.58543 25.1403C6.08166 25.6184 5.79402 26.1961 5.73204 26.8546C5.67007 27.5211 5.90368 28.197 6.37407 28.7083C6.70462 29.0692 7.0892 29.4491 7.51828 29.8385C8.75625 30.9592 10.1929 32.2398 10.3057 32.3411C11.0637 32.9933 12.1682 34.8137 10.9779 37.1058C9.90046 39.1778 9.01052 40.5202 8.83571 40.7766C8.65931 41.1074 7.06378 44.2385 7.50716 47.9473C8.09039 52.8149 10.2692 55.4616 11.1798 56.3733C12.9183 58.1162 15.1511 60.0743 19.6548 61.2409C24.4494 62.4835 43.0635 67.2846 43.251 67.3336L76.0437 75.7944L81.6662 77.2191C82.2081 77.3236 83.7449 77.4391 84.6046 76.7711C85.609 75.9907 86.1938 74.9412 86.5021 73.3694C86.7643 72.0286 87.8735 65.7032 87.961 65.2093C87.9911 64.9117 88.2883 61.749 87.2458 59.5392C86.108 57.1252 85.0416 55.5391 82.375 53.57C79.6559 51.5628 69.4057 44.3936 69.3024 44.3208L60.7335 38.2677L54.9171 34.0143C54.3895 33.628 53.9239 33.1753 53.5298 32.6688C52.7686 31.6921 51.8071 30.1551 51.5576 28.3933C51.1842 25.7513 51.6101 23.0746 52.7876 20.6543C53.9112 18.3479 55.3303 16.1144 58.1003 15.4021C60.3474 14.8227 66.4943 13.5405 68.5841 13.2967C70.6532 13.0561 74.2734 12.9928 75.2698 15.2754C75.8339 16.5687 75.4589 18.0535 75.0441 19.0729C74.8455 19.562 74.5753 20.0322 74.2416 20.4706C73.3739 21.604 72.708 22.538 72.503 22.9084C72.1375 23.5716 71.5892 25.6848 73.4359 27.4609C75.1188 29.0787 77.4565 27.9785 77.7966 27.8044C78.375 27.4008 79.0806 26.8657 79.2411 26.6868C79.5987 26.2864 83.9451 21.9349 84.4393 21.441C84.5474 21.3349 86.9852 18.9526 89.5342 18.3083C91.3983 17.8366 94.5529 17.1528 95.8226 16.8821C96.6283 16.708 97.4484 16.7666 98.1937 17.0483C99.0312 17.3649 99.651 17.9158 99.9831 18.6392C100.741 20.2886 100.55 21.566 99.3649 22.7786C98.4543 23.7093 91.9196 29.5504 91.5207 29.9066C91.4285 29.9968 89.458 31.9406 88.9383 35.2854C88.4139 38.665 90.1206 41.3528 90.1365 41.3797C90.1556 41.4098 91.5763 43.6085 93.6232 44.954C93.6375 44.9635 93.6518 44.973 93.6645 44.9825C94.0396 45.2326 96.8937 47.1337 99.1726 48.5045C101.62 49.9783 108.868 54.2696 108.941 54.3139C108.941 54.3139 109.633 54.6875 110.373 54.4374C111.037 54.2126 111.61 53.5541 112.074 52.4777C113.725 48.6549 115.093 43.8823 115.107 43.8349C115.112 43.819 115.117 43.8016 115.123 43.7858C115.123 43.7842 115.501 42.5574 115.087 40.2131C114.764 38.3927 114.101 35.3455 113.734 33.6898L113.733 33.6882ZM52.6605 37.0789L58.4642 41.3227C58.4849 41.3386 58.5071 41.3528 58.5278 41.3686L67.0934 47.4186C67.0934 47.4186 67.1061 47.4266 67.1109 47.4313C67.2142 47.5025 77.4231 54.6464 80.104 56.6234C82.1557 58.1367 82.8708 59.1989 83.7925 61.1554C84.201 62.0229 84.2629 63.7309 84.1771 64.698C83.7592 67.0835 82.9646 71.5886 82.7564 72.6444C82.6722 73.0765 82.58 73.3346 82.4926 73.496C82.4656 73.496 82.4401 73.4929 82.4147 73.4897L76.9877 72.1141L44.2045 63.6565C44.017 63.6074 25.4045 58.8063 20.6115 57.5653C17.0359 56.6393 15.3879 55.2067 13.8814 53.6966C13.3887 53.2027 11.7455 51.2953 11.291 47.4978C11.0192 45.2294 11.8933 43.1985 12.1364 42.6872C12.5099 42.1205 13.3649 40.7687 14.3613 38.8518C16.3382 35.0464 14.9572 31.3486 12.823 29.4918C12.6243 29.3145 11.4102 28.2318 10.2914 27.2203C11.1575 26.7834 12.3494 26.3069 13.4062 25.9983C14.6442 25.6643 40.0647 18.8054 51.2016 15.8453C50.2974 17.0562 49.7221 18.2403 49.3534 18.9969C47.8437 22.0995 47.2986 25.5329 47.7785 28.9235C48.1441 31.5132 49.4694 33.6565 50.5119 34.9941C51.1222 35.7793 51.8437 36.4789 52.6589 37.0773L52.6605 37.0789ZM81.7584 18.7373C81.7504 18.7452 81.7409 18.7547 81.733 18.7626C78.8391 21.6594 77.0973 23.4165 76.5427 23.999C76.4537 24.0734 76.3027 24.189 76.1327 24.3156C76.3774 23.9674 76.7588 23.4482 77.2769 22.7707C77.8156 22.0647 78.2542 21.3001 78.5784 20.5023C79.4922 18.2593 79.6178 16.1001 78.9503 14.2228C80.0055 14.4539 82.5991 15.0222 85.8283 15.7329C83.7194 16.8679 82.1461 18.3558 81.7584 18.7373ZM94.0555 32.7432C94.0697 32.7305 94.0841 32.7179 94.0984 32.7036C94.0761 32.7226 94.0491 32.7464 94.0491 32.7464C94.0491 32.7464 94.0491 32.7464 94.0539 32.7416L94.0555 32.7432ZM111.435 42.8044C111.366 43.0386 110.318 46.6557 109.003 49.9292C106.669 48.5457 102.799 46.2488 101.143 45.2516C99.0105 43.9662 96.3264 42.1854 95.8306 41.8546C95.794 41.8293 95.7575 41.8039 95.7209 41.7802C94.6323 41.0663 93.6677 39.811 93.3626 39.3535C93.3594 39.3472 93.3546 39.3393 93.3483 39.3298C93.3483 39.3298 93.3451 39.3266 93.3419 39.3219C93.3387 39.3171 93.3435 39.3219 93.3467 39.3266C93.1989 39.0575 92.4393 37.5775 92.7046 35.8663C92.9939 34.0048 93.9617 32.8667 94.1603 32.6498C95.9227 31.0748 101.167 26.3782 102.094 25.4316C102.794 24.7161 103.665 23.57 104.048 22.0346C104.614 22.7327 105.059 23.4687 105.513 24.2175C105.658 24.4565 105.799 24.6892 105.938 24.914C106.696 26.1328 107.994 28.9932 109.412 32.5659C109.66 33.1896 109.86 33.8449 110.008 34.5097C110.368 36.1354 111.018 39.124 111.328 40.8748C111.53 42.0097 111.457 42.6587 111.435 42.8059V42.8044Z" fill="#15151E"/>
<path d="M120.719 39.2222C120.395 37.3954 119.78 34.5367 119.319 32.4583C119.061 31.3027 118.713 30.1646 118.281 29.0755C117.105 26.1122 115.416 22.1169 114.044 19.9103C113.925 19.7187 113.804 19.5193 113.68 19.3135C111.811 16.2268 108.685 11.06 98.8818 8.88667C90.8119 7.09636 81.2498 5.00213 80.5284 4.84384C79.4477 4.5874 71.7179 2.79868 67.3239 3.0187C63.8976 3.19124 59.3446 3.9748 53.7936 5.34721C50.1194 6.25424 12.4718 16.412 10.8699 16.8441C10.846 16.8504 10.8222 16.8568 10.7983 16.8647C9.89252 17.1243 5.24576 18.5426 2.63791 21.0136C1.12819 22.4477 0.227127 24.2839 0.0348367 26.3244C-0.178113 28.588 0.592638 30.8595 2.14368 32.5501C2.59183 33.0392 3.10354 33.5457 3.66929 34.0586C4.22709 34.5636 4.82303 35.1002 5.32521 35.5482C4.61008 36.8303 4.09042 37.5965 4.08883 37.5981C4.00937 37.7152 3.93309 37.8339 3.86476 37.9574C3.58506 38.4529 1.15044 42.9674 1.82743 48.6248C2.59342 55.012 5.47301 58.7383 7.12258 60.3924C8.6466 61.9216 11.8186 65.1017 18.2166 66.759C23.0144 68.0016 41.6316 72.8043 41.8191 72.8533L74.6118 81.3142C74.6118 81.3142 74.6246 81.3173 74.6309 81.3189L80.282 82.7515C80.352 82.7689 80.4219 82.7847 80.4934 82.8006C80.789 82.8607 81.5772 83 82.607 83C84.1771 83 86.3082 82.6787 88.123 81.2698C90.2367 79.6283 91.5445 77.4011 92.1182 74.4632C92.4011 73.0196 93.5533 66.4408 93.6025 66.1622C93.6184 66.0752 93.6311 65.9881 93.6407 65.8995C93.7376 65.0716 94.1381 60.7565 92.425 57.1205C90.9868 54.0702 89.3737 51.6467 85.7806 48.9937C83.0234 46.9596 73.1609 40.0595 72.6015 39.667L64.0756 33.6455L58.3069 29.4269C58.2083 29.3541 58.1225 29.2718 58.0494 29.1784C57.5393 28.5246 57.2675 27.9152 57.223 27.6018C57.0085 26.0853 57.2548 24.5435 57.9366 23.1426C58.9441 21.0722 59.3875 20.9582 59.5321 20.9218C61.4089 20.439 65.7855 19.524 68.1439 19.1251C67.7323 19.7235 67.575 20.01 67.4907 20.1604C65.8396 23.1506 65.7506 27.9928 69.4597 31.5607C73.3008 35.2553 78.2733 34.0602 80.6046 32.7717C80.7445 32.6941 80.8812 32.6102 81.0131 32.5184C82.7103 31.3439 83.284 30.7328 83.4858 30.5081C83.6749 30.3086 84.4314 29.5425 85.423 28.5436C84.5474 29.9889 83.6622 31.9628 83.2824 34.4164C82.456 39.7366 84.9224 43.838 85.3181 44.4554C85.5692 44.8479 87.4492 47.6877 90.367 49.6427C90.3876 49.6569 90.4083 49.6712 90.4305 49.6854C90.5608 49.7725 93.6629 51.8493 96.212 53.3832C98.6784 54.868 105.718 59.0374 106.027 59.2195C107.416 60.0378 109.747 60.6362 112.128 59.8621C113.712 59.3477 115.9 58.0386 117.329 54.7302C119.055 50.7349 120.436 45.9972 120.596 45.4415C120.838 44.639 121.3 42.5052 120.719 39.2237V39.2222ZM116.936 44.3715C116.828 44.7482 115.49 49.3704 113.825 53.2264C113.13 54.8363 112.161 55.8526 110.945 56.2483C109.401 56.7501 108.11 56.0314 107.969 55.9475C107.894 55.9032 100.639 51.6071 98.1857 50.1302C95.7161 48.6423 92.5902 46.5528 92.56 46.5306C92.5505 46.5243 92.541 46.5164 92.5298 46.51C90.1572 44.935 88.5966 42.5068 88.5315 42.4039C88.452 42.282 86.4131 39.1145 87.0535 34.9941C87.6876 30.9054 90.1206 28.6085 90.2239 28.5136C90.2287 28.5088 90.2319 28.5056 90.2367 28.5009C92.6157 26.375 97.2974 22.1675 97.9982 21.4521C98.5528 20.8854 98.7213 20.458 98.2477 19.4306C98.1253 19.1631 97.8854 18.9653 97.5135 18.8244C97.1146 18.6724 96.6665 18.6439 96.2215 18.7405C95.2378 18.951 91.8862 19.6728 90.0015 20.1509C87.9594 20.6669 85.8044 22.7675 85.7838 22.7881C83.864 24.7113 80.9082 27.6794 80.6634 27.9516C80.2677 28.3933 79.1648 29.1705 78.8359 29.3968C78.8089 29.4158 78.7819 29.4317 78.7548 29.4475C78.6579 29.5013 77.7695 29.9778 76.5443 30.1598C74.8153 30.4163 73.2817 29.9556 72.1089 28.827C70.9377 27.6999 70.2877 26.3038 70.2305 24.7873C70.186 23.608 70.5118 22.5696 70.8312 21.9903C71.1808 21.3603 72.1661 20.0464 72.7239 19.3183C72.9559 19.0143 73.1419 18.6914 73.2769 18.359C73.6631 17.4092 73.7521 16.5624 73.5217 16.0321C73.1736 15.2358 71.2793 14.8939 68.8066 15.1836C66.7804 15.4195 60.7796 16.6747 58.577 17.2414C56.6716 17.7321 55.5703 19.2929 54.504 21.4837C53.4916 23.5653 53.1245 25.8621 53.4456 28.1289C53.6458 29.5488 54.5278 30.8532 55.0363 31.5053C55.3224 31.8741 55.6625 32.2034 56.0471 32.4852L61.8491 36.729L70.4021 42.7695C70.5022 42.8392 80.7715 50.0242 83.5097 52.044C86.4862 54.2411 87.7257 56.09 88.9717 58.7319C90.2939 61.5385 89.8711 65.2948 89.8521 65.4531C89.8505 65.4705 89.8473 65.4879 89.8441 65.5053C89.7949 65.7823 88.6491 72.3262 88.3741 73.7335C88.1246 75.0093 87.5843 76.8677 85.7774 78.2702C84.8017 79.0268 83.5685 79.2025 82.634 79.2025C81.9237 79.2025 81.3849 79.1012 81.2641 79.0759C81.2498 79.0727 81.2355 79.0696 81.2212 79.0664L75.5701 77.6338L42.7742 69.1714C42.5867 69.1224 23.9711 64.3213 19.1749 63.0787C13.7876 61.6825 11.2115 59.0992 9.82577 57.7109C8.52264 56.405 6.24217 53.4275 5.61286 48.1705C5.06936 43.6322 7.10033 39.9693 7.18773 39.8158C7.20204 39.7904 7.21634 39.7667 7.23223 39.7445C7.24176 39.7319 8.16349 38.3832 9.28227 36.232C10.0403 34.7741 9.2187 33.9241 9.04548 33.7689C9.02323 33.7499 7.52305 32.4108 6.23264 31.2441C5.75747 30.8136 5.33157 30.3909 4.96288 29.9889C4.13174 29.0834 3.71855 27.8756 3.83139 26.6774C3.93627 25.563 4.43368 24.5562 5.26959 23.7632C7.30851 21.832 11.6708 20.5656 11.8552 20.5134C12.2604 20.4042 51.0793 9.92983 54.7137 9.0323C60.0279 7.71688 64.3362 6.96973 67.5177 6.80985C71.4875 6.61198 79.2348 8.4387 79.6766 8.54317C80.023 8.61915 89.8171 10.764 98.0522 12.5908C106.262 14.4111 108.66 18.3748 110.413 21.27C110.545 21.4885 110.674 21.7022 110.802 21.9064C112.089 23.9769 113.818 28.1574 114.734 30.4669C115.091 31.3708 115.382 32.3142 115.595 33.275C115.965 34.9451 116.635 38.0239 116.963 39.8775C117.443 42.5812 117.024 44.0929 116.936 44.3667V44.3715Z" fill="#15151E"/>
</svg>
