<svg width="121" height="85" viewBox="0 0 121 85" fill="none" xmlns="http://www.w3.org/2000/svg">
<path d="M49.8614 57.3599C48.5593 57.3925 47.8741 57.9137 47.2698 58.3742C47.1623 58.4566 47.0595 58.5344 46.9614 58.6044L46.9007 58.648C46.2637 59.1054 45.8774 59.3823 45.5628 60.0139C45.499 60.143 45.4273 60.5148 45.3682 60.812C45.295 61.1931 45.2108 61.624 45.0738 62.0519C44.6798 63.284 43.4042 63.8534 43.0227 63.998C42.5897 64.163 39.5963 65.2893 39.5963 65.2893L39.5527 65.3048C39.4156 65.3484 38.1837 65.7249 37.1293 65.4184C35.807 65.0326 35.142 64.3605 34.6218 63.6931C34.2698 63.242 33.9256 62.8499 33.2824 62.6197C32.8526 62.4657 32.5691 62.5295 31.8138 62.7364C31.5334 62.8126 31.2173 62.8997 30.8435 62.9791C29.4885 63.2684 28.4045 63.3524 26.6991 63.2995C26.6462 63.2995 26.5917 63.2964 26.5356 63.2964C25.5824 63.2964 24.363 63.5345 22.9099 64.0043C21.382 64.499 19.0178 65.4402 17.0259 66.3487C14.0698 67.6975 6.82619 70.8571 6.75455 70.8883C6.75143 70.8883 5.83254 71.3192 5.65032 72.1904C5.43851 73.2016 6.11756 73.8939 6.26084 73.9888L6.33404 74.0386C6.65332 74.2548 7.18596 74.6188 8.69512 74.2299C10.1124 73.8659 11.0297 72.7551 11.2774 72.4237C11.3537 72.3226 11.4518 72.1779 11.5655 72.0115C12.2944 70.9443 13.6524 68.9576 16.0509 67.5948C18.5475 66.1776 21.3602 65.6486 24.187 66.064C25.9173 66.3176 26.3892 66.2569 27.0433 66.1745C27.1523 66.1605 27.2645 66.1465 27.3844 66.1325C27.9529 66.0687 28.459 65.882 28.9496 65.7031C29.7065 65.4262 30.4899 65.1384 31.373 65.3608C32.5707 65.6627 33.0208 66.3192 33.4553 66.9554L33.5752 67.1297C34.002 67.7442 34.5953 68.018 34.9115 68.1269C35.561 68.3509 36.5281 68.2622 37.8691 67.8546C39.6321 67.3195 41.5929 66.3269 42.6364 65.4402C43.4073 64.7868 44.1051 64.0743 44.8449 63.3213C45.608 62.545 46.3976 61.7407 47.3959 60.854C49.2244 59.2298 51.1167 58.4364 52.9202 57.8795C52.0947 57.8857 51.4391 57.7052 50.8986 57.5528C50.5061 57.4423 50.1682 57.349 49.8614 57.3552V57.3599Z" fill="#15151E"/>
<path d="M67.4713 46.3471C67.0617 46.6006 66.6147 46.8729 66.1491 47.1545C68.1473 45.9675 69.739 45.3623 70.784 45.0558C71.3135 44.9018 72.0814 44.7042 72.8196 44.5378C72.3773 44.5409 71.9178 44.5471 71.421 44.6C70.5348 44.6965 69.6424 45.0029 67.4713 46.3455V46.3471Z" fill="#15151E"/>
<path d="M118.002 7.03914C115.599 5.4601 112.564 5.69501 110.075 7.64586C109.228 8.26659 102.347 12.8201 99.3537 14.631C98.7401 15.0012 98.1436 15.4026 97.5673 15.7915C97.287 15.9798 97.002 16.1727 96.7092 16.364C93.8622 18.2277 90.8688 20.7744 88.4641 22.8202C85.2635 25.5427 73.8973 35.0402 73.0236 35.7698C72.9239 35.8492 72.8258 35.9301 72.7324 36.0125L71.2964 37.212V37.8529C71.1033 38.2325 70.9553 38.6277 70.8525 39.0306C70.8401 39.0306 70.8292 39.0337 70.8167 39.0337C68.6161 39.2717 66.8406 40.1491 64.52 41.5851C62.4782 42.8483 59.3275 44.7042 57.8713 45.5194C57.2203 45.885 56.9773 45.9752 56.7982 46.0406C56.3294 46.2133 55.3545 46.5742 54.3935 47.6258C53.3189 48.802 52.8766 50.2768 53.0744 52.0145V52.0176C53.0681 52.0658 53.0619 52.1218 53.0557 52.1732C52.984 52.2463 52.9467 52.2665 52.9467 52.2665C52.9404 52.2681 52.9155 52.2758 52.8688 52.2805C52.7816 52.2665 52.5682 52.2074 52.4109 52.1623C51.7957 51.9911 50.869 51.7298 49.7228 51.7593C46.6063 51.8371 44.7608 53.2419 43.873 53.9171C43.8107 53.9653 43.7515 54.0104 43.6892 54.054L43.6301 54.096C42.7735 54.7105 41.4777 55.6393 40.5432 57.5154C40.2566 58.0895 40.0962 58.6527 39.9841 59.1551C39.534 59.3247 39.0154 59.5207 38.5793 59.6841C37.8317 58.8347 36.7835 57.9215 35.1732 57.3443C33.055 56.5867 31.3496 57.0534 30.3311 57.3319C30.0928 57.3972 29.8888 57.4532 29.6723 57.4999C28.7752 57.6912 28.1195 57.7379 26.8673 57.7006C24.4237 57.6274 21.9832 58.4162 21.1796 58.6775C19.4695 59.2298 16.8639 60.2659 14.6959 61.2553C11.782 62.5855 4.58192 65.7249 4.51495 65.7544C2.78775 66.5058 0.736602 68.2902 0.160349 71.0454C-0.549844 74.4384 1.21629 77.3678 3.15219 78.6512L3.17711 78.6683C3.72844 79.0432 5.13481 80 7.50679 80C8.26682 80 9.12497 79.902 10.0859 79.6546C13.1992 78.8566 15.0993 76.6692 15.7721 75.7654C15.9154 75.5725 16.0493 75.3764 16.1911 75.168C16.7299 74.3777 17.546 73.1845 18.8154 72.4642C20.2342 71.6583 21.7652 71.369 23.3646 71.6054C25.6806 71.9461 26.6446 71.8715 27.7535 71.7299C27.8361 71.719 27.9217 71.7081 28.0089 71.6988C28.6833 71.6225 29.2814 71.481 29.7922 71.3301C30.6986 72.2682 31.8324 72.9947 33.0768 73.4225C34.9084 74.0541 36.9471 73.9888 39.495 73.2171C41.4823 72.6151 44.3044 71.3767 46.2652 69.7106C47.2277 68.8923 48.0501 68.0569 48.8444 67.2479C49.5421 66.537 50.2647 65.8027 51.1198 65.0419C52.2629 64.026 53.4388 63.5547 55.085 63.0817C58.0005 62.2448 60.6825 60.6253 63.0576 58.2684C63.7631 57.5683 64.5714 56.5493 65.6055 55.0621C66.146 54.2842 67.1458 53.1704 68.0694 52.5621C70.1392 51.1962 71.6453 50.6408 72.357 50.4323C73.128 50.2067 74.4487 49.8972 75.0763 49.7945C75.1916 49.7758 75.5498 49.7369 75.8099 49.7089C76.1525 49.6716 76.5263 49.6311 76.8985 49.5845C78.3765 49.3947 79.8592 48.6713 80.8575 47.6538C82.0427 46.4482 82.781 45.0418 83.1127 43.3601C83.7263 42.9416 84.639 42.3411 85.2604 41.9366C85.7261 41.9786 86.3973 42.0627 86.8101 42.114C87.4346 42.1918 87.9735 42.2587 88.4158 42.2913C88.5279 42.3007 88.8846 42.352 89.1462 42.3878C90.727 42.6103 93.3731 42.9821 95.7591 42.6429C97.9006 42.3396 101.048 41.5633 103.887 39.5906C104.079 39.4584 104.306 39.3028 104.562 39.1286C105.78 38.2994 107.621 37.0486 109.391 35.5769C110.922 34.3044 112.388 32.8171 113.515 31.3905C116.053 28.1796 117.876 24.6886 118.935 21.014C119.773 18.1064 120.806 14.0476 120.849 13.8764L120.924 13.5824L120.96 13.2806C121.18 11.4402 120.535 8.70063 118.001 7.03758L118.002 7.03914ZM117.25 12.8404L117.242 12.901L117.227 12.9601C117.216 13.0021 116.166 17.131 115.344 19.9826C114.419 23.1889 112.816 26.2489 110.581 29.0788C109.609 30.3078 108.339 31.5974 107.001 32.7082C105.367 34.0648 103.616 35.2565 102.458 36.0452C102.19 36.2272 101.951 36.389 101.752 36.529C99.5157 38.0832 96.9739 38.7023 95.2343 38.9497C93.3716 39.2142 91.1429 38.9015 89.668 38.693C89.2599 38.6354 88.9079 38.5857 88.7039 38.5701C88.3441 38.5437 87.824 38.4783 87.2711 38.4099C86.3646 38.2979 85.1218 38.1438 84.6826 38.1827C84.4848 38.1998 84.0051 38.371 83.6516 38.5297C83.3058 38.7537 81.4821 39.936 80.6411 40.5303C79.9418 41.0234 79.5446 42.1109 79.4621 42.5589C79.3375 43.2388 79.0805 44.1348 78.1927 45.0387C77.7785 45.4603 77.0683 45.7994 76.4251 45.8819C76.0793 45.9255 75.7304 45.9644 75.4096 45.9986C75.0358 46.039 74.6838 46.0764 74.4736 46.1121C73.6092 46.2537 72.139 46.6084 71.3089 46.8511C70.1922 47.1778 68.3653 47.895 66.0105 49.4491C64.5761 50.395 63.2429 51.9196 62.5358 52.937C61.6481 54.2158 60.9566 55.0948 60.4239 55.6237C58.502 57.5326 56.359 58.8362 54.0556 59.4958C52.4031 59.9703 50.4843 60.6128 48.6372 62.2557C47.6872 63.1004 46.9194 63.8814 46.178 64.6359C45.4071 65.42 44.6798 66.1605 43.8465 66.8683C42.6099 67.92 40.4248 69.0354 38.4111 69.6468C36.6558 70.1788 35.3491 70.2582 34.2994 69.8973C33.3821 69.5815 32.58 68.9778 32.038 68.2C31.9929 68.1362 31.9508 68.074 31.9103 68.0133C31.5381 67.4688 31.426 67.3039 30.9136 67.1748C30.6052 67.097 30.2096 67.2323 29.5897 67.4595C29.0228 67.6664 28.3812 67.9029 27.5915 67.9915C27.481 68.004 27.3782 68.018 27.2785 68.0304C26.5371 68.1253 25.897 68.2078 23.9113 67.9153C21.5004 67.5622 19.1019 68.0133 16.9714 69.2221C14.9498 70.3702 13.7506 72.125 13.1058 73.0678C12.9796 73.2514 12.8722 73.41 12.7741 73.5423C12.4345 73.9981 11.1699 75.5274 9.15768 76.0438C8.5238 76.2072 7.98181 76.2694 7.51925 76.2694C6.2842 76.2694 5.61762 75.8152 5.27965 75.5865L5.22514 75.5491C4.48224 75.056 3.44343 73.6076 3.81877 71.8139C4.20035 69.9875 5.93222 69.2143 6.00542 69.1832C6.07706 69.1521 13.3051 65.9987 16.2471 64.6561C18.2983 63.7211 20.7419 62.7473 22.3289 62.2339C22.98 62.0223 24.9595 61.386 26.7536 61.4374C28.3111 61.484 29.2455 61.414 30.451 61.1573C30.7718 61.0889 31.0491 61.0127 31.3169 60.9395C32.133 60.7171 32.9024 60.5055 33.9101 60.8664C34.9676 61.246 35.5843 61.8994 36.092 62.5481C36.4518 63.0086 36.7944 63.3804 37.651 63.6309C38.0248 63.7398 38.6431 63.634 38.9608 63.5376C39.2568 63.4255 41.9433 62.4143 42.353 62.2588C42.6691 62.139 43.1784 61.8341 43.289 61.4887C43.3918 61.1667 43.4618 60.8089 43.5288 60.4635C43.6238 59.9703 43.7064 59.5441 43.8839 59.1878C44.4057 58.1408 45.0847 57.6539 45.8042 57.1374L45.865 57.0938C45.9506 57.0316 46.0394 56.9647 46.1313 56.8947C46.8368 56.358 47.9021 55.5459 49.81 55.4992C50.394 55.4837 50.9049 55.6268 51.397 55.7653C51.9452 55.9193 52.4638 56.064 53.1289 56.0126C54.2456 55.9271 55.1629 55.4526 55.9338 54.5612C56.6269 53.7615 56.7016 53.1315 56.7811 52.4656C56.7982 52.3178 56.8169 52.1669 56.8418 52.0145C56.8403 51.9694 56.8231 51.8667 56.8122 51.7967C56.7499 51.4186 56.6362 50.7139 57.1502 50.1492C57.4991 49.768 57.7872 49.6607 58.0909 49.5487C58.3697 49.446 58.7902 49.2904 59.6982 48.7802C61.1886 47.9448 64.3409 46.0888 66.4839 44.7649C68.6846 43.4037 69.8791 42.895 71.2154 42.7503C71.8244 42.6849 72.3461 42.6803 72.8492 42.6756C73.5999 42.6694 74.2478 42.6647 75.0265 42.4469C75.3738 42.3489 75.4921 42.2945 75.5311 42.2696C75.5373 42.2556 75.5498 42.2244 75.5669 42.1684C75.4999 42.0627 75.3442 41.8977 75.2025 41.7857C74.9984 41.6504 74.6527 41.3408 74.4767 40.7248C74.2649 39.9811 74.6792 39.3573 75.0296 38.987V38.9606L75.2212 38.8003C75.2772 38.7506 75.3271 38.7101 75.3644 38.6806C75.5031 38.5639 87.5592 28.4923 90.8828 25.6656C93.208 23.6867 96.1018 21.224 98.7525 19.4894C99.0578 19.2887 99.3568 19.088 99.6496 18.892C100.215 18.5124 100.749 18.1531 101.286 17.8279C104.361 15.9689 111.746 11.0855 112.355 10.6048C113.584 9.63249 114.892 9.4707 115.945 10.1614C117.132 10.9408 117.322 12.2134 117.247 12.8435L117.25 12.8404Z" fill="#15151E"/>
<path d="M58.7434 51.2942C58.7092 51.3066 58.6702 51.3222 58.6375 51.3346C58.6438 51.386 58.6547 51.4451 58.6609 51.4902C58.6983 51.7158 58.7434 51.9958 58.6936 52.2945C58.6734 52.4174 58.6578 52.545 58.6422 52.6788C58.5488 53.4659 58.4211 54.5425 57.3526 55.7746C57.3324 55.7979 57.3122 55.8197 57.2935 55.8431C57.918 55.3919 58.5223 54.8754 59.1079 54.2951C59.5533 53.8533 60.1903 53.0366 61.0017 51.8682C61.8412 50.6595 63.327 48.9793 64.981 47.8872C65.2645 47.7005 65.5417 47.5247 65.8111 47.3583C63.9032 48.5079 61.7696 49.7556 60.6186 50.4012C59.5813 50.983 59.0581 51.1775 58.7434 51.2926V51.2942Z" fill="#15151E"/>
<path d="M114.922 11.7187C114.462 11.4169 113.846 11.8058 113.519 12.0656C112.763 12.6614 105.225 17.6272 102.258 19.4225C101.76 19.7243 101.244 20.0713 100.698 20.4384C100.399 20.6391 100.095 20.8444 99.782 21.0482C97.2293 22.7191 94.3839 25.1397 92.0991 27.0844C89.0824 29.6513 78.8858 38.1734 76.9032 39.8302V39.8629L76.531 40.1414C76.4718 40.1865 76.4064 40.2518 76.3565 40.3094C76.735 40.6018 77.6757 41.4544 77.4203 42.4951C77.2085 43.3601 76.8113 43.763 76.1525 44.0368C76.165 44.0353 76.1774 44.0337 76.1899 44.0322C76.4562 43.9979 76.7599 43.8346 76.8611 43.7335C77.3595 43.2263 77.5277 42.7627 77.6274 42.2229C77.7738 41.4341 78.3454 39.8707 79.5664 39.0073C80.5258 38.3305 82.6096 36.9833 82.6984 36.9257L82.7529 36.8899L82.8121 36.8619C82.985 36.7826 83.8758 36.3812 84.5206 36.3237C85.114 36.2708 86.131 36.3875 87.5047 36.557C88.0327 36.6224 88.5326 36.6846 88.8456 36.7079C89.1104 36.7282 89.4717 36.7779 89.9312 36.8433C91.2176 37.0237 93.3731 37.3271 94.9742 37.1C96.5129 36.8822 98.7525 36.3392 100.687 34.9967C100.891 34.8551 101.134 34.6886 101.408 34.5035C102.537 33.735 104.244 32.5744 105.808 31.2754C107.047 30.244 108.223 29.0539 109.116 27.9244C111.201 25.286 112.692 22.4406 113.55 19.4676C114.297 16.8743 115.238 13.2028 115.394 12.5899C115.394 12.439 115.353 12.0049 114.92 11.7202L114.922 11.7187ZM106.182 25.608C105.456 26.5274 104.448 27.5448 103.417 28.402C101.99 29.5875 100.438 30.6438 99.3023 31.4154C99.0173 31.6099 98.7634 31.7826 98.55 31.9304C97.5112 32.6522 96.0535 33.1749 94.4462 33.4021C93.4401 33.5452 91.7207 33.3227 90.6663 33.1749C92.2782 31.8215 93.6706 30.6485 94.521 29.9251C96.7263 28.0489 99.4721 25.7122 101.83 24.169C102.156 23.9558 102.472 23.7427 102.783 23.5342C103.291 23.192 103.772 22.87 104.193 22.6148C105.487 21.8323 107.644 20.4524 109.759 19.074C109.013 21.35 107.811 23.5451 106.182 25.608Z" fill="#15151E"/>
</svg>
