<svg width="121" height="85" viewBox="0 0 121 85" fill="none" xmlns="http://www.w3.org/2000/svg">
<path d="M114.933 28.7962C114.482 27.2399 113.489 25.8029 112.67 24.7228C110.757 22.1267 107.729 18.0242 105.265 14.687L103.097 11.7518C102.763 11.3272 102.535 11.0915 102.381 10.9591C102.404 11.7244 102.481 13.3518 102.535 14.4739L102.571 15.2295C102.606 15.893 102.863 16.584 103.277 17.1185L103.32 17.1782C103.508 17.4623 103.747 17.7917 103.999 18.1388C104.363 18.6409 104.74 19.1592 105.034 19.6419C105.111 19.7727 105.19 19.9003 105.27 20.0327C105.654 20.6607 106.087 21.3727 106.294 22.1025L106.3 22.1283C106.576 23.2213 106.761 24.1561 106.435 25.3961L106.418 25.4639L106.39 25.5285C105.67 27.235 104.22 28.6267 102.197 29.5551C100.614 30.2816 98.6898 30.7046 96.9164 30.7191C87.6159 30.929 62.0158 31.394 51.0847 31.5926C48.1043 31.6475 46.1527 31.683 45.8173 31.6895C45.79 31.6895 45.7338 31.6895 45.6809 31.6862H45.6584C45.3278 31.6636 44.8576 31.5813 44.4868 31.3133C43.8705 30.8822 43.4934 30.1024 43.511 29.2822C43.5014 28.1763 43.3971 20.3168 43.3939 19.9874C43.3409 18.473 42.5352 16.5275 41.5161 15.4571C39.6945 13.4777 37.0047 12.5833 35.2682 12.5833H35.2312L35.2007 12.5817C34.1672 12.5171 33.5043 12.5252 33.2283 12.6075C33.2058 12.6737 33.1801 12.7657 33.1609 12.8335C33.0485 13.2404 32.7067 14.4755 31.3249 14.3253C30.4052 14.2172 28.7457 13.8991 27.4137 13.6424C26.6577 13.4971 26.0061 13.3712 25.6482 13.3147C25.6226 13.3098 25.6049 13.3066 25.5889 13.3034C25.5536 15.5524 25.5423 19.5644 25.5295 23.449C25.5182 27.0251 25.5086 30.4027 25.4813 32.2255V32.2481C25.2438 38.5221 23.1414 40.3239 18.0345 43.2187L18.0072 43.2332C17.0844 43.7176 15.969 44.1438 14.7893 44.5975C12.7591 45.3757 10.4577 46.2572 8.90249 47.5634C8.25089 48.1559 7.74213 48.9874 7.53991 49.7914L7.51744 49.8673C7.03917 51.2703 6.41646 53.9456 6.004 55.7167C5.94141 55.9863 5.88203 56.2366 5.82906 56.4642C5.98474 56.5094 6.15807 56.5514 6.33622 56.595C6.60103 56.6579 6.87387 56.7241 7.1451 56.8162C9.02607 57.378 12.5762 59.7885 15.4297 61.7275C16.2434 62.2797 17.0122 62.8012 17.6076 63.1887C22.7337 66.5081 33.3711 72.2639 39.924 74.0721C42.3731 74.7873 44.0102 74.9553 46.3566 75.0295C57.9425 75.2717 80.0375 75.17 97.7927 75.0876C103.261 75.0618 108.433 75.0392 112.84 75.0263C112.84 74.9262 112.84 74.8309 112.84 74.7373C112.836 74.2659 112.831 73.7315 113.089 73.1357L113.108 73.0937C113.418 72.4608 113.93 72.1331 114.303 71.8941C114.463 71.7908 114.587 71.7117 114.673 71.6342C114.927 64.8839 114.997 54.7012 115.06 45.7018C115.1 39.8621 115.139 34.3453 115.221 30.1767C115.225 29.9426 115.103 29.4614 115.004 29.0756C114.98 28.9803 114.956 28.8867 114.933 28.7946V28.7962ZM111.208 45.676C111.152 53.8697 111.088 63.045 110.886 69.671C110.497 70.0536 110.101 70.5412 109.765 71.1628C106.093 71.1757 102.023 71.1951 97.775 71.2144C80.0551 71.2952 58.0067 71.3969 46.4512 71.1563C44.3985 71.0901 43.0552 70.9529 41.0106 70.3555L40.9432 70.3361C35.0467 68.7087 24.8137 63.2484 19.694 59.9322C19.1323 59.5689 18.3812 59.0571 17.5851 58.5179C14.6995 56.5578 12.3258 54.9805 10.3758 53.9908C10.6502 52.8784 10.9359 51.7902 11.1622 51.1266L11.2248 50.9442L11.273 50.7504C11.2922 50.6907 11.3628 50.568 11.4479 50.476C12.5264 49.6122 14.4539 48.8744 16.1599 48.2205C17.4487 47.7264 18.6652 47.2598 19.7871 46.6722L19.9251 46.5963C22.4849 45.1448 24.9276 43.6498 26.6642 41.32C27.8069 39.7879 29.1422 37.3903 29.3299 32.3966L29.3331 32.2852C29.3604 30.4398 29.3701 27.051 29.3813 23.4635C29.3877 21.5842 29.3925 19.6742 29.4006 17.9532C29.9526 18.0484 30.4582 18.1259 30.8707 18.1743L30.9044 18.1776C32.3809 18.3406 34.1961 17.9209 35.5009 16.4743C36.2728 16.5631 37.7285 17.0506 38.6754 18.0791L38.73 18.1372C39.0975 18.5247 39.5067 19.5192 39.5388 20.0956C39.5549 21.3 39.6432 28.1198 39.656 29.2741C39.6367 31.3343 40.6286 33.3169 42.2656 34.4793C43.3714 35.2672 44.5831 35.4965 45.4097 35.5498L45.4562 35.553C45.5685 35.5595 45.721 35.5659 45.9056 35.5611C46.2763 35.553 48.2135 35.5191 51.1505 35.4642C62.072 35.2656 87.6351 34.8006 96.9822 34.5907C101.776 34.5423 107.531 32.2804 109.802 27.3335C110.358 28.0842 110.959 28.99 111.215 29.8182C111.232 29.8909 111.252 29.9635 111.271 30.0362C111.298 30.1428 111.335 30.2864 111.361 30.3978C111.282 34.552 111.245 39.9574 111.205 45.6728L111.208 45.676Z" fill="#15151E"/>
<path d="M120.6 27.6322C120.578 27.5466 120.557 27.461 120.536 27.3787L120.49 27.2027C119.78 24.7277 118.408 22.7111 117.286 21.2274C115.378 18.6393 112.361 14.5514 109.905 11.2239L107.762 8.32096L107.628 8.14659C106.97 7.31027 104.964 4.76418 101.752 5.01766C99.8775 5.16619 98.2453 6.24953 97.2743 7.98837L97.1523 8.20794L97.0528 8.43882C96.6452 9.38654 96.5986 10.1631 96.5986 10.6749V10.7395C96.6051 11.3837 96.6773 12.9401 96.764 14.758L96.8009 15.5362C96.8956 17.3235 97.5311 19.0882 98.5952 20.5299C98.8327 20.8819 99.0879 21.2339 99.3366 21.5761C99.6111 21.9523 99.9208 22.3785 100.089 22.653C100.17 22.7886 100.256 22.9307 100.345 23.076C100.455 23.2568 100.624 23.5345 100.722 23.717C99.9449 24.4048 98.2164 24.902 96.8731 24.9117H96.8025C87.5003 25.1216 61.9082 25.5882 50.9803 25.7868C50.356 25.7981 49.775 25.8094 49.247 25.8191C49.2133 23.1551 49.1716 19.9584 49.17 19.9083V19.8115C49.0705 16.8617 47.7175 13.5956 45.7194 11.4773C42.5721 8.07555 38.2581 6.82753 35.4302 6.78071C33.6905 6.67576 31.8673 6.67415 30.2512 7.62026C29.9783 7.77848 29.7328 7.95285 29.5129 8.13529C29.1534 8.06748 28.8051 7.99967 28.5002 7.94154C27.709 7.78978 27.075 7.66708 26.6305 7.59442C26.5486 7.57828 26.4491 7.56052 26.3239 7.54276C24.7383 7.29735 23.1558 7.67515 21.973 8.58412L21.9361 8.61318C20.5911 9.66746 19.824 11.2787 19.8192 13.0483C19.7823 15.3021 19.7694 19.4385 19.7566 23.4409C19.7453 26.9622 19.7357 30.2881 19.71 32.0915C19.6186 34.3615 19.2655 35.1138 18.9654 35.5159C18.4197 36.2472 17.0988 37.0884 15.2788 38.1217C14.6529 38.4414 13.7205 38.7982 12.735 39.176C10.3951 40.072 7.48374 41.1877 5.18228 43.1283L5.0587 43.2365C3.5918 44.5604 2.51008 46.3041 1.99651 48.1672C1.4396 49.8544 0.82973 52.4731 0.380352 54.4025C0.316155 54.6769 0.256773 54.932 0.203811 55.1597C0.186157 55.2275 0.165293 55.3147 0.142824 55.418C-0.468652 58.1481 0.932445 60.8395 3.40563 61.7743C4.0155 62.0214 4.57562 62.157 4.99611 62.2571C5.11166 62.2845 5.27055 62.3233 5.31228 62.3362L5.49524 62.3943C6.66844 62.7963 10.5443 65.428 12.2006 66.5533C13.04 67.1232 13.8344 67.6625 14.4844 68.0839C20.0615 71.6972 31.1483 77.6757 38.364 79.6761C41.3412 80.5415 43.4854 80.7611 46.1768 80.8466H46.2282C51.7009 80.9629 59.472 81 68.0198 81C77.7007 81 88.375 80.9516 97.8216 80.908C103.399 80.8821 108.668 80.8579 113.128 80.8466L113.38 80.8402C113.982 80.8063 114.572 80.6658 115.184 80.4091C115.622 80.2315 115.956 80.0248 116.195 79.8602L116.338 79.7697L116.543 79.6067C117.228 79.0642 118.336 77.9034 118.572 75.932C118.986 75.5526 119.424 75.057 119.796 74.4079L120.39 73.373L120.437 72.1783C120.703 65.3392 120.775 54.932 120.839 45.7487C120.88 39.9267 120.918 34.4293 120.998 30.3139C121.022 29.2806 120.79 28.3684 120.602 27.6354L120.6 27.6322ZM116.986 45.718C116.922 54.8723 116.851 65.2472 116.586 72.0233L116.577 72.2622L116.458 72.4689C116.147 73.013 115.697 73.3004 115.338 73.5313C115.075 73.6992 114.919 73.8041 114.845 73.9349C114.765 74.1351 114.763 74.3353 114.766 74.7212C114.766 74.8729 114.77 75.0311 114.765 75.1991C114.755 75.79 114.551 76.2453 114.161 76.5552L114.059 76.6279C113.99 76.6763 113.877 76.7554 113.725 76.8152C113.507 76.9088 113.338 76.954 113.166 76.9637H113.117C108.652 76.9766 103.383 77.0008 97.8023 77.0267C88.3574 77.0703 77.6814 77.1187 68.0102 77.1187C59.4912 77.1187 51.7491 77.08 46.3068 76.9669C43.8449 76.8895 42.0201 76.7022 39.4024 75.9385C32.5943 74.0608 21.9473 68.3051 16.5676 64.8193C15.9529 64.4222 15.1761 63.8942 14.3544 63.3356C11.7464 61.5645 8.17385 59.1378 6.58819 58.6729L6.54807 58.6599C6.35548 58.5938 6.12918 58.5389 5.89005 58.4823C5.52734 58.3952 5.15339 58.3048 4.79389 58.153C4.02673 57.8818 3.73624 56.9728 3.90476 56.243C3.916 56.1849 3.92723 56.1461 3.93686 56.1074C3.99785 55.8491 4.06204 55.5762 4.13105 55.2791C4.57401 53.3789 5.17907 50.7811 5.68462 49.2812C5.98795 48.1091 6.69572 46.9563 7.62979 46.1135L7.65386 46.0926C9.4594 44.5717 11.9278 43.6256 14.104 42.7909C15.2243 42.3614 16.2835 41.9562 17.1052 41.5267C21.8125 38.8579 23.3548 37.5389 23.5586 32.19C23.5859 30.3769 23.5956 27.0106 23.6068 23.449C23.6196 19.4385 23.6325 15.2924 23.6694 13.0741C23.6646 12.4719 23.8764 11.9972 24.3001 11.6662C24.8105 11.2739 25.4733 11.3272 25.7526 11.3708C25.8312 11.3821 25.8761 11.3902 25.9243 11.3998L25.9676 11.4079C26.34 11.4676 27.006 11.5952 27.778 11.7437C28.9608 11.9714 30.4068 12.2491 31.2944 12.3718C31.2992 12.354 31.304 12.3363 31.3088 12.3201C31.4195 11.9181 31.5881 11.3127 32.1867 10.9671C32.8399 10.5829 33.8237 10.5603 35.2922 10.6507C37.5054 10.6588 40.7104 11.7357 42.9188 14.1332C44.2605 15.5443 45.2524 17.9354 45.3182 19.9358V19.9552C45.3182 20.0359 45.4273 28.2231 45.4369 29.2838V29.3226C45.4321 29.4792 45.4947 29.6455 45.583 29.7214C45.6215 29.7327 45.6969 29.7488 45.782 29.7537H45.798C46.2217 29.7456 48.1493 29.7117 51.051 29.6584C61.9821 29.4598 87.579 28.9932 96.8891 28.7849C99.7908 28.7623 103.412 27.5175 104.591 24.8391C104.76 24.1513 104.695 23.6443 104.437 22.6223C104.301 22.1509 103.944 21.5648 103.628 21.0482C103.542 20.9077 103.46 20.7705 103.383 20.6413C103.139 20.2393 102.786 19.755 102.445 19.2851C102.187 18.9299 101.943 18.5941 101.734 18.2793C101.099 17.4446 100.704 16.3709 100.648 15.328L100.611 14.5675C100.545 13.1968 100.455 11.3207 100.449 10.6991V10.662C100.449 10.4763 100.46 10.2697 100.587 9.97422L100.632 9.88381C101.064 9.11045 101.645 8.91025 102.055 8.87635C103.221 8.78594 104.123 9.93063 104.607 10.5474L104.67 10.6265L106.812 13.5294C109.276 16.8666 112.304 20.9707 114.211 23.5571C115.126 24.7648 116.253 26.4019 116.789 28.2731L116.798 28.3087C116.821 28.4023 116.846 28.4976 116.87 28.5928C117.012 29.1466 117.158 29.7197 117.146 30.217C117.065 34.3696 117.026 39.8799 116.986 45.7131V45.718Z" fill="#15151E"/>
</svg>
