<svg width="121" height="85" viewBox="0 0 121 85" fill="none" xmlns="http://www.w3.org/2000/svg">
<path d="M117.505 72.0231C117.105 70.8218 116.093 69.2244 115.308 68.0875L99.92 45.2145L99.938 45.228L99.8705 45.141C99.86 45.123 99.848 45.1035 99.8375 45.084L112.718 29.1689C113.064 28.7549 113.964 27.5686 114.7 25.6907C115.82 22.8305 114.517 19.9402 114.09 19.1228L108.433 8.94619C108.06 8.18426 107.293 7.01136 105.738 5.67948C103.491 3.75365 100.635 3.65166 100.009 3.65166H91.7315C90.7438 3.60216 87.8977 3.63966 85.1072 5.36451C81.9428 7.32033 80.787 9.9736 80.4988 10.773C77.9619 17.5989 74.9762 25.3487 74.3623 26.5186C74.1461 26.9281 73.9435 27.3466 73.7483 27.7515C72.7021 29.9203 71.4006 32.6201 66.2909 36.4043C63.3247 38.6001 60.4096 39.461 58.7659 39.641L61.3418 30.2923L61.3493 30.2653C61.5939 29.3564 62.1103 27.0151 61.6255 24.9183C61.1301 22.775 59.8527 20.9136 57.9268 19.5338C57.1732 18.9623 54.2205 16.0496 53.1953 14.5497C51.508 12.0824 51.1238 9.45315 50.9181 8.04177C50.8701 7.7148 50.8295 7.43432 50.7755 7.15835C50.6284 6.39492 50.2861 4.60857 48.7986 2.96322C47.2104 1.20687 44.8942 0.216958 41.916 0.0219755C38.4875 -0.201505 35.5003 1.28786 33.72 4.10912C32.5882 5.90146 32.297 7.6593 32.2339 8.15576L30.4521 23.5234L27.2398 14.4537C26.9861 13.6978 26.0209 11.2905 23.5651 9.62863C21.5371 8.25475 19.0663 7.77479 16.7876 8.31025C15.7563 8.55323 9.61385 10.608 8.61712 11.076C7.62039 11.544 5.28618 12.6404 4.0913 15.0267C3.38728 16.432 3 17.9694 3 19.3553C3 20.9466 3.44132 22.5065 3.57642 22.946L3.60494 23.039L12.3909 47.7628L12.4059 47.8063C12.607 48.3537 13.3411 50.2406 14.3768 51.5514C15.5897 53.0858 17.1704 53.9812 17.6267 54.2182L27.6841 59.3853L27.6165 59.3703L27.7546 59.4258C27.9528 59.5532 28.2215 59.8052 28.2305 59.9297C28.241 60.0902 28.235 60.2087 28.2245 60.2912L16.8897 66.4211C13.6428 68.038 10.5986 71.9872 11.4947 76.9427C12.0757 80.1539 13.9926 82.6542 16.8927 83.9846C17.6057 84.3116 18.2917 84.5275 18.8982 84.67L19.1729 84.9445L107.011 84.9925C107.121 84.997 107.259 85 107.42 85C108.955 85 112.63 84.6955 115.173 82.0213C117.762 79.2975 118.657 75.4668 117.507 72.0247L117.505 72.0231ZM112.559 79.5405C110.94 81.2428 108.283 81.3973 107.374 81.3973C107.238 81.3973 107.14 81.3943 107.092 81.3913L20.6649 81.3433L20.6454 81.3238C18.8036 81.1693 15.7068 79.9874 15.0388 76.2993C14.3843 72.6786 17.0323 70.3523 18.5424 69.6159L30.5602 63.1169C30.6983 63.0209 31.9787 62.067 31.8241 59.6942C31.6725 57.3439 29.4464 56.2385 29.3518 56.192L29.3293 56.1815L19.2974 51.028C19.2404 50.998 18.0245 50.3576 17.2049 49.3196C16.4679 48.3852 15.8554 46.7489 15.7879 46.5659L7.01845 21.8886C7.00193 21.8331 6.60114 20.5162 6.60114 19.3553C6.60114 18.1944 7.04546 17.1655 7.31116 16.636C7.94612 15.3656 9.37817 14.6937 10.1467 14.3322C10.8132 14.0187 16.7441 12.0164 17.6102 11.8124C18.2257 11.667 19.8408 11.454 21.5401 12.6059C23.1613 13.7023 23.7512 15.3776 23.8293 15.6176L29.556 31.7907C29.5755 31.8462 30.0828 33.2726 31.2597 33.2096C32.8404 33.1301 33.0775 32.0742 33.1091 31.8627L35.805 8.61322C36.0392 6.75938 37.5688 3.34268 41.6803 3.61116C46.4869 3.92463 47.0318 6.76388 47.2374 7.83329C47.2749 8.03127 47.311 8.27575 47.353 8.55923C47.5842 10.1386 48.0645 13.4233 50.2216 16.5775C51.5366 18.5019 54.9561 21.8346 55.8222 22.4525C57.0276 23.3134 57.8217 24.4458 58.1174 25.7252C58.4431 27.1321 57.9313 29.1089 57.8727 29.3294L55.1647 39.152C55.1572 39.176 54.3721 41.8218 56.0504 42.8432C56.7454 43.2662 58.3846 43.5047 60.8989 42.9077C63.4253 42.3078 66.1032 41.0254 68.4375 39.296C74.2617 34.9824 75.8424 31.7067 76.9952 29.3144C77.1844 28.9229 77.363 28.5525 77.5476 28.203C78.3942 26.6041 82.0614 16.9165 83.8838 12.0074C83.9708 11.7584 84.7019 9.84761 87.0031 8.42574C89.0761 7.14335 91.2692 7.22734 91.6264 7.25134H100.016C100.091 7.24834 102.035 7.24984 103.394 8.41374C104.665 9.50264 105.103 10.3141 105.226 10.5945L110.893 20.7861C111.001 20.9946 111.936 22.8665 111.343 24.3828C110.762 25.8662 110.045 26.7526 109.937 26.8816L96.7497 43.1747C96.6942 43.2512 96.0832 44.1121 96.1027 44.9985C96.1282 46.0814 96.9073 47.1973 96.9148 47.2093L96.9283 47.2273L112.333 70.1228C112.474 70.3253 113.769 72.2166 114.086 73.166C114.812 75.3439 114.227 77.7886 112.558 79.545L112.559 79.5405Z" fill="#15151E"/>
<path d="M110.845 71.1322L95.4407 48.2367C95.2936 48.0298 94.3404 46.6184 94.3044 45.0345C94.2699 43.4957 95.2171 42.2118 95.3252 42.0708L95.3402 42.0513L108.562 25.7162C108.562 25.7162 109.17 24.9918 109.667 23.7229C109.89 23.1529 109.563 22.136 109.3 21.6216L103.586 11.3445L103.575 11.3115C103.532 11.22 103.221 10.635 102.221 9.77862C101.381 9.05868 100.033 9.04968 100.019 9.04968H91.5529L91.5124 9.04668C91.4973 9.04668 89.642 8.9087 87.9502 9.9556C86.1234 11.085 85.6055 12.5369 85.5845 12.5969L85.5755 12.6239C85.3594 13.2073 80.2526 26.9416 79.1388 29.0444C78.9707 29.3624 78.7995 29.7179 78.6179 30.0943C77.4531 32.5106 75.6923 36.1628 69.5092 40.7404C66.9829 42.6107 64.0723 44.0026 61.3147 44.6581C58.6893 45.282 56.4287 45.18 55.1137 44.3806C53.8933 43.6381 53.2223 42.3813 53.1743 40.7464C53.1427 39.677 53.3949 38.7801 53.4385 38.6346L56.1329 28.8569C56.259 28.383 56.5517 26.9536 56.3611 26.1302C56.163 25.2723 55.6286 24.5268 54.7744 23.9164C53.6997 23.1499 50.1496 19.6642 48.734 17.5929C46.3428 14.0952 45.8219 10.5316 45.5712 8.8202C45.5337 8.55923 45.4991 8.33274 45.4706 8.17826C45.2875 7.22134 44.9813 5.62998 41.5648 5.408C40.1132 5.31351 39.0519 5.81447 38.3209 6.94237C37.734 7.84829 37.5959 8.8247 37.5959 8.8337L34.8999 32.0847C34.7888 33.0401 33.9046 34.8804 31.3528 35.0079C29.3248 35.1099 28.2005 33.4015 27.8537 32.3681L22.1165 16.1651C22.1135 16.1576 21.7022 14.8872 20.5328 14.0967C19.4235 13.3453 18.4103 13.4743 18.026 13.5658C17.2725 13.7428 11.4902 15.6926 10.9153 15.9626C10.3434 16.2311 9.2806 16.7305 8.92334 17.4414C8.5976 18.0924 8.40396 18.8078 8.40396 19.3553C8.40396 20.1847 8.69667 21.2031 8.7372 21.3441L17.4841 45.9569C17.6372 46.3724 18.1461 47.6068 18.6204 48.2067C19.1969 48.9357 20.12 49.4291 20.1306 49.4336L30.1474 54.5797C30.4236 54.7147 33.4093 56.2505 33.6254 59.5817C33.8581 63.1724 31.59 64.6033 31.4939 64.6618L31.4519 64.6858L19.347 71.2297C19.2224 71.2912 16.2382 72.7956 16.8146 75.9798C17.4421 79.4445 20.9036 79.5405 21.0507 79.542L107.172 79.59C107.197 79.593 109.902 79.7235 111.258 78.2986C112.207 77.3012 113.001 75.5763 112.384 73.7285C112.205 73.1945 111.348 71.8507 110.85 71.1292L110.845 71.1322ZM100.018 12.6494H100.009C99.9966 12.6494 99.9831 12.6494 99.9666 12.6494H100.018ZM108.691 75.7668C108.446 75.8943 107.816 76.0098 107.362 75.9978L107.308 75.9918L23.1643 75.9453L23.0757 75.8343L21.1318 75.9393C20.9937 75.9198 20.7505 75.8643 20.5719 75.7638C20.4848 75.7143 20.4173 75.6753 20.3557 75.3394C20.3137 75.1084 20.3392 75.0454 20.4533 74.8954C20.6154 74.6854 20.8541 74.5144 20.9667 74.4439L33.1631 67.849L33.3733 67.729C35.3202 66.5366 37.4953 63.6269 37.2176 59.3478C36.8843 54.1987 32.6512 51.8079 31.7806 51.37L21.8298 46.2584C21.8298 46.2584 21.8238 46.2554 21.8208 46.2524L21.7698 46.2269L21.8178 46.2509C21.6917 46.1759 21.5296 46.0544 21.453 45.9794C21.3059 45.75 21.0312 45.1605 20.8676 44.721L12.1687 20.2447C12.0967 19.9792 12.0276 19.6283 12.0096 19.4333C12.1102 19.3808 12.2348 19.3178 12.3849 19.2473C13.185 18.9263 17.2499 17.5524 18.5829 17.1475C18.631 17.206 18.6805 17.2855 18.7105 17.3485L24.4447 33.544C25.3499 36.2003 27.8837 38.7831 31.5299 38.6031C33.9317 38.4831 35.9642 37.4167 37.2521 35.6003C38.1843 34.2865 38.4185 32.9951 38.4755 32.4986L41.1595 9.35566C41.1595 9.35566 41.1625 9.34366 41.164 9.33616L41.173 9.23567L41.164 9.33166C41.191 9.22217 41.239 9.09468 41.2856 8.99719C41.2976 8.99719 41.3126 8.99719 41.3261 8.99869C41.5993 9.01669 41.8094 9.04518 41.9641 9.07668C41.9761 9.16067 41.9911 9.25666 42.0031 9.34066C42.2703 11.166 42.8947 15.4391 45.7558 19.6238C47.38 21.9995 51.2198 25.8062 52.6774 26.8456C52.736 26.8876 52.781 26.9251 52.8125 26.9536C52.7915 27.2251 52.7254 27.636 52.6489 27.933L49.9739 37.6387C49.8373 38.1051 49.5266 39.341 49.5716 40.8514C49.6557 43.6816 50.9932 46.0874 53.2388 47.4538C55.9963 49.1307 59.605 48.7632 62.1478 48.1587C64.4265 47.6173 67.9256 46.3919 71.6543 43.6321C78.5504 38.5251 80.6249 34.225 81.8633 31.6557C82.0374 31.2957 82.186 30.9853 82.3226 30.7273C83.4695 28.5645 87.668 17.3335 88.944 13.8988C88.998 13.7968 89.2442 13.3858 89.8461 13.0138C90.334 12.7124 90.9525 12.6419 91.2272 12.6374L91.2782 12.6479H99.9515C99.9606 12.6479 99.9696 12.6494 99.9786 12.6509L99.896 12.6584L99.9861 12.6524C100.006 12.6554 100.027 12.6584 100.046 12.6614C100.226 12.8264 100.334 12.9478 100.391 13.0153L105.99 23.0854C105.882 23.2774 105.797 23.3974 105.77 23.4364L92.5361 39.788L92.4611 39.8825C92.0332 40.4419 90.6387 42.4727 90.6988 45.117C90.7558 47.5993 92.0122 49.6211 92.4686 50.2751L107.846 73.1315L107.876 73.1765C108.304 73.7975 108.799 74.5939 108.976 74.9434C109.035 75.2509 108.844 75.5793 108.686 75.7668H108.691Z" fill="#15151E"/>
</svg>
