<svg width="121" height="85" viewBox="0 0 121 85" fill="none" xmlns="http://www.w3.org/2000/svg">
<path d="M69.4233 35.4238C69.424 35.4249 69.4255 35.4256 69.4263 35.4268C69.4279 35.4293 69.4294 35.4326 69.4312 35.4355C69.4348 35.4415 69.4393 35.4487 69.4438 35.4561C69.4528 35.4708 69.463 35.4887 69.4751 35.5088C69.4993 35.5492 69.5308 35.601 69.5659 35.6621C69.6335 35.7798 69.7295 35.953 69.8315 36.1562C69.9259 36.3441 70.0698 36.6455 70.1987 37.0029C70.2735 37.2104 70.5898 38.069 70.5454 39.1582V39.165C70.4833 40.6379 69.8319 41.6736 69.5308 42.1025C69.1777 42.6054 68.8053 42.9696 68.5757 43.1787C68.326 43.406 68.0979 43.5828 67.9419 43.6973C67.86 43.7574 67.7874 43.8078 67.729 43.8477C67.7167 43.856 67.7041 43.8635 67.6929 43.8711L67.6919 43.873C67.6881 43.8757 67.6828 43.8794 67.6763 43.8838C67.663 43.8928 67.6435 43.9057 67.6196 43.9219C67.5718 43.9543 67.5029 44.0004 67.4165 44.0586C67.2432 44.1752 66.9968 44.3405 66.6978 44.5381C66.1025 44.9314 65.2852 45.4619 64.4165 46.002C63.4824 46.5834 62.5133 47.1619 61.7524 47.6094C61.3702 47.8342 61.0346 48.0294 60.7817 48.1768C60.6538 48.2513 60.5512 48.3116 60.4712 48.3584C60.3897 48.4061 60.3591 48.4245 60.3569 48.4258L60.356 48.4248C59.8389 48.7397 59.2148 49.0505 58.8042 49.2539C58.7086 49.3013 58.6171 49.3465 58.5298 49.3896C58.537 49.4863 58.5442 49.5556 58.5513 49.6084C58.5597 49.6714 58.5706 49.7364 58.5884 49.8291L58.6694 50.2178L58.6704 50.2197C58.9324 51.4225 59.0312 52.4864 59.0122 54.0137C58.9912 55.6816 58.8292 58.1376 57.314 60.4805L57.313 60.4795C55.8278 62.778 53.6748 64.33 51.231 64.8965C50.7516 65.0076 50.2208 65.1076 49.854 65.1738C49.6616 65.2086 49.4945 65.2384 49.3745 65.2588C49.3144 65.269 49.2649 65.2764 49.23 65.2822C49.2125 65.2851 49.1982 65.2874 49.188 65.2891C49.183 65.2899 49.1785 65.2915 49.1753 65.292C49.1739 65.2922 49.1724 65.2918 49.1714 65.292L49.1704 65.293H49.1685L49.1587 65.2939L38.9106 66.9375C38.935 67.1088 38.9601 67.2868 38.9858 67.4658C39.0982 68.2461 39.2341 69.1699 39.2642 69.4082C39.3071 69.7484 39.3529 70.2642 39.3618 70.832C39.3695 71.3237 39.3592 72.2325 39.1274 73.1738L39.1265 73.1797C38.9681 73.8194 38.542 75.086 37.2798 76.0996C36.4983 76.7271 35.6752 77.0031 35.2974 77.1104C35.2964 77.1108 35.2955 77.112 35.2944 77.1123C35.2222 77.1369 35.0837 77.1841 34.9292 77.2363C34.6064 77.3454 34.1534 77.4959 33.5952 77.6689C32.4822 78.0139 30.9435 78.4523 29.1421 78.8506L29.1411 78.8496C27.5057 79.2114 25.6653 79.503 24.4019 79.7314L24.4028 79.7324C23.1415 79.9607 22.0143 80.164 21.2026 80.3105C20.7972 80.3837 20.4702 80.4427 20.2446 80.4834C20.132 80.5037 20.0441 80.5196 19.9849 80.5303C19.9554 80.5356 19.9326 80.5402 19.9175 80.543C19.91 80.5443 19.9037 80.5452 19.8999 80.5459C19.8983 80.5462 19.8969 80.5467 19.896 80.5469H19.894C19.8814 80.5492 19.8686 80.5515 19.856 80.5537H19.854L19.8511 80.5547C19.8494 80.555 19.8473 80.5553 19.8452 80.5557C19.8411 80.5564 19.836 80.5567 19.8306 80.5576C19.8192 80.5595 19.8043 80.5617 19.7876 80.5645C19.7542 80.57 19.7097 80.5777 19.6567 80.5859C19.5513 80.6024 19.4067 80.6239 19.2368 80.6465C18.9146 80.6893 18.4234 80.746 17.9038 80.7705L17.9048 80.7715C17.0497 80.812 16.1405 80.6999 15.2788 80.4199C14.5485 80.1826 13.1041 79.5818 12.0825 78.0898C11.4941 77.2313 11.1638 76.3938 10.9819 75.8359C10.8862 75.5422 10.8186 75.2852 10.772 75.0859C10.7485 74.9856 10.73 74.8972 10.7153 74.8232C10.708 74.7863 10.7013 74.7527 10.6958 74.7227C10.6931 74.7076 10.6903 74.6929 10.688 74.6797C10.6868 74.6731 10.6861 74.6663 10.6851 74.6602C10.6846 74.6572 10.6836 74.6542 10.6831 74.6514C10.6829 74.65 10.6823 74.6488 10.6821 74.6475V74.6445L14.6284 73.9824V73.9863C14.6287 73.9877 14.6291 73.9895 14.6294 73.9912C14.6301 73.9949 14.6314 73.9997 14.6323 74.0049C14.6343 74.0155 14.6369 74.0296 14.6401 74.0459C14.6466 74.0786 14.6551 74.1227 14.6675 74.1758C14.6923 74.2818 14.7304 74.4272 14.7856 74.5967C14.8941 74.9292 15.0788 75.386 15.3813 75.8281C15.6837 76.2712 16.1569 76.4995 16.5161 76.6162C16.9012 76.7412 17.3264 76.7939 17.7163 76.7754L18.2476 76.7354C18.4173 76.7184 18.5764 76.6995 18.7104 76.6816C18.846 76.6636 18.961 76.6465 19.0425 76.6338C19.0831 76.6275 19.1162 76.6219 19.1392 76.6182C19.1505 76.6163 19.1601 76.6144 19.1665 76.6133C19.1695 76.6128 19.1725 76.6126 19.1743 76.6123L19.1763 76.6113H19.1782L19.187 76.6104C19.1879 76.6101 19.1895 76.6096 19.1909 76.6094C19.1948 76.6087 19.2013 76.6078 19.2085 76.6064C19.2237 76.6037 19.2466 76.599 19.2759 76.5938C19.335 76.5831 19.4225 76.5671 19.5347 76.5469C19.76 76.5062 20.0875 76.4472 20.4927 76.374C21.3039 76.2276 22.4315 76.024 23.6919 75.7959C25.09 75.5431 26.7443 75.2841 28.2798 74.9443C31.4617 74.2408 34.061 73.3101 34.1001 73.293L34.2339 73.2559C34.3873 73.2089 34.5918 73.1283 34.7759 72.9805C35.0793 72.7367 35.1925 72.4284 35.2446 72.2178C35.3519 71.7823 35.3689 71.2837 35.3628 70.8945C35.3564 70.4903 35.3232 70.122 35.2964 69.9092C35.2406 69.4672 34.8118 66.6156 34.7671 66.1289C34.6983 65.3808 34.343 64.7052 33.9116 64.2168C33.8165 64.1092 33.7472 64.0328 33.6782 63.9512C33.6453 63.9122 33.6203 63.8759 33.5972 63.8457C33.6288 63.8311 33.664 63.8134 33.7036 63.7979C33.8567 63.7378 34.0195 63.6922 34.1499 63.6611C34.2133 63.6461 34.2659 63.6346 34.3003 63.6279C34.3168 63.6247 34.3293 63.6223 34.3364 63.6211C34.3377 63.6208 34.3395 63.6203 34.3403 63.6201L48.5259 61.3447H48.5288L48.5317 61.3438C48.534 61.3435 48.5378 61.3434 48.5415 61.3428C48.5497 61.3414 48.5619 61.3394 48.5767 61.3369C48.6071 61.3319 48.6512 61.3237 48.7056 61.3145C48.8149 61.2959 48.9683 61.27 49.144 61.2383C49.4928 61.1753 49.9468 61.0885 50.3286 61C51.6829 60.6859 52.989 59.8034 53.9556 58.3066C54.8358 56.9449 54.9956 55.4426 55.0142 53.9639C55.0301 52.682 54.9494 51.9256 54.7632 51.0703C54.6131 50.3828 54.5303 49.9626 54.5112 49.0029C54.4848 47.6339 54.9199 46.7616 55.6909 46.3467C56.0991 46.1269 56.5647 45.8988 57.0288 45.6689C57.4745 45.4482 57.9379 45.2165 58.2788 45.0088L58.2778 45.0078C58.5152 44.8634 60.5596 43.6917 62.3032 42.6064L62.3042 42.6074C63.1322 42.0927 63.9172 41.5821 64.4937 41.2012C64.7819 41.0107 65.0189 40.8514 65.1841 40.7402C65.2666 40.6847 65.3323 40.6413 65.3765 40.6113C65.3965 40.5977 65.413 40.5859 65.4243 40.5781L65.4263 40.5762C65.4273 40.5756 65.429 40.575 65.4302 40.5742C65.4331 40.5724 65.4369 40.57 65.4409 40.5674C65.4493 40.5618 65.4603 40.5537 65.4731 40.5449C65.4991 40.5272 65.5348 40.5027 65.5757 40.4727C65.656 40.4136 65.7675 40.3271 65.8833 40.2217C65.9954 40.1196 66.137 39.9765 66.2583 39.8037C66.3693 39.6455 66.5349 39.3617 66.5503 38.9951C66.5614 38.7231 66.4801 38.4789 66.437 38.3594C66.3832 38.2101 66.3157 38.0665 66.2583 37.9521C66.1993 37.8348 66.1409 37.7297 66.0981 37.6553C66.0766 37.6177 66.0588 37.5858 66.0454 37.5635C66.0389 37.5526 66.0329 37.5438 66.0288 37.5371C66.0268 37.5338 66.0252 37.5305 66.0239 37.5283C66.0233 37.5274 66.0225 37.5261 66.022 37.5254L66.02 37.5234C69.3057 35.4912 69.4183 35.4229 69.4224 35.4209L69.4233 35.4238ZM9.93896 29.6738L24.8638 20.5908C24.8693 20.5874 24.8759 20.5835 24.8813 20.5801L24.896 20.5703C24.9066 20.5636 24.923 20.5533 24.9438 20.54C24.9864 20.5131 25.0506 20.4732 25.1323 20.4219C25.2962 20.319 25.5349 20.1694 25.8315 19.9863C26.4255 19.6197 27.2524 19.1165 28.1831 18.5703C30.0604 17.4685 32.3089 16.2226 33.9282 15.5508C36.3273 14.5555 38.0376 14.0366 39.561 13.7598C41.0852 13.4829 42.4628 13.4404 44.2329 13.4336C46.9878 13.4236 49.1933 14.0014 50.772 14.627C50.7689 14.6467 50.766 14.6662 50.7632 14.6855C50.7603 14.7058 50.757 14.7262 50.7544 14.7461L50.7485 14.79C50.7482 14.7925 50.7487 14.7966 50.7485 14.7979C50.7554 14.7409 50.7658 14.6845 50.7749 14.6279C50.9291 14.6891 51.0781 14.75 51.2202 14.8115C52.0195 15.1576 52.6275 15.5027 53.0288 15.7559C53.229 15.8821 53.3779 15.9857 53.4731 16.0547C53.5206 16.0891 53.5551 16.116 53.5757 16.1318C53.5834 16.1378 53.5895 16.1425 53.5933 16.1455C53.5947 16.1467 53.5965 16.1481 53.5981 16.1494C53.6048 16.1549 53.614 16.1625 53.6245 16.1709C53.6457 16.1879 53.6754 16.2106 53.7104 16.2373C53.7798 16.29 53.8785 16.3623 53.9937 16.4355C54.1059 16.5069 54.2538 16.592 54.4175 16.6611C54.5645 16.7232 54.8152 16.8127 55.1079 16.8027L55.1128 16.8018C55.6443 16.7808 56.0797 16.5821 56.3716 16.2451C56.5054 16.0906 56.5857 15.9333 56.6333 15.8057C56.6432 15.7791 56.6493 15.7527 56.6567 15.7285C56.7108 15.7654 56.768 15.8033 56.8208 15.8398C56.8805 15.8811 56.9345 15.9184 56.9731 15.9453C56.9924 15.9587 57.0084 15.9701 57.019 15.9775C57.0241 15.9811 57.0281 15.9845 57.0308 15.9863C57.0318 15.987 57.0331 15.9879 57.0337 15.9883L57.0347 15.9893C57.0431 15.9951 57.0524 16.0003 57.061 16.0059L54.9155 19.2891L54.9175 19.29C55.0337 19.1107 55.4647 18.4488 57.061 16.0059L57.0649 16.0098C57.066 16.0104 57.0677 16.011 57.0688 16.0117L57.103 16.0322C57.1212 16.0433 57.1442 16.0571 57.1714 16.0723C57.2261 16.1027 57.2998 16.1408 57.3892 16.1807C57.5665 16.2598 57.8183 16.3515 58.1235 16.4043L58.1245 16.4053C58.6087 16.4883 59.0636 16.4439 59.3735 16.3906C59.5333 16.3631 59.6682 16.3309 59.7651 16.3047C59.8134 16.2916 59.8535 16.2797 59.8833 16.2705C59.8981 16.2659 59.9116 16.262 59.9214 16.2588C59.923 16.2582 59.9248 16.2573 59.9263 16.2568L63.439 15.2246C63.4588 15.2188 63.4791 15.2121 63.4985 15.2051H63.5005C63.5017 15.2046 63.5037 15.2037 63.5054 15.2031C63.5093 15.2017 63.5154 15.1997 63.522 15.1973C63.5356 15.1922 63.5554 15.1849 63.5796 15.1758C63.6283 15.1574 63.6973 15.1301 63.7817 15.0967C63.9509 15.0298 64.1857 14.9338 64.4458 14.8174C64.9408 14.5958 65.6242 14.259 66.1099 13.8711L66.5894 13.5029C67.0403 13.174 67.4188 12.9586 67.8403 12.8154C68.7952 12.4903 69.6957 12.3203 70.5552 12.1758C71.3805 12.037 72.2585 11.9103 73.0103 11.666L73.3882 11.5342C74.2658 11.2053 75.098 10.747 75.5493 10.3994C75.5888 10.369 75.6239 10.3436 75.6538 10.3213C75.7936 10.5367 76.1431 11.0236 76.6362 11.4932C77.1614 11.9931 78.0162 12.6369 79.0708 12.6855C80.406 12.7468 81.5232 11.9889 81.9575 11.7461L81.9595 11.7441C82.6445 11.359 83.6862 10.7932 83.9663 10.6543C84.1866 10.5458 84.63 10.3443 85.1704 10.3018C85.5203 10.2743 85.8111 10.2604 86.0122 10.2529C86.1124 10.2492 86.191 10.2471 86.2427 10.2461C86.2678 10.2456 86.2872 10.2453 86.2993 10.2451H92.312L92.3374 10.2461C92.3615 10.2473 92.3998 10.2492 92.4478 10.2529C92.5451 10.2605 92.6811 10.2741 92.8315 10.2979C93.1666 10.3507 93.445 10.4341 93.5864 10.5225L93.5874 10.5234C94.1168 10.8547 94.9074 11.6448 95.4604 12.4551C95.7881 12.9351 96.2276 13.5011 96.7349 13.999C97.2284 14.4833 97.8603 14.9768 98.5815 15.2041C99.8533 15.6047 101.595 15.4259 102.809 14.8535C103.252 14.6447 104.356 14.1977 105.429 13.7783C105.958 13.5715 106.469 13.3755 106.869 13.2256C107.069 13.1506 107.24 13.0876 107.37 13.041C107.435 13.0177 107.488 12.9998 107.528 12.9863C107.561 12.9751 107.578 12.97 107.582 12.9688C107.959 12.864 108.358 12.6959 109.454 12.7031C111.391 12.7154 114.024 14.3662 114 17.8457C113.974 21.7212 110.565 23.955 107.989 23.9824C105.321 24.0105 103.06 22.8126 100.477 20.998L99.8218 20.5342C98.3897 19.508 97.5894 18.8496 96.4565 17.8438C95.4309 16.9331 94.3088 16.0247 93.2349 15.2041C91.1857 13.6369 89.287 12.5154 88.7163 12.209C88.4572 12.0699 88.191 11.9317 87.8979 11.8457C87.6592 11.7757 87.4333 11.7477 87.2017 11.7422L86.9663 11.7432C86.3778 11.7606 85.8836 12.0327 85.5376 12.2881C85.1799 12.5523 84.8812 12.8727 84.6655 13.1396L84.6646 13.1406C84.5324 13.3046 83.5582 14.6256 82.6128 15.9033C82.1326 16.5523 81.6503 17.2027 81.27 17.7129C81.0799 17.9679 80.9157 18.1871 80.7905 18.3525C80.7281 18.4351 80.6762 18.503 80.6362 18.5547C80.6163 18.5805 80.5998 18.6015 80.5874 18.6172C80.5814 18.6248 80.5763 18.6314 80.5728 18.6357C80.5708 18.6381 80.5695 18.6399 80.5688 18.6406C80.3027 18.9569 79.6361 19.6508 78.9663 20.0176L78.8325 20.0859C78.4047 20.2904 78.0449 20.3945 77.3921 20.3945C77.2621 20.3945 76.8287 20.3883 76.2114 20.3818C75.6022 20.3754 74.8284 20.3688 74.0415 20.3682C73.2562 20.3676 72.4503 20.3739 71.7769 20.3916C71.1412 20.4084 70.5235 20.4368 70.1821 20.5039C67.8422 20.9641 65.7384 22.5439 64.7271 23.8604C63.7961 25.0722 63.0832 26.2353 62.9556 27.9834C62.9196 28.4729 62.8885 30.1768 62.8667 31.7051C62.8556 32.4807 62.8466 33.2281 62.8403 33.7812C62.8372 34.0578 62.8351 34.2863 62.8335 34.4453C62.8327 34.5245 62.832 34.5866 62.8315 34.6289C62.8313 34.6501 62.8317 34.6668 62.8315 34.6777C62.8315 34.6832 62.8306 34.6877 62.8306 34.6904V34.708L58.8296 34.7246C58.8295 34.7017 58.8303 34.6782 58.8306 34.6553V34.5898C58.831 34.547 58.8317 34.4834 58.8325 34.4033C58.8342 34.2433 58.8372 34.014 58.8403 33.7363C58.8466 33.1806 58.8555 32.4286 58.8667 31.6475C58.8874 30.2019 58.9181 28.3324 58.9653 27.6904C59.177 24.7973 60.4358 22.8798 61.5542 21.4238C62.0882 20.7287 62.7957 20.0087 63.6353 19.3359L61.0874 20.084C61.0802 20.0863 61.0725 20.0895 61.0649 20.0918C60.9926 20.1142 60.9059 20.1393 60.8071 20.166C60.6115 20.2189 60.3537 20.2809 60.0503 20.333C59.4929 20.4288 58.5435 20.5358 57.4468 20.3477L57.4409 20.3467C57.417 20.3425 57.3932 20.3373 57.3696 20.333C56.6896 20.6212 55.9723 20.7712 55.269 20.7988C55.2607 20.7992 55.252 20.7995 55.2437 20.7998C54.0996 20.8388 53.2177 20.4978 52.8599 20.3467C52.4181 20.1601 52.0652 19.9499 51.8462 19.8105C51.6117 19.6613 51.4188 19.5209 51.2886 19.4219C51.2243 19.373 51.1685 19.329 51.1235 19.293C51.093 19.2709 51.0158 19.2165 50.894 19.1396C50.646 18.9832 50.2193 18.7379 49.6294 18.4824C48.4548 17.9739 46.6368 17.4249 44.2466 17.4336C42.5179 17.4403 41.4344 17.4846 40.2749 17.6953C39.1198 17.9052 37.6937 18.3182 35.4595 19.2451C34.1199 19.8009 32.0818 20.9189 30.2065 22.0195C29.3073 22.5473 28.5067 23.0354 27.9312 23.3906C27.6442 23.5677 27.4143 23.7106 27.2583 23.8086C27.1804 23.8575 27.1206 23.8952 27.0815 23.9199C27.0621 23.9322 27.0476 23.9416 27.0386 23.9473C27.0345 23.9498 27.0316 23.952 27.0298 23.9531L27.0278 23.9541C26.9994 23.9722 26.9707 23.9903 26.9419 24.0078L12.0923 33.0459C12.0866 33.05 12.0802 33.0552 12.0728 33.0605C12.0092 33.1069 11.8997 33.191 11.7729 33.3047C11.4854 33.5627 11.2852 33.8152 11.1948 33.9883C11.076 34.2166 11.0212 34.4707 11.0054 34.7012C11.3967 34.8321 12.092 35.1053 12.7954 35.6719L13.1001 35.9355L13.105 35.9404C14.0284 36.8065 14.4727 37.77 14.6851 38.3564C14.7993 38.672 14.8734 38.9523 14.9214 39.1719C14.9457 39.2833 14.9643 39.3844 14.979 39.4727C14.9853 39.5104 14.9907 39.5465 14.9956 39.5801L15.23 41.165C15.2418 41.2232 15.2543 41.2818 15.2642 41.3408L20.103 70.3467C20.818 70.2175 21.6827 70.0615 22.6216 69.8916C24.2215 69.6023 25.5971 69.3926 26.9829 69.0859C27.7287 68.9211 28.4223 68.7465 29.0435 68.5781C28.9972 68.2551 28.9519 67.9358 28.9136 67.6572C28.9103 67.6337 28.9072 67.6094 28.9038 67.585C28.7754 67.4217 28.637 67.2384 28.5132 67.0488C28.0508 66.341 27.4917 65.1951 27.4917 63.6885C27.4917 61.4998 28.7171 60.069 29.5034 59.3955C30.2683 58.7404 31.0635 58.3879 31.5093 58.2129C32.0096 58.0165 32.463 57.8949 32.7603 57.8242C32.9172 57.7869 33.0529 57.7586 33.1577 57.7383C33.2104 57.7281 33.2569 57.7197 33.2954 57.7129C33.3146 57.7095 33.3327 57.7057 33.3481 57.7031C33.3557 57.7019 33.363 57.7013 33.3696 57.7002L33.3843 57.6973H33.3862C33.3873 57.6971 33.3876 57.6969 34.022 61.6465H34.019C34.0172 61.6468 34.0147 61.6479 34.0122 61.6484C34.0066 61.6494 33.9984 61.6499 33.9897 61.6514C33.9723 61.6544 33.9481 61.6595 33.9194 61.665C33.8616 61.6762 33.7814 61.6924 33.687 61.7148C33.501 61.7591 33.2411 61.831 32.9722 61.9365C32.7143 62.0378 32.3865 62.1943 32.1069 62.4336C31.823 62.6768 31.4927 63.094 31.4927 63.6885C31.4927 64.1766 31.6705 64.5669 31.8628 64.8613C32.0382 65.1298 32.2713 65.3801 32.4136 65.541C32.6211 65.776 32.7533 66.0662 32.7759 66.3125C32.8227 66.8219 33.2764 69.877 33.312 70.1592C33.3308 70.3082 33.3587 70.6031 33.3638 70.9258C33.3667 71.1145 33.3592 71.2892 33.3462 71.4385C32.7317 71.6434 31.2429 72.1695 29.0317 72.7148L27.8481 72.9912C27.1055 73.1556 26.3434 73.2988 25.5845 73.4336L23.3354 73.8281C22.0756 74.0562 20.9492 74.2598 20.1382 74.4062C19.7329 74.4794 19.4055 74.5385 19.1802 74.5791C19.068 74.5993 18.9805 74.6153 18.9214 74.626C18.8923 74.6312 18.8691 74.635 18.854 74.6377C18.8467 74.639 18.8403 74.6399 18.8364 74.6406C18.835 74.6409 18.8334 74.6414 18.8325 74.6416H18.8306C18.8268 74.6422 18.8213 74.6435 18.8149 74.6445C18.7972 74.6474 18.7694 74.6518 18.7349 74.6572C18.6654 74.668 18.5653 74.6834 18.4468 74.6992C18.3262 74.7153 18.1892 74.731 18.0483 74.7451L17.6216 74.7783C17.464 74.7858 17.2803 74.7616 17.1333 74.7139C17.0729 74.6942 17.0321 74.6737 17.0083 74.6602C16.8607 74.4346 16.7551 74.1855 16.687 73.9766C16.6521 73.8695 16.6296 73.78 16.6157 73.7207C16.6088 73.6913 16.6035 73.6692 16.6011 73.6572C16.6004 73.6539 16.6004 73.6521 16.6001 73.6504L11.3188 41.999C11.3129 41.9631 11.305 41.9279 11.2954 41.8936L11.0396 40.1641C11.0381 40.1539 11.0369 40.1416 11.0347 40.1279C11.0301 40.1004 11.0229 40.0656 11.0142 40.0254C10.9967 39.9456 10.9689 39.8393 10.9253 39.7188C10.8411 39.4862 10.6791 39.1488 10.3696 38.8584L10.3687 38.8574L10.2856 38.7861C10.0913 38.6299 9.88358 38.5433 9.73291 38.4932C9.55025 38.4325 9.37071 38.399 9.229 38.3799C9.08426 38.3604 8.9543 38.3521 8.86182 38.3486C8.8152 38.3469 8.7757 38.3458 8.74658 38.3457C8.73241 38.3456 8.71983 38.3466 8.71045 38.3467H8.68994L7.55615 38.3613H7.5083C7.49641 38.3609 7.48258 38.3587 7.46826 38.3574C7.45823 38.3278 7.44563 38.2958 7.43604 38.2607C7.41861 38.1969 7.40542 38.1371 7.39697 38.0938C7.39286 38.0726 7.38979 38.0564 7.38818 38.0469L7.38721 38.0381L7.0542 35.5654C7.05185 35.548 7.04869 35.53 7.04541 35.5127C7.04423 35.5055 7.04233 35.4916 7.03955 35.4717C7.03383 35.4308 7.02549 35.364 7.01807 35.2754C7.00319 35.0975 6.99166 34.8336 7.00928 34.5117C7.0447 33.8647 7.19616 33.0064 7.6499 32.1367C8.03934 31.3909 8.60881 30.7705 9.10303 30.3271C9.3466 30.1086 9.56405 29.9408 9.71729 29.8291C9.79334 29.7737 9.85334 29.732 9.89209 29.7061C9.9113 29.6932 9.92603 29.6839 9.93408 29.6787L9.93896 29.6738ZM8.88135 27.9766V27.9775C8.88066 27.978 8.87933 27.9789 8.87842 27.9795C8.87654 27.9807 8.8742 27.9827 8.87158 27.9844C8.8661 27.9878 8.85868 27.9925 8.8501 27.998C8.83264 28.0093 8.80806 28.0244 8.77881 28.0439C8.71998 28.0834 8.63775 28.1406 8.53857 28.2129C8.34052 28.3573 8.06992 28.5681 7.76807 28.8389C7.17043 29.375 6.41543 30.1795 5.87646 31.2119C5.25807 32.3973 5.05882 33.5511 5.01221 34.4023C4.98884 34.8295 5.00351 35.1868 5.0249 35.4424C5.0356 35.5702 5.04865 35.6733 5.05908 35.748C5.06379 35.7818 5.06822 35.8101 5.07178 35.832L5.40674 38.3193L5.40869 38.3311V38.333C5.40887 38.3341 5.40946 38.3355 5.40967 38.3369C5.41008 38.3397 5.41003 38.3437 5.41064 38.3477C5.41188 38.3556 5.41349 38.3658 5.41553 38.3779C5.41967 38.4026 5.42633 38.4357 5.43408 38.4756C5.44945 38.5546 5.47282 38.6643 5.50635 38.7871C5.56212 38.9913 5.68482 39.3915 5.94189 39.707L5.94287 39.708C6.30458 40.1503 6.81742 40.2772 7.06592 40.3213C7.21309 40.3473 7.34389 40.357 7.43701 40.3604C7.48435 40.362 7.52545 40.3627 7.55615 40.3623C7.57122 40.3621 7.58462 40.3617 7.59521 40.3613L7.59814 40.3604L8.72412 40.3467L8.73291 40.3457C8.73414 40.3457 8.73627 40.3457 8.73779 40.3457C8.74801 40.3458 8.76549 40.3468 8.7876 40.3477C8.8347 40.3494 8.8976 40.3527 8.96143 40.3613C8.98917 40.3651 9.01385 40.3718 9.03467 40.376C9.03794 40.3835 9.04241 40.3911 9.04541 40.3994C9.05377 40.4225 9.05882 40.4421 9.06104 40.4521C9.06124 40.4537 9.0608 40.4555 9.06104 40.457L9.33545 42.3115C9.34205 42.356 9.35239 42.3996 9.36475 42.4424L14.6274 73.9814L10.6821 74.6426L10.6812 74.6406L5.58154 44.0693C4.8206 43.8305 3.73364 43.3261 2.84521 42.2393L2.84033 42.2334C2.0169 41.2226 1.72165 40.1143 1.64697 39.8408C1.58118 39.5999 1.53559 39.3905 1.50635 39.2402C1.4913 39.1629 1.47945 39.095 1.47021 39.04C1.4656 39.0125 1.4619 38.9876 1.4585 38.9658C1.45682 38.9551 1.45502 38.9448 1.45361 38.9355L1.45068 38.915C1.45053 38.914 1.44985 38.9131 1.44971 38.9121V38.9102C1.44697 38.8914 1.44442 38.8713 1.44189 38.8525L1.1167 36.4336C1.1104 36.3935 1.10285 36.3494 1.09619 36.3018C1.07631 36.1594 1.05488 35.9828 1.0376 35.7764C1.00321 35.3655 0.98225 34.8218 1.01709 34.1846C1.08602 32.9247 1.38165 31.1783 2.32959 29.3613C3.16752 27.7562 4.29095 26.5829 5.09521 25.8613C5.51439 25.4853 5.89418 25.1904 6.18213 24.9805C6.32706 24.8748 6.45224 24.7881 6.55127 24.7217C6.6006 24.6886 6.64384 24.6602 6.68018 24.6367C6.69838 24.625 6.71525 24.6138 6.72998 24.6045C6.73716 24.5999 6.74416 24.5958 6.75049 24.5918C6.75368 24.5898 6.75727 24.5878 6.76025 24.5859C6.76161 24.5851 6.76286 24.5838 6.76416 24.583L6.76709 24.582C6.77291 24.5893 6.87246 24.7484 8.88135 27.9766ZM34.9946 67.5664C34.9983 67.5658 35.002 67.566 35.0054 67.5654C35.0077 67.565 35.0101 67.5639 35.0122 67.5635L34.9946 67.5664ZM32.4448 67.5283C32.4882 67.5157 32.5348 67.5 32.5835 67.4873L32.5854 67.4863C32.5778 67.4883 32.5263 67.5025 32.4448 67.5283ZM62.8306 34.7148C62.8306 34.7177 62.8315 34.7215 62.8315 34.7256C62.8317 34.7341 62.8312 34.7454 62.8315 34.7588C62.8322 34.7853 62.8332 34.8213 62.8354 34.8652C62.8399 34.9531 62.8485 35.0751 62.8647 35.2178C62.8964 35.4949 62.9619 35.8895 63.104 36.2812L63.2563 36.6504C63.4298 37.0344 63.6567 37.45 63.8413 37.7734C63.9703 37.9994 64.0899 38.2005 64.1772 38.3447C64.221 38.4169 64.2575 38.4758 64.2827 38.5166C64.2951 38.5366 64.3051 38.5525 64.312 38.5635C64.3154 38.569 64.3179 38.5741 64.3198 38.5771C64.3207 38.5785 64.3222 38.5802 64.3228 38.5811L64.3237 38.582C64.3252 38.5845 64.3274 38.5881 64.3296 38.5918C64.3375 38.6051 64.3491 38.6259 64.3638 38.6514C64.3888 38.695 64.4195 38.7514 64.4507 38.8115C64.4294 38.8284 64.4106 38.8467 64.3921 38.8604C64.3718 38.8752 64.3551 38.8868 64.3452 38.8936C64.3425 38.8954 64.34 38.8973 64.3384 38.8984C64.3314 38.9029 64.3237 38.9084 64.3169 38.9131C64.3163 38.9135 64.3151 38.9143 64.314 38.915C64.3114 38.9168 64.3065 38.9193 64.3013 38.9229C64.2906 38.9301 64.2744 38.9418 64.2534 38.9561C64.211 38.9848 64.1481 39.0271 64.0679 39.0811C63.9067 39.1895 63.674 39.3453 63.3911 39.5322C62.8243 39.9068 62.0556 40.4064 61.2485 40.9082C59.463 42.0196 57.6067 43.0762 57.2378 43.3008C56.9853 43.4547 56.6038 43.6477 56.1411 43.877C55.9191 43.9869 55.6811 44.1043 55.4429 44.2236L54.7427 44.585C53.0485 45.4963 52.478 47.2774 52.5122 49.043C52.5346 50.1713 52.641 50.7268 52.8091 51.4971C52.9575 52.1787 53.0286 52.7803 53.0142 53.9395C52.9967 55.3236 52.8401 56.3504 52.2769 57.2217C51.5695 58.317 50.6858 58.8641 49.8765 59.0518C49.5435 59.1289 49.1291 59.2082 48.7896 59.2695C48.6218 59.2998 48.4747 59.3251 48.3706 59.3428C48.3189 59.3516 48.2767 59.3586 48.2485 59.3633C48.2351 59.3655 48.2243 59.368 48.2173 59.3691C48.2142 59.3696 48.2112 59.3699 48.2095 59.3701H48.2065L34.0239 61.6465H34.0229L33.3892 57.6963L47.564 55.4219C47.5648 55.4217 47.5662 55.4221 47.5679 55.4219C47.5728 55.4211 47.5816 55.4189 47.5933 55.417C47.6168 55.4131 47.6533 55.4073 47.6997 55.3994C47.7932 55.3835 47.926 55.3604 48.0776 55.333C48.3324 55.287 48.5968 55.2347 48.813 55.1885C48.836 55.1619 48.8669 55.1223 48.9038 55.0664C48.9096 55.0494 48.9212 55.0161 48.9331 54.959C48.9709 54.7772 49.0059 54.466 49.0132 53.8887C49.0245 52.9749 48.9718 52.6821 48.8989 52.3477C48.6951 51.4134 48.5413 50.5864 48.5122 49.1221V49.1201C48.4625 46.5622 49.3072 42.9669 52.8472 41.0625C53.3701 40.781 53.961 40.4929 54.3647 40.293C54.5875 40.1826 54.768 40.0921 54.9185 40.0137C54.9916 39.9756 55.0489 39.9449 55.0923 39.9209C55.1327 39.8985 55.1519 39.8865 55.1548 39.8848L55.1577 39.8838C55.3463 39.769 56.0298 39.3729 56.6821 38.9893C57.4133 38.5592 58.3022 38.03 59.1333 37.5127L59.1353 37.5117C59.1799 37.484 59.2237 37.4545 59.2681 37.4268C59.0333 36.7131 58.9356 36.0698 58.8901 35.6709C58.8627 35.4306 58.8482 35.2236 58.8403 35.0664C58.8363 34.9869 58.834 34.9173 58.8325 34.8604C58.8318 34.8321 58.8309 34.8066 58.8306 34.7842C58.8304 34.7729 58.8307 34.7618 58.8306 34.752C58.8305 34.7472 58.8296 34.7427 58.8296 34.7383V34.7266C58.8296 34.7258 58.8406 34.7249 62.8306 34.708V34.7148ZM5.08838 40.9336C5.08857 40.9365 5.089 40.9396 5.08936 40.9424C5.09035 40.9502 5.09126 40.958 5.09229 40.9658C5.09443 40.982 5.09683 40.9986 5.09912 41.0146L5.08838 40.9336ZM92.4976 4.24805C92.5088 4.2484 92.5219 4.24851 92.5356 4.24902C92.563 4.25005 92.5955 4.25111 92.6323 4.25293C92.7065 4.2566 92.801 4.26201 92.9106 4.27051C93.1256 4.28719 93.4228 4.31732 93.7642 4.37109C94.278 4.45205 95.5571 4.67886 96.7671 5.43555L97.0337 5.60938C98.3627 6.51161 99.6003 7.87781 100.416 9.07227C100.463 9.14192 100.515 9.21325 100.568 9.28418C101.278 8.97021 102.365 8.53334 103.245 8.18945C104.154 7.83414 105.471 7.32701 105.977 7.18652C105.888 7.21119 106.525 7.01401 107.128 6.89941C107.813 6.76944 108.58 6.69826 109.49 6.7041L109.493 6.70312L109.492 6.7041C114.325 6.7349 120.048 10.689 120 17.8867C119.947 25.7288 113.16 29.9277 108.05 29.9814C103.4 30.0301 99.8162 27.8676 97.0269 25.9082C94.9824 24.4732 93.9427 23.6357 92.4722 22.3301C91.5825 21.5402 90.5788 20.7269 89.5903 19.9717L89.5884 19.9707C89.0097 19.5282 88.4468 19.1298 87.9409 18.7871C87.7761 19.0099 87.6062 19.2403 87.4351 19.4717C86.9549 20.1207 86.4671 20.779 86.0796 21.2988C85.7627 21.7239 85.3577 22.2674 85.1587 22.5039C84.7519 22.9874 83.3347 24.5822 81.4214 25.498L81.4194 25.499C80.2058 26.0791 78.9642 26.3945 77.3911 26.3945C77.2195 26.3945 76.7054 26.3877 76.147 26.3818C75.5462 26.3755 74.7946 26.3687 74.0356 26.3682C73.2705 26.3676 72.5267 26.373 71.9331 26.3887C71.6347 26.3965 71.4057 26.407 71.2476 26.417C71.245 26.4171 71.2422 26.4168 71.2397 26.417C70.9783 26.485 70.6221 26.6326 70.2358 26.8848C70.0295 27.0195 69.8492 27.1604 69.7075 27.2881C69.6379 27.3509 69.5833 27.4058 69.5435 27.4482C69.524 27.469 69.5097 27.4861 69.4995 27.498C69.4904 27.5087 69.4855 27.5147 69.4849 27.5156C69.1181 27.9931 69.009 28.1899 68.9692 28.2744C68.9553 28.304 68.9529 28.3134 68.9526 28.3145C68.9517 28.3181 68.9432 28.3482 68.938 28.4199V28.4238C68.9377 28.4284 68.932 28.5258 68.9243 28.7637C68.9172 28.9826 68.9109 29.2619 68.9038 29.5859C68.8897 30.2328 68.8767 31.0207 68.8657 31.79C68.8547 32.5578 68.8455 33.2991 68.8394 33.8486C68.8369 34.0653 68.835 34.252 68.8335 34.3984C68.8837 34.4942 68.9541 34.6285 69.0513 34.7988C69.148 34.9684 69.2402 35.1232 69.3081 35.2354C69.3416 35.2906 69.3684 35.334 69.3853 35.3613C69.3935 35.3747 69.3997 35.3847 69.4028 35.3896L69.4048 35.3926L69.4214 35.4199L66.02 37.5234L66.0171 37.5176L66.0151 37.5156C66.0139 37.5136 66.0119 37.5101 66.0093 37.5059C66.0037 37.4969 65.9949 37.4827 65.9839 37.4648C65.9615 37.4286 65.9284 37.375 65.8882 37.3086C65.8073 37.1751 65.6968 36.9893 65.5786 36.7822C65.3924 36.4559 65.2091 36.115 65.0854 35.8438L64.9839 35.5986C64.9158 35.4108 64.8744 35.1871 64.8521 34.9912C64.8414 34.8976 64.8362 34.8189 64.8335 34.7656C64.8322 34.7394 64.8318 34.7195 64.8315 34.708C64.8314 34.7026 64.8306 34.6979 64.8306 34.6963C64.8307 34.6855 64.8313 34.6698 64.8315 34.6494C64.832 34.6073 64.8327 34.545 64.8335 34.4658C64.8351 34.3073 64.8372 34.0796 64.8403 33.8037C64.8466 33.2517 64.8556 32.5065 64.8667 31.7334C64.8891 30.1639 64.9193 28.5433 64.9497 28.1299L64.9702 27.9141C65.0922 26.8551 65.5282 26.1008 66.313 25.0791C67.07 24.0937 68.7694 22.8206 70.5688 22.4668C70.7117 22.4388 71.1457 22.4087 71.8296 22.3906C72.4764 22.3736 73.2619 22.3676 74.0405 22.3682C74.8179 22.3688 75.5837 22.3755 76.1899 22.3818C76.7878 22.3881 77.2483 22.3945 77.3921 22.3945C78.3516 22.3944 79.0061 22.2193 79.6958 21.8896C80.8088 21.3567 81.7743 20.3147 82.0991 19.9287C82.2785 19.7154 83.2793 18.3645 84.2202 17.0928C84.701 16.443 85.1784 15.7967 85.5503 15.2949C85.736 15.0443 85.895 14.8304 86.0142 14.6709C86.0738 14.5911 86.1236 14.5256 86.1606 14.4766C86.1791 14.4521 86.1932 14.4318 86.2046 14.417C86.2165 14.4015 86.2222 14.3955 86.2222 14.3955L86.2212 14.3945C86.3704 14.21 86.5488 14.0277 86.7251 13.8975C86.9116 13.7598 87.0116 13.7438 87.0249 13.7432L87.2378 13.7471C87.2848 13.7516 87.3132 13.7581 87.3354 13.7646C87.4053 13.7852 87.5055 13.8282 87.771 13.9707C88.253 14.2295 90.0599 15.2938 92.019 16.792L92.02 16.7939C93.0653 17.5926 94.1483 18.4686 95.1284 19.3389C96.4818 20.5405 97.4021 21.2832 99.3276 22.6348C101.98 24.4976 104.681 26.0173 108.009 25.9824C111.43 25.9462 115.966 23.0571 116 17.8594C116.032 13.1403 112.369 10.7215 109.466 10.7031C108.067 10.694 107.43 10.9347 107.047 11.041C106.794 11.1113 105.736 11.5109 104.702 11.915C103.645 12.3282 102.473 12.8014 101.957 13.0449C101.143 13.4286 99.9203 13.5289 99.1831 13.2969C98.9003 13.2078 98.5367 12.9653 98.1353 12.5713C97.7476 12.1908 97.3911 11.7348 97.1128 11.3271C96.4542 10.3622 95.4762 9.34672 94.647 8.82812L94.6479 8.82715C94.1505 8.51578 93.5381 8.38455 93.1431 8.32227C92.9289 8.28852 92.7386 8.26939 92.6021 8.25879C92.5336 8.25348 92.4768 8.25007 92.436 8.24805C92.4161 8.24706 92.3994 8.24655 92.3872 8.24609C92.3813 8.24587 92.3755 8.24527 92.3716 8.24512H92.3618C92.4631 4.41663 92.4683 4.25395 92.4692 4.24707H92.4819C92.4868 4.24721 92.4921 4.24786 92.4976 4.24805ZM75.8052 4.22168C77.6441 4.22168 78.9391 5.10602 79.6265 5.75098C79.7243 5.84273 79.8144 5.9368 79.8999 6.02832C80.4549 5.72419 81.0268 5.41373 81.3042 5.27637L81.314 5.27148C81.7497 5.0569 83.0127 4.45294 84.6987 4.32031L85.3091 4.2793C85.492 4.26901 85.6539 4.26186 85.7896 4.25684C85.9254 4.25181 86.0368 4.24875 86.1196 4.24707C86.1609 4.24623 86.1953 4.24643 86.2222 4.24609C86.2355 4.24592 86.2477 4.24521 86.2573 4.24512H92.3354C92.3793 4.24512 92.4234 4.24591 92.4673 4.24707L92.3618 8.24512H86.2739C86.2569 8.24534 86.2323 8.24548 86.2017 8.24609C86.1396 8.24735 86.0501 8.24976 85.938 8.25391C85.7135 8.26221 85.3947 8.27861 85.0132 8.30859C84.091 8.38114 83.3747 8.71645 83.0825 8.86035L83.0806 8.86133C82.75 9.02501 81.6646 9.61572 80.981 10C80.3636 10.3452 79.8588 10.6727 79.2798 10.6885L79.1636 10.6875L79.0405 10.6729C78.7452 10.6147 78.3875 10.3984 78.0161 10.0449C77.8213 9.85946 77.6547 9.66578 77.5298 9.50684C77.468 9.42825 77.4177 9.36029 77.3813 9.30859C77.3448 9.25656 77.3264 9.22729 77.3247 9.22461L77.1587 8.97461C77.0865 8.87639 76.997 8.7683 76.8901 8.66797C76.6658 8.45754 76.3015 8.22182 75.8062 8.22168C75.5592 8.22169 75.292 8.25015 74.9956 8.38379C74.7498 8.49477 74.527 8.66165 74.3286 8.81445C74.0227 9.05007 73.2226 9.49423 72.3931 9.76367L72.3921 9.76465C71.8202 9.95044 71.1405 10.0488 70.2231 10.2031C69.3395 10.3518 68.3091 10.5428 67.1958 10.9219C66.2974 11.227 65.5942 11.7236 64.8618 12.3086C64.5894 12.5262 64.108 12.7774 63.6284 12.9922C63.4016 13.0937 63.1953 13.1784 63.0464 13.2373C62.9725 13.2665 62.9126 13.2896 62.8726 13.3047C62.8636 13.3081 62.8551 13.3109 62.8481 13.3135L59.3354 14.3457C59.3219 14.3497 59.3078 14.3538 59.2944 14.3584L59.2925 14.3594C59.2838 14.3621 59.2669 14.3677 59.2437 14.374C59.196 14.3869 59.1227 14.4048 59.0347 14.4199C58.8488 14.4518 58.6423 14.4639 58.4644 14.4336C58.3579 14.4152 58.2666 14.3821 58.2046 14.3545C58.1804 14.3437 58.1619 14.334 58.1509 14.3281C58.1415 14.3216 58.1296 14.3137 58.1167 14.3047C58.0765 14.2767 58.0199 14.2375 57.9575 14.1943L57.5649 13.9277L57.3735 13.8174C56.9239 13.5939 56.4552 13.5997 56.0103 13.6934L55.8735 13.7305C55.5704 13.83 55.3654 14.0229 55.2495 14.1553C55.1093 14.3156 55.0118 14.4881 54.9487 14.6152C54.9426 14.6276 54.937 14.6402 54.9312 14.6523C54.9278 14.6499 54.9236 14.6479 54.9204 14.6455C54.9017 14.6313 54.8871 14.6193 54.8784 14.6123C54.8745 14.6092 54.8718 14.6065 54.8706 14.6055C54.8676 14.6029 54.8639 14.6002 54.8608 14.5977L54.4888 15.0537H54.4878L54.7778 14.6982C54.8483 14.6111 54.8586 14.5985 54.8599 14.5967L54.8579 14.5957C54.8567 14.5947 54.8547 14.5931 54.853 14.5918C54.8495 14.589 54.8446 14.5852 54.8394 14.5811C54.8287 14.5726 54.8141 14.5615 54.7964 14.5479C54.7607 14.5204 54.7108 14.4819 54.647 14.4355C54.519 14.3428 54.3341 14.2151 54.0952 14.0645C53.6172 13.763 52.919 13.368 52.0151 12.9766C50.2058 12.1931 47.5689 11.4214 44.2251 11.4336C42.4343 11.4405 40.9093 11.4819 39.2026 11.792C37.495 12.1023 35.6431 12.6737 33.1616 13.7031C31.4023 14.433 29.0488 15.7433 27.1704 16.8457C26.224 17.4012 25.3839 17.9119 24.7808 18.2842C24.4795 18.4701 24.2366 18.6222 24.0688 18.7275C23.9854 18.7799 23.9198 18.8216 23.8755 18.8496C23.8537 18.8634 23.8362 18.8745 23.8247 18.8818C23.8203 18.8846 23.8158 18.8869 23.813 18.8887L8.89111 27.9717L8.88232 27.9756L6.76904 24.5801C6.78283 24.5715 6.79717 24.5631 6.81104 24.5547L21.7241 15.4766C21.7277 15.4743 21.7319 15.4722 21.7358 15.4697C21.7837 15.4395 21.8524 15.3958 21.9399 15.3408C22.1154 15.2306 22.3678 15.0731 22.6792 14.8809C23.3008 14.4972 24.1666 13.9697 25.145 13.3955C27.0255 12.2919 29.5883 10.8548 31.6274 10.0088C34.2744 8.91061 36.4106 8.23372 38.4868 7.85645C40.5583 7.48007 42.3766 7.44065 44.2085 7.43359C48.1876 7.41904 51.3704 8.33899 53.603 9.30566C54.0411 9.49538 54.4433 9.6881 54.8081 9.875C54.9285 9.84036 55.0526 9.80742 55.1812 9.78027C56.1647 9.57264 57.6395 9.48231 59.147 10.2324L61.5571 9.52344C61.5627 9.52127 61.5689 9.51987 61.5747 9.51758C61.683 9.47477 61.8322 9.41265 61.9927 9.34082C62.4419 9.13971 62.518 9.06041 62.3638 9.18359C63.1929 8.52125 64.3353 7.67077 65.9058 7.13672C67.3361 6.64972 68.6269 6.41558 69.5591 6.25879C70.6602 6.07358 70.9426 6.02882 71.1548 5.95996H71.1567C71.3254 5.90521 71.5381 5.81562 71.7397 5.71289C71.8353 5.66419 71.9068 5.62311 71.9487 5.59766C72.001 5.56589 71.9714 5.57992 71.8862 5.64551C72.0567 5.51417 72.6207 5.06675 73.3481 4.73828C74.3294 4.29525 75.2083 4.2217 75.8052 4.22168ZM109.077 16.7139C109.045 16.7166 109.022 16.719 109.01 16.7207C109.004 16.7215 109 16.7222 108.998 16.7227H108.996C108.995 16.7229 108.993 16.724 108.991 16.7246C108.988 16.7254 108.983 16.7265 108.975 16.7285C108.956 16.7337 108.934 16.7401 108.88 16.7559C108.858 16.7625 108.819 16.7736 108.772 16.7871C108.836 16.767 108.836 16.764 108.717 16.8066C108.613 16.8441 108.463 16.9002 108.272 16.9717C107.893 17.1137 107.4 17.3023 106.884 17.5039C105.779 17.9359 104.811 18.3322 104.515 18.4717C104.395 18.5282 104.271 18.5817 104.146 18.6338C105.782 19.644 106.874 19.9937 107.946 19.9824C108.168 19.98 108.772 19.8279 109.302 19.3594C109.732 18.9798 109.995 18.5079 110 17.8193C110.002 17.4499 109.935 17.2394 109.89 17.1348C109.843 17.0258 109.784 16.948 109.718 16.8857C109.646 16.8173 109.558 16.7626 109.474 16.7285C109.435 16.7128 109.408 16.706 109.395 16.7031C109.24 16.7029 109.137 16.7087 109.077 16.7139ZM74.896 15.2363C74.6785 15.3199 74.4611 15.3994 74.2446 15.4697C73.133 15.8308 71.858 16.0123 71.2173 16.1201C70.4163 16.2549 69.783 16.3823 69.1528 16.5947C69.1356 16.6049 69.1074 16.6235 69.0649 16.6523C69.1789 16.6263 69.2936 16.6017 69.4087 16.5791L69.6958 16.5303C70.3866 16.4274 71.1991 16.405 71.6704 16.3926C72.3971 16.3734 73.2444 16.3676 74.0435 16.3682C74.8491 16.3688 75.6374 16.3763 76.2524 16.3828C76.5595 16.386 76.8277 16.3893 77.0298 16.3916C77.0841 16.3922 77.1334 16.3921 77.1772 16.3926C77.1801 16.39 77.1831 16.3874 77.186 16.3848C76.2578 16.1016 75.4877 15.6607 74.896 15.2363ZM54.7212 15.2666C54.7217 15.2628 54.7226 15.2586 54.7231 15.2549C54.7242 15.2474 54.7258 15.2397 54.7271 15.2324C54.7295 15.2179 54.7317 15.2033 54.7349 15.1895C54.7367 15.1813 54.7395 15.1732 54.7417 15.165L54.7212 15.2666ZM54.4878 15.0537L54.4868 15.0547L50.897 14.0557L50.8979 14.0537C50.9204 14.0609 51.1949 14.1372 54.4878 15.0537ZM50.7749 14.6279C50.7739 14.6276 50.7729 14.6273 50.772 14.627C50.7754 14.6053 50.779 14.5835 50.7827 14.5615C50.7881 14.5301 50.7951 14.4982 50.8013 14.4658C50.7911 14.5196 50.7836 14.5739 50.7749 14.6279ZM55.0239 14.3945V14.3965L55.9233 13.2949L55.9224 13.292C55.6691 13.6025 55.3725 13.9674 55.0239 14.3945ZM50.8208 14.3691C50.8257 14.3461 50.8291 14.3223 50.8345 14.2988C50.8438 14.258 50.8557 14.2164 50.8667 14.1738C50.8503 14.2387 50.8345 14.3037 50.8208 14.3691ZM55.9233 13.29L55.9243 13.293L57.3892 11.499C57.3879 11.498 57.3864 11.497 57.3853 11.4961C57.3865 11.4971 57.3863 11.4968 55.9233 13.29Z" fill="#15151E"/>
</svg>
