<svg width="121" height="85" viewBox="0 0 121 85" fill="none" xmlns="http://www.w3.org/2000/svg">
<path d="M113.875 58.0591C113.025 57.2393 105.742 51.699 103.006 49.6327C102.998 49.6263 102.99 49.62 102.982 49.6136C102.958 49.5944 100.483 47.6048 98.249 46.5997C95.9754 45.5738 94.8898 45.5002 94.1699 45.4523L82.1249 44.5303C82.096 44.5287 82.0656 44.5239 82.0367 44.5191C81.5573 44.4392 80.8598 44.404 80.6305 44.4823C80.4445 44.5462 80.39 44.6165 80.3146 44.7156C80.2777 44.7652 80.2441 44.8067 80.2152 44.8387C80.1992 44.8562 80.1831 44.8722 80.1671 44.8882L76.7309 48.2313C76.7053 48.2568 76.678 48.2792 76.6492 48.3016C76.5129 48.4071 75.8026 48.9408 75.1227 49.1246C74.5278 49.2844 74.042 49.2508 73.6523 49.222C73.585 49.2173 73.5177 49.2125 73.4487 49.2093C73.4439 49.2093 73.4375 49.2093 73.4327 49.2093L67.508 48.789C67.2017 48.7794 64.2947 48.6723 61.835 47.95C59.1012 47.1478 56.7217 46.1299 53.9926 43.7712C51.852 41.9207 50.2807 39.9951 49.0444 37.7083C47.2486 34.3876 46.2064 29.1844 46.1631 28.9639C46.1534 28.9176 45.1256 23.919 43.4468 21.1544C41.7568 18.3722 36.5777 13.845 36.5264 13.7987C36.4927 13.7683 36.4607 13.7364 36.4302 13.7028C36.1143 13.3976 33.8968 11.3505 30.8711 10.8919C27.6113 10.3981 25.4996 11.3345 23.7022 12.4212C23.3093 12.6577 23.0014 12.8558 22.7289 13.0316C21.7331 13.6708 21.2345 13.9904 19.5541 14.366C17.8945 14.7367 16.6342 14.5465 15.8004 14.4219C15.5759 14.3883 15.3819 14.3596 15.244 14.35C15.1815 14.3468 15.1414 14.35 15.1174 14.3516C15.0725 14.4187 15.0067 14.5705 14.9827 14.6249C14.9378 14.7287 14.8432 14.986 14.7454 15.2593C14.4295 16.1334 13.8987 17.5956 13.2686 18.7126C12.5711 19.9479 12.2216 20.496 11.2948 21.8671L11.1056 22.1467C10.2958 23.3453 9.45724 24.5853 8.79983 25.7806C8.24985 26.7826 7.96123 27.7079 7.76882 28.3199C7.73034 28.4414 7.69666 28.5516 7.6646 28.6475C7.56999 28.9351 7.4337 29.3858 7.26213 29.9547C6.94305 31.0094 6.50531 32.4556 6.01306 33.9258C5.52241 35.388 5.87997 35.8706 6.11728 36.1886C6.15897 36.2445 6.19745 36.2972 6.22952 36.3436L12.3274 44.257C12.7074 44.5766 13.0666 45.1758 13.0217 46.002C12.9832 46.7004 12.5503 47.3092 12.2953 47.6096C12.1141 47.8238 9.5342 50.4445 8.38293 51.6127C8.26588 51.7757 8.15204 52.0202 8.15685 52.1145C8.1825 52.2055 8.3669 52.4325 8.47433 52.4916C8.50159 52.5044 8.56733 52.5363 8.66354 52.5827C11.2659 53.8451 13.6149 54.8838 15.6465 55.6733C19.041 56.9916 21.7283 57.7043 24.4109 58.3771C26.9491 59.0147 30.4141 59.729 36.8776 60.2069C36.9834 60.2148 39.496 60.4194 41.5051 62.361C43.2352 64.0341 43.6793 65.6225 43.8734 66.8211C43.907 67.024 43.9166 67.2142 43.9247 67.382C43.9311 67.5002 43.9407 67.6712 43.9599 67.7479C43.9952 67.7671 44.0834 67.8055 44.2662 67.839L88.1266 74.1768C88.1266 74.1768 88.1426 74.1784 88.1506 74.18C88.1554 74.18 88.8802 74.2998 89.5648 74.2247C89.8294 74.1959 90.4131 73.8811 90.6584 73.635C91.226 73.0661 91.4168 72.5979 91.5098 71.5496C91.614 70.3799 91.9091 67.1918 91.9091 67.1918C91.9123 67.1551 91.9187 67.1167 91.9267 67.0799C91.954 66.9505 92.1207 66.2873 92.706 65.9054C93.0427 65.6849 93.5895 65.4707 94.2789 65.6881C94.853 65.8686 99.4019 67.5833 104.039 69.803C104.336 69.942 105.107 70.1929 105.566 70.0651C106.454 69.819 106.94 69.6304 107.557 68.9768C107.751 68.7723 108.155 68.2161 108.622 67.5705C109.269 66.6772 110.156 65.4516 111.186 64.1923C111.593 63.6953 112.04 63.2063 112.475 62.7349C113.166 61.9823 113.881 61.204 114.428 60.3842C114.461 60.3347 114.498 60.2883 114.54 60.2452C114.795 59.9847 115.064 59.63 115.181 59.4142C114.941 59.085 114.288 58.457 113.876 58.0607L113.875 58.0591ZM105.625 66.3065C105.673 66.3273 105.7 66.3433 105.703 66.3449C105.678 66.3321 105.65 66.3193 105.625 66.3065ZM109.635 60.1429C109.165 60.6559 108.678 61.1848 108.2 61.7697C107.102 63.1153 106.176 64.3921 105.501 65.3237C105.339 65.5474 105.155 65.8015 105.001 66.0109C100.364 63.8344 96.0491 62.2204 95.4414 62.0302C93.7787 61.5044 92.0598 61.741 90.5958 62.695C88.8433 63.8392 88.3093 65.5842 88.1602 66.2809C88.1217 66.4647 88.0929 66.6501 88.0752 66.837C88.0752 66.837 87.8908 68.8298 87.7626 70.2456L47.2454 64.3905C46.7884 62.9714 45.929 61.2903 44.1828 59.6044C41.2934 56.8127 37.8252 56.4275 37.1614 56.3796C30.9914 55.9241 27.7284 55.253 25.3505 54.6553C22.7914 54.0129 20.2307 53.3338 17.0431 52.0969C16.3793 51.8396 15.4894 51.4769 14.375 50.9911C15.0789 50.2672 15.1623 50.1697 15.2344 50.085C15.9271 49.27 16.7721 47.9356 16.8651 46.2098C16.9725 44.2394 16.1949 42.7053 15.2088 41.697L9.81159 34.6944C10.2606 33.3313 10.6534 32.0337 10.9468 31.0605C11.1056 30.5364 11.2435 30.0825 11.3236 29.838C11.3605 29.7246 11.4006 29.5983 11.4439 29.4561C11.6074 28.9335 11.8095 28.2848 12.1735 27.62C12.7459 26.5781 13.4995 25.4642 14.2964 24.2865L14.4856 24.0052C15.4028 22.6469 15.8245 22.0013 16.6198 20.5903C17.0158 19.8903 17.3622 19.1265 17.6556 18.4138C18.4525 18.4106 19.3729 18.3323 20.3959 18.1037C22.5846 17.6148 23.5242 17.0778 24.8117 16.2516C25.0763 16.0822 25.3489 15.9065 25.6984 15.6955C26.9379 14.9461 28.1389 14.3532 30.2939 14.6792C31.8235 14.9109 33.2057 15.9432 33.6867 16.3891C33.7845 16.4913 33.8872 16.5888 33.993 16.6815C35.9732 18.409 39.1929 21.5523 40.155 23.1359C41.1299 24.7419 42.0438 28.0243 42.3902 29.7166C42.5249 30.3957 43.6393 35.7939 45.6548 39.522C47.0979 42.1939 48.9995 44.5303 51.4688 46.6636C54.9146 49.6423 57.9643 50.8089 60.7463 51.6255C63.5106 52.4373 66.5924 52.5907 67.306 52.6162L73.1585 53.0317C73.1857 53.0333 73.213 53.0349 73.2403 53.0365C73.2852 53.0397 73.3301 53.0429 73.3766 53.0461C73.9105 53.0845 74.903 53.1564 76.1297 52.824C77.3996 52.4804 78.4803 51.7389 79.0126 51.3266C79.1537 51.2164 79.29 51.0997 79.4183 50.9735L82.0928 48.3719L93.8668 49.2732C93.8797 49.2732 93.8941 49.2748 93.9069 49.2764C94.3767 49.3083 95.0197 49.3515 96.6632 50.093C98.1288 50.7529 99.9743 52.1225 100.558 52.5907C100.598 52.6242 100.64 52.6562 100.681 52.6866C104.146 55.3041 107.961 58.2253 109.948 59.7962C109.845 59.9096 109.739 60.0231 109.633 60.1397L109.635 60.1429Z" fill="#15151E"/>
<path d="M117.888 53.925C116.775 52.8512 110.333 47.95 106.55 45.0912C106.016 44.6661 103.342 42.5807 100.63 41.3598C97.8145 40.0893 96.0603 39.8161 94.5884 39.7154L82.7631 38.8109C81.6535 38.6447 80.1318 38.5728 78.7593 39.0426C77.6449 39.423 76.6989 40.0686 75.9372 40.9683L73.3974 43.4388L67.9008 43.0489C67.8303 43.0441 67.7677 43.0409 67.6972 43.0393C67.027 43.0185 64.9617 42.8699 63.4673 42.4305C61.2947 41.7928 59.7441 41.1249 57.7767 39.4246C55.681 37.6124 54.6917 36.0208 54.1289 34.9773C52.9889 32.8679 52.0813 29.1141 51.8296 27.8501C51.8296 27.8421 51.8264 27.8357 51.8248 27.8277C51.7013 27.2141 50.5485 21.7297 48.3886 18.1741C46.4116 14.9189 41.7568 10.7193 40.4853 9.60227C39.7317 8.86558 36.4607 5.91723 31.7434 5.20131C26.6204 4.42467 23.157 6.0211 20.7117 7.49767C20.2532 7.77413 19.8956 8.00424 19.607 8.18962C19.1847 8.46021 18.7465 8.64665 18.2922 8.74892C17.6893 8.88316 17.2596 8.81924 16.6663 8.72975C16.3472 8.68181 15.9848 8.62747 15.5824 8.6035C14.3349 8.52999 11.2659 8.74733 9.69775 12.3109C9.57429 12.5906 9.46686 12.8894 9.31774 13.3017C9.06279 14.0064 8.63467 15.1874 8.24023 15.8873C7.6197 16.9867 7.35834 17.3926 6.50852 18.6519L6.32092 18.9283C5.43742 20.2339 4.52507 21.5842 3.73939 23.0129C2.91201 24.5198 2.4871 25.8781 2.25942 26.6084C2.23056 26.6995 2.2049 26.7826 2.17925 26.8593C2.0654 27.2093 1.92109 27.6855 1.7383 28.2895C1.42884 29.3107 1.00553 30.709 0.540535 32.0992C-0.415112 34.9485 -0.100839 37.4702 1.47053 39.594C1.52184 39.6691 1.57635 39.7442 1.63087 39.8161L6.14294 45.6696C5.54325 46.2801 4.86821 46.9656 4.22523 47.6192C4.10978 47.7359 4.00075 47.8589 3.89813 47.9868C3.42992 48.5701 1.94675 50.6794 2.51276 53.3002C2.90881 55.1475 4.27654 56.867 5.99382 57.6804L6.13973 57.7507C8.8816 59.0803 11.3765 60.1829 13.5508 61.0282C17.2515 62.4665 20.25 63.2607 23.0014 63.951C25.7642 64.6446 29.5082 65.4212 36.3436 65.931C36.4767 65.9566 37.0732 66.086 37.4853 66.4855C38.0144 66.9969 38.0978 67.2813 38.1587 67.6361V67.6808C38.1924 68.2689 38.2565 69.4914 39.0454 70.7698C39.6724 71.7861 40.915 73.0853 43.2753 73.5008C43.3234 73.5088 43.3731 73.5168 43.4212 73.5248L87.2543 79.8577C87.5589 79.9057 88.2372 79.9968 89.0662 79.9968C89.4189 79.9968 89.8005 79.9808 90.1918 79.9376C92.1063 79.7283 93.8444 78.5921 94.7503 77.6828C96.3361 76.0912 96.9022 74.4708 97.1395 73.007C98.4783 73.5759 99.9968 74.2487 101.541 74.9886C102.213 75.3082 104.6 76.3006 107.111 75.6038C108.593 75.1915 110.182 74.5827 111.747 72.9287C112.202 72.4493 112.638 71.8469 113.299 70.936C113.939 70.0523 114.736 68.9528 115.659 67.823C115.961 67.4555 116.334 67.048 116.729 66.6165C117.449 65.8335 118.253 64.9562 118.985 63.9223C120.291 62.4776 120.968 60.9755 120.995 59.4542C121.043 56.9645 119.437 55.4176 117.885 53.9234L117.888 53.925ZM36.3693 65.9358C36.3965 65.9374 36.4254 65.9406 36.4527 65.9422C36.4527 65.9422 36.4238 65.9422 36.3693 65.9358ZM115.978 61.5172C115.359 62.4297 114.614 63.2415 113.892 64.0277C113.458 64.5007 113.047 64.9466 112.677 65.402C111.683 66.6181 110.85 67.7687 110.182 68.6924C109.633 69.4514 109.236 69.9979 108.955 70.2936C107.983 71.3211 107.078 71.6343 106.082 71.9108C104.804 72.2655 103.366 71.6072 103.207 71.5304C98.706 69.3763 94.5756 67.823 93.8075 67.5514C93.7434 68.2497 93.5157 70.7187 93.4259 71.7158C93.3137 72.9767 93.0395 73.9626 92.0229 74.9822C91.529 75.4776 90.5525 76.0417 89.7749 76.1264C89.5376 76.1519 89.3003 76.1615 89.079 76.1615C88.4504 76.1615 87.9357 76.0832 87.8411 76.0672L43.9744 69.7295C43.9648 69.7295 43.9551 69.7263 43.9455 69.7247C42.1064 69.4019 42.0374 68.1027 42.0054 67.4779C41.9989 67.3468 41.9925 67.2238 41.9749 67.1215C41.8113 66.11 41.4794 65.0009 40.1662 63.7321C38.6734 62.2891 36.7509 62.1149 36.7317 62.1133C30.1255 61.6259 26.5595 60.8876 23.9411 60.2308C21.3066 59.5692 18.4429 58.8102 14.9474 57.4535C12.8693 56.6465 10.4706 55.5854 7.82173 54.3006C7.73515 54.259 7.67422 54.2287 7.64375 54.2143C7.10339 53.9586 6.43957 53.2698 6.27442 52.4964C6.05956 51.4976 6.76026 50.558 6.90296 50.379C6.92381 50.3535 6.94465 50.3295 6.9687 50.3055C8.3653 48.8897 10.6486 46.5645 10.8346 46.3568C11.0222 46.1347 11.0975 45.9461 11.1024 45.8902C11.1088 45.7783 11.0863 45.7272 11.0751 45.7096C11.0013 45.6569 10.9372 45.5929 10.8811 45.521L4.68221 37.4782C4.66297 37.4542 4.64693 37.4286 4.62929 37.4031C4.61486 37.3807 4.59402 37.3535 4.57157 37.3232C4.21561 36.8438 3.38022 35.7204 4.18835 33.3121C4.67259 31.8691 5.10551 30.4389 5.42139 29.3954C5.59777 28.8153 5.73566 28.3567 5.83668 28.0466C5.86554 27.9572 5.89761 27.8565 5.93289 27.7446C6.14614 27.0591 6.47004 26.022 7.11301 24.8522C7.81371 23.5786 8.67636 22.3034 9.51015 21.0681L9.69775 20.79C10.6037 19.4477 10.9212 18.9523 11.5914 17.765C12.143 16.787 12.6401 15.4191 12.9351 14.6009C13.0602 14.2573 13.1499 14.0096 13.2205 13.8482C13.4354 13.3592 13.8811 12.3445 15.3563 12.4292C15.584 12.442 15.8181 12.4771 16.089 12.5187C16.8218 12.6289 17.8256 12.7807 19.134 12.4883C20.4809 12.1879 20.7855 11.9913 21.6898 11.4128C21.972 11.2323 22.2927 11.0261 22.7064 10.7752C24.7123 9.56232 27.2858 8.40215 31.1629 8.99022C35.0753 9.58309 37.7402 12.2853 37.8509 12.3988C38.4714 12.9421 43.3314 17.252 45.0936 20.154C46.9471 23.2062 48.0054 28.3631 48.0503 28.582C48.0615 28.6379 49.0813 33.7276 50.7377 36.791C51.8601 38.8669 53.2935 40.6231 55.2529 42.3154C57.7286 44.4551 59.8147 45.3516 62.3786 46.1043C64.6795 46.7803 67.5545 46.8666 67.5833 46.8666C67.5978 46.8666 67.6106 46.8666 67.625 46.8682L73.5626 47.29C73.6395 47.2948 73.7149 47.2996 73.7918 47.3044C74.1125 47.3268 74.3418 47.3444 74.6208 47.2677C74.8357 47.2101 75.2125 46.972 75.4305 46.8106L78.7865 43.5459C78.9308 43.3573 79.2708 42.9146 80.0068 42.6622C80.7828 42.3969 81.9822 42.5615 82.3157 42.6142L94.311 43.5315C95.1079 43.5858 96.4548 43.6769 99.0427 44.8451C101.443 45.9253 103.956 47.9245 104.182 48.105C105.253 48.9136 114.129 55.6269 115.212 56.672C116.496 57.9089 117.166 58.5913 117.152 59.3727C117.136 60.1893 116.371 61.0954 115.98 61.5076L115.978 61.5172Z" fill="#15151E"/>
</svg>
