<svg width="121" height="85" viewBox="0 0 121 85" fill="none" xmlns="http://www.w3.org/2000/svg">
<path d="M115.207 18.245C115.207 18.245 115.201 18.2435 115.198 18.2419C115.171 18.2341 114.513 18.0314 113.159 17.5542C111.576 16.9976 111.309 15.8764 111.394 15.2527C111.405 14.7521 111.469 11.6412 111.438 10.6136C111.432 10.4078 111.292 10.2831 111.022 10.2441C111.015 10.2441 111.022 10.2441 111.008 10.2425C110.986 10.2394 108.773 9.96963 107.709 9.87607C106.872 9.80122 102.946 9.72637 100.987 9.69675L91.6131 9.664C91.4282 9.664 73.1175 9.59851 71.2367 9.61254C69.3701 9.62658 63.4081 9.91193 63.3486 9.91505L54.4134 10.2316C54.404 10.2316 54.3946 10.2316 54.3852 10.2316L49.0345 10.2643L35.0276 10.2035C34.827 10.2035 15.065 10.0913 13.3802 10.0772C12.1044 10.0647 11.4743 10.3033 10.744 10.5778C10.6029 10.6308 10.4619 10.6838 10.3161 10.7353C9.65002 10.9707 7.87271 12.6673 7.14549 13.7604C6.48722 14.749 6.22078 15.8312 5.73806 17.7959L5.72552 17.8505C5.6691 18.0782 5.52177 18.8079 5.87441 18.9592C6.47939 18.9592 9.11401 18.9592 9.8569 18.9265C10.4775 18.8999 11.2267 18.9919 11.7471 19.0746C12.0621 19.1245 12.3677 19.2165 12.6545 19.349C12.8661 19.4473 13.2767 19.6188 13.6795 19.6671C13.7156 19.6718 13.8096 19.6562 13.9601 19.572C14.1952 19.441 14.3911 19.2352 14.529 18.9748C14.96 18.1546 15.0901 17.93 15.1512 17.8334L15.1669 17.8068C15.3753 17.4716 15.9286 16.5797 17.1135 16.4814C17.4896 16.4518 18.0554 16.5282 18.6306 17.0584C19.0256 17.4217 19.3045 17.902 19.4362 18.4446C20.2465 21.7832 21.6398 27.5652 21.8749 28.7814C21.9956 29.4114 22.4454 29.5346 22.6758 29.5549C22.6868 29.5549 22.6993 29.5549 22.7103 29.5549C22.9187 29.5564 43.5333 29.7171 47.4374 29.7529C51.387 29.7888 53.5624 30.5965 53.7818 30.6823C54.0451 30.7805 60.877 33.3269 62.8047 34.0707C64.977 34.9081 65.6478 36.3006 65.77 36.5984C65.8515 36.7793 66.4189 38.0548 67.0583 39.8153C67.4737 40.9567 68.4172 41.1844 68.6413 41.2234C69.392 41.2281 76.4339 41.2702 77.9463 41.2561C77.9683 41.2561 77.9902 41.2561 78.0106 41.2561C79.7628 41.2561 81.6138 41.9329 81.6937 41.9625C81.7094 41.9688 81.7266 41.975 81.7423 41.9828C81.8442 42.0264 84.2421 43.0915 85.2358 45.549C85.9066 47.2066 87.3281 48.1889 87.557 48.3386C87.9143 48.5102 90.1602 49.5783 91.7228 50.174C93.544 50.8679 94.1286 52.2962 94.1866 53.0307C94.1882 53.0525 94.1897 53.0759 94.1897 53.0977C94.1944 53.9678 94.3198 74.4138 94.3026 75.4867C94.2963 75.903 94.3715 76.0995 95.1552 76.363C95.3777 76.4379 95.6034 76.2102 95.6426 76.1681C95.6708 76.1322 95.6834 76.1197 95.7194 76.087C95.92 75.8983 100.658 71.4589 101.609 70.5903C101.692 70.5139 101.717 70.4672 101.722 70.4547C101.722 70.4531 101.719 70.4438 101.714 70.4313C101.691 70.372 101.634 70.3206 101.564 70.2894C101.167 70.1194 99.1408 69.2524 98.2067 68.8345C96.8102 68.2108 96.7758 66.89 97.083 66.2039C97.0877 66.193 97.0939 66.1821 97.0986 66.1712C97.1315 66.1041 100.407 59.477 101.185 57.7508C101.967 56.0137 104.879 49.3849 104.908 49.3179C104.959 49.2009 110.145 37.2549 111.51 34.0879C112.847 30.9879 113.847 28.5881 114.546 25.9107C115.229 23.2895 115.364 19.8636 115.359 18.7658C115.358 18.4243 115.265 18.2778 115.212 18.2419L115.207 18.245ZM12.2799 15.3743C11.7502 15.2916 11.2534 15.2371 10.7941 15.2074C11.164 14.8067 11.6201 14.3685 11.9163 14.1409C11.968 14.1221 12.0198 14.1019 12.0715 14.0832C12.6686 13.8586 12.7752 13.8196 13.3488 13.8243C13.4491 13.8243 13.609 13.8259 13.8237 13.8274C13.2877 14.2063 12.7611 14.7084 12.2799 15.3758V15.3743ZM110.9 24.9751C110.269 27.3968 109.32 29.6687 108.049 32.6159C106.7 35.7439 101.617 47.4529 101.453 47.8334C101.333 48.1047 98.9355 53.5624 97.9638 55.7408C97.9559 54.431 97.9497 53.4735 97.9481 53.0759C97.9481 52.9636 97.9434 52.8498 97.934 52.7375C97.7757 50.7384 96.4059 47.9504 93.066 46.6779C91.9626 46.2585 90.3342 45.51 89.4863 45.1092C89.2606 44.9237 88.8891 44.5619 88.723 44.1518C87.2184 40.4359 83.8958 38.836 83.2438 38.5538C83.1638 38.5195 83.0823 38.4868 83.0008 38.4556C82.5651 38.295 80.2691 37.4919 77.9071 37.5153C76.7912 37.5262 72.5517 37.5044 70.1976 37.4919C69.7149 36.2382 69.32 35.3416 69.2134 35.103C68.7949 34.1346 67.4988 31.8721 64.1604 30.584C62.2311 29.8402 55.6939 27.403 55.1219 27.1894C54.4667 26.9383 51.8603 26.0542 47.4703 26.0136C44.3561 25.9856 30.6125 25.878 25.0675 25.8343C24.5565 23.6341 23.7682 20.361 23.0927 17.5745C22.7871 16.3083 22.1257 15.1794 21.1837 14.3139C21.0082 14.1518 20.8264 14.0036 20.6399 13.8648C26.7492 13.9007 34.4963 13.9444 35.0119 13.9475L49.0094 14.0083C49.0251 14.0083 49.0423 14.0083 49.0596 14.0083L54.4103 13.9756C54.4558 13.9756 54.5028 13.9756 54.5482 13.9724L63.4708 13.6559C63.4912 13.6559 63.51 13.6559 63.5304 13.6528C65.1776 13.5733 69.7807 13.3643 71.265 13.3534C73.1238 13.3394 91.4156 13.4048 91.6006 13.4048L100.957 13.4376C103.595 13.4781 106.791 13.5514 107.377 13.6013C107.463 13.6091 107.56 13.6185 107.664 13.6278C107.656 14.1175 107.646 14.5962 107.639 15.0032C107.443 17.2205 108.634 19.7389 111.505 20.9271C111.405 22.2416 111.215 23.7682 110.902 24.972L110.9 24.9751Z" fill="#15151E"/>
<path d="M120.997 18.7424C120.981 15.6316 119.052 13.6403 117.077 12.9495C117.089 11.9936 117.094 11.005 117.077 10.4483C116.973 7.02716 114.286 4.96104 111.66 4.66789C111.361 4.63203 109.303 4.38253 108.208 4.28585C107.034 4.18138 102.448 4.10653 101.072 4.08626C101.053 4.08626 101.036 4.08626 101.017 4.08626L91.6319 4.05351C90.8765 4.05039 73.105 3.98802 71.1929 4.00205C69.2635 4.01609 63.626 4.28429 63.1041 4.3108L54.2802 4.62423L49.0251 4.65697L35.0574 4.59616C34.8583 4.59616 15.1042 4.48389 13.4256 4.46985C11.0919 4.4527 9.6845 4.98132 8.75039 5.33217C8.64225 5.37271 8.53254 5.41481 8.41969 5.45379C5.69104 6.42214 3.00784 9.81214 2.43891 10.6682C1.23836 12.4724 0.804224 14.236 0.255672 16.4689L0.243133 16.5235C-0.390052 19.1011 0.332469 20.913 1.05186 21.9781C1.96872 23.3378 3.46392 24.2921 5.05002 24.5276C5.27884 24.5619 5.5108 24.579 5.74276 24.579C6.30699 24.579 9.17043 24.579 10.0779 24.5432C10.1312 24.5432 10.3051 24.551 10.5904 24.5868C11.2079 24.8472 12.0511 25.1326 12.9821 25.2449C13.7312 25.3384 14.4914 25.2823 15.2311 25.0843C16.0994 28.7206 16.2906 29.6297 16.333 29.8465C17.0038 33.3331 20.0333 35.1685 22.6789 35.1794C22.7306 35.1794 22.7824 35.1794 22.8341 35.1778C24.8245 35.1934 43.6728 35.3416 47.3857 35.3743C49.967 35.3977 51.4528 35.8328 51.7224 35.9185C51.749 35.931 51.7193 35.9154 51.7945 35.9435C51.865 35.97 58.8379 38.5694 60.7641 39.3116C60.7782 39.3179 60.7923 39.3226 60.8049 39.3288C61.0133 39.82 61.3691 40.6839 61.7499 41.7317C62.9881 45.1358 65.9377 46.6 68.0896 46.8198C68.2401 46.8354 68.3905 46.8432 68.541 46.8448C68.8592 46.8463 76.3649 46.8931 78.0012 46.8775C78.3946 46.876 79.0434 47.021 79.5026 47.1582C79.7111 47.2954 79.9462 47.5091 80.0026 47.651C81.3803 51.055 84.1262 52.8404 84.6637 53.1632C84.7891 53.2381 84.9176 53.3082 85.0493 53.3722C85.1386 53.4158 86.8814 54.2532 88.5584 54.9596C88.6086 63.3737 88.6713 74.6446 88.6603 75.404C88.6384 76.8121 89.049 80.2411 93.3481 81.6866C93.9922 81.9033 94.6286 82 95.2414 82C97.0532 82 98.6691 81.1548 99.7176 80.0602C100.497 79.3304 104.586 75.5007 105.421 74.7366C107.266 73.0572 107.855 70.6169 106.966 68.3839C106.408 66.9696 105.285 65.8047 103.874 65.1748C104.829 63.224 105.907 61.002 106.333 60.0555C107.126 58.295 109.958 51.8487 110.077 51.5742C110.08 51.568 110.082 51.5618 110.085 51.5555C110.137 51.4355 115.325 39.4816 116.694 36.3099C118.085 33.0883 119.21 30.3813 120.006 27.3281C121.012 23.4704 121.001 18.9358 121 18.7456L120.997 18.7424ZM116.362 26.3847C115.632 29.19 114.605 31.6537 113.235 34.8301C111.869 37.9987 106.683 49.9479 106.629 50.0679C106.598 50.1381 103.683 56.7762 102.898 58.5211C102.133 60.2176 99.1314 66.2975 98.807 66.9524C98.8007 66.9774 98.7991 67.0085 98.8023 67.021C98.8085 67.0319 98.8556 67.0787 98.9747 67.1317C99.8962 67.5434 101.91 68.4057 102.305 68.5741C102.836 68.8018 103.258 69.229 103.462 69.7483C103.775 70.5373 103.564 71.3497 102.879 71.9735C101.981 72.7937 97.4951 76.9961 97.0438 77.4187C96.7162 77.7867 96.0626 78.2545 95.2508 78.2545C95.0282 78.2545 94.7947 78.2202 94.5518 78.1375C93.9609 77.9379 92.3889 77.4109 92.4203 75.4586C92.4359 74.4325 92.3152 54.4356 92.3074 53.171C92.2761 53.0057 92.0896 52.3181 91.0489 51.922C89.2794 51.2483 86.7921 50.0508 86.6871 50.0009C86.6605 49.9884 86.6354 49.9744 86.6103 49.9588C86.5225 49.9058 84.4584 48.6411 83.4898 46.2491C82.8316 44.6227 81.2173 43.8088 81.0072 43.7074C80.7815 43.6279 79.3114 43.1289 78.0122 43.1289C77.9965 43.1289 77.9792 43.1289 77.9636 43.1289C76.3571 43.1445 68.8811 43.0977 68.563 43.0961C68.5332 43.0961 68.5034 43.0946 68.472 43.0915C68.378 43.0821 66.1493 42.8279 65.2857 40.4531C64.6369 38.663 64.0491 37.3625 64.0429 37.35C64.0288 37.3204 64.0288 37.3219 64.0209 37.297C63.9724 37.1909 63.5555 36.3707 62.1214 35.8172C60.1764 35.0671 53.1815 32.4599 53.111 32.4334C53.1032 32.4303 53.0953 32.4272 53.0875 32.4241C53.0718 32.4178 51.1018 31.6584 47.4155 31.6257C43.6305 31.5914 24.1224 31.4386 22.7635 31.4276C22.74 31.4292 22.715 31.4308 22.6915 31.4308C21.9203 31.4276 20.3703 30.9427 20.0224 29.1354C19.8562 28.2747 18.9738 24.5385 17.6025 18.8843C17.5586 18.7003 17.4708 18.546 17.3486 18.4337C17.2921 18.3822 17.2545 18.3604 17.2373 18.3511C17.0508 18.376 16.9332 18.5163 16.7624 18.7908L16.7436 18.822C16.7107 18.8734 16.5947 19.073 16.1903 19.8433C15.8831 20.4265 15.4286 20.8959 14.8769 21.2031C14.3958 21.4744 13.9115 21.582 13.4444 21.5243C12.8191 21.4479 12.2345 21.2218 11.8552 21.0456C11.7282 20.9863 11.5888 20.9458 11.4461 20.9224C10.8318 20.8257 10.2926 20.7805 9.929 20.7961C9.05131 20.832 5.87598 20.8304 5.74119 20.8304C5.69417 20.8304 5.64872 20.8273 5.60327 20.8195C5.45438 20.7977 4.68484 20.648 4.17077 19.8854C3.73976 19.2446 3.64572 18.4103 3.89336 17.4045L3.90589 17.35C4.42153 15.2527 4.73343 13.988 5.57193 12.7265C6.37751 11.5149 8.45731 9.40515 9.6798 8.97165C9.81458 8.92332 9.94624 8.87498 10.0763 8.82508C10.907 8.51321 11.7659 8.19355 13.3927 8.20446C15.076 8.2185 34.8348 8.32921 35.0339 8.33077L49.0298 8.39158L54.357 8.35884L63.2655 8.04229C63.5006 8.03138 69.3153 7.75225 71.2195 7.73822C73.1097 7.72419 91.4313 7.78968 91.6162 7.78968L101.001 7.82243C101.246 7.82554 106.758 7.90975 107.872 8.00799C108.946 8.10311 111.052 8.35884 111.226 8.37911C111.936 8.45396 113.268 9.00284 113.315 10.5528C113.35 11.7145 113.273 15.209 113.27 15.3571C113.27 15.393 113.267 15.4289 113.261 15.4647C113.284 15.5131 113.411 15.6534 113.782 15.7844C114.956 16.1976 115.597 16.4003 115.726 16.4409C116.306 16.5921 117.224 17.2315 117.232 18.7534C117.24 20.2035 117.066 23.6637 116.359 26.3785L116.362 26.3847Z" fill="#15151E"/>
</svg>
