<svg width="121" height="85" viewBox="0 0 121 85" fill="none" xmlns="http://www.w3.org/2000/svg">
<path d="M18.9052 22.938C18.8227 23.3515 18.8576 23.3878 19.0289 23.5567C19.6016 24.1264 23.0025 26.3802 23.7909 26.8505C24.4412 27.2387 25.228 27.4455 26.1941 27.4802C26.7857 27.5023 28.8162 27.507 30.1676 26.6516C31.3066 25.9304 34.7313 23.7619 39.2633 23.4636L19.5254 22.6824C19.5254 22.6824 18.9528 22.6918 18.9052 22.938Z" fill="#15151E"/>
<path d="M113.845 31.5126C113.929 31.0849 114.715 27.8432 114.891 27.264C114.98 26.9689 114.998 26.6737 114.985 26.4954C114.961 26.4922 114.937 26.4907 114.915 26.4891C114.807 26.478 114.677 26.4654 114.535 26.4433L43.6715 23.6403C45.2784 23.8992 46.6854 24.3869 47.9195 25.1097C50.5749 26.6611 73.8247 40.204 74.0595 40.3413C74.2927 40.477 76.3342 41.7207 76.1454 43.4662C75.9583 45.1991 74.6702 45.9725 73.6344 46.5959C73.4996 46.6764 73.3647 46.7569 73.2331 46.8405C72.2083 47.4829 71.4882 48.0747 71.3105 48.8749C71.1963 49.3878 71.2391 49.9717 71.2836 50.5888C71.3137 50.9929 71.3438 51.4111 71.3327 51.8356C71.2836 53.5985 70.9044 55.6313 68.4537 57.3374C67.1847 58.2212 64.3865 59.7489 59.9116 60.052C57.0516 60.2461 53.9774 59.5296 50.7732 57.9213L50.678 57.874C49.4788 57.2774 36.2859 49.5898 35.5403 49.1542C35.4515 49.1084 34.165 48.4566 32.5486 48.5939C31.3082 48.6997 29.7409 49.4162 28.1341 50.6141C26.9602 51.49 24.8457 52.4527 22.7535 52.2854C21.302 52.1687 20.0616 51.5784 18.9591 50.4847C18.902 50.4278 18.8354 50.36 18.7577 50.2811C18.0756 49.5882 16.2625 47.7512 14.8904 47.426C13.5452 47.1072 10.59 47.2082 8.3851 48.8354C8.29785 48.8985 8.21061 48.9632 8.12336 49.0264C6.62117 50.1217 5.3252 51.0686 5.81535 54.1194C5.87087 54.4618 6.04219 54.7238 6.35468 54.9432C7.15257 55.5051 8.55641 55.5556 9.09733 55.4577C9.73183 55.3441 13.0392 54.8185 15.8754 55.7449C18.4785 56.594 21.1339 57.0723 22.2839 57.1875C23.4927 57.3074 25.6865 57.4368 27.6471 57.4368C28.4926 57.4368 30.9132 57.369 33.7161 57.2885C37.512 57.1811 42.1407 57.0502 44.3869 57.0502C44.6455 57.0502 44.8739 57.0517 45.0642 57.0549C47.3849 57.1007 51.2237 58.4201 53.5936 59.6685C55.4828 60.6643 60.0925 62.0311 62.9811 62.2331C66.566 62.4856 72.3622 62.181 75.4776 61.2514C80.8852 59.6369 89.5478 56.5341 93.3738 55.1184C95.7421 54.2425 107.428 48.9017 108.87 47.688C109.119 47.4781 109.244 47.3597 109.305 47.2903C109.208 47.1577 108.851 46.7695 107.63 46.0388C107.569 46.004 107.493 45.9598 107.404 45.9093C106.405 45.3443 104.324 44.1685 104.022 42.2305C103.713 40.2308 104.716 38.2233 106.353 37.5604C107.43 37.1233 108.943 37.1943 110.158 37.2511C110.547 37.2685 110.913 37.2858 111.159 37.2779C112.265 37.2432 112.804 36.9781 113.313 36.5598C113.58 36.342 114.227 35.4787 115.179 33.7616C115.104 33.7095 115.014 33.6496 114.925 33.6038C114.022 33.1287 113.657 32.4248 113.837 31.5095L113.845 31.5126ZM12.0541 51.4174C11.859 51.4174 11.6687 51.4206 11.4847 51.4253C12.4158 51.0576 13.4389 51.0213 13.9085 51.0891C14.0465 51.1617 14.267 51.3038 14.608 51.5879C13.7165 51.4632 12.8504 51.4174 12.0541 51.4174ZM33.613 53.5007C32.5106 53.5323 31.4335 53.5622 30.4928 53.5875C31.7333 52.6768 32.5899 52.388 32.8722 52.3644C32.9151 52.3612 32.9595 52.3596 33.0023 52.3596C33.3195 52.3596 33.6209 52.4512 33.7685 52.508C34.2063 52.7636 34.7567 53.084 35.3864 53.4502C34.79 53.4675 34.1952 53.4833 33.6114 53.5007H33.613ZM110.204 33.4633C108.713 33.3939 106.721 33.326 104.927 34.0536C101.646 35.3809 99.6856 39.0629 100.266 42.8097C100.534 44.5394 101.404 45.8809 102.389 46.8957C98.5895 48.7407 93.4658 51.0449 92.0525 51.5689C88.2677 52.9688 79.705 56.0369 74.3895 57.6246C74.0563 57.7241 73.6772 57.8156 73.2616 57.8992C75.043 55.4388 75.1112 52.9357 75.1398 51.9351C75.1556 51.3211 75.116 50.7609 75.0826 50.3111C75.0795 50.2653 75.0763 50.2164 75.0715 50.1659C75.1287 50.128 75.1921 50.087 75.2651 50.0428C75.3761 49.9733 75.4903 49.9055 75.6029 49.8376C76.8831 49.069 79.5448 47.4702 79.9319 43.8703C80.2681 40.7501 78.114 38.3133 75.9837 37.0728C75.8456 36.9923 67.7652 32.2844 60.5826 28.1005L110.271 30.0654C110.19 30.4126 110.13 30.6746 110.107 30.7866C109.923 31.7194 109.963 32.6269 110.202 33.4649L110.204 33.4633Z" fill="#15151E"/>
<path d="M120.594 31.5679C120.429 31.1733 120.215 30.804 119.961 30.4647C120.134 29.7608 120.299 29.109 120.361 28.8943C120.6 28.0989 121.254 25.3275 119.619 23.0706C118.973 22.1789 118.12 21.546 117.071 21.1767L116.747 20.8437L19.7602 17.0054C17.0508 16.8934 13.9608 18.519 13.3025 21.8348C12.7457 24.6315 13.91 26.497 14.9887 27.5749C16.3228 28.9022 20.8103 31.6989 20.8531 31.7241C22.3299 32.6063 24.0574 33.0877 25.9799 33.1587C27.5836 33.2187 30.6594 33.0751 33.2339 31.4463C34.0778 30.9113 36.6459 29.2857 39.7899 29.1263C42.0995 29.0095 43.8127 29.2968 45.0278 30.0086C47.1073 31.2238 61.793 39.7795 68.1999 43.5104C67.1878 44.4463 66.1472 45.791 65.7364 47.6391C65.4398 48.9664 65.5254 50.1422 65.5889 51.0008C65.6079 51.2659 65.6285 51.5389 65.6238 51.6778C65.6095 52.2097 65.5572 52.3407 65.5524 52.3517C65.5524 52.3517 65.4778 52.4717 65.178 52.68C64.5467 53.1188 62.7336 54.1635 59.5214 54.3813C57.6972 54.506 55.6192 53.9884 53.3445 52.8473L53.2446 52.7968C52.3642 52.3438 44.9516 48.0542 38.413 44.2427L38.3179 44.1891C37.8499 43.9302 35.3484 42.655 32.0648 42.9312C29.706 43.1301 27.2315 44.1859 24.7093 46.0672C24.289 46.3797 23.5101 46.6416 23.2166 46.6211C23.1929 46.6196 23.177 46.6164 23.1691 46.6148C23.15 46.6022 23.0977 46.5627 22.9977 46.4649C22.9517 46.4191 22.8978 46.3639 22.8344 46.3007C21.0308 44.4716 18.8322 42.5177 16.2149 41.8975C13.1962 41.1825 8.55324 41.637 4.98574 44.2696L4.7478 44.4432C2.92677 45.772 -0.862811 48.5371 0.177777 55.0158C0.474408 56.8608 1.49755 58.4816 3.05684 59.5801C5.50603 61.3051 8.65 61.313 10.1205 61.0478C11.0738 60.8758 12.9218 60.759 14.1004 61.1425C16.943 62.0705 20.0425 62.6719 21.7192 62.8391C23.0644 62.9733 25.4945 63.1169 27.6518 63.1169C28.5798 63.1169 30.9195 63.0506 33.8843 62.967C38.0577 62.8486 43.2511 62.7018 44.958 62.735C46.016 62.7555 48.9775 63.6614 50.9271 64.6888C53.4571 66.0225 58.7457 67.6323 62.5861 67.9006C63.5172 67.9653 64.5689 68 65.6856 68C69.5085 68 74.0865 67.6007 77.1258 66.6932C82.6618 65.0408 91.1991 61.9869 95.3725 60.4434C96.4544 60.0425 109.944 54.2314 112.564 52.0266C113.313 51.3969 115.589 49.4825 114.926 46.165C114.646 44.7714 113.859 43.6919 112.88 42.8097C114.425 42.5445 115.743 41.9385 116.952 40.9489C117.66 40.3697 118.603 39.3802 120.229 36.4367C121.421 34.284 120.97 32.4611 120.596 31.5663L120.594 31.5679ZM116.892 34.6123C115.9 36.4067 115.106 37.5557 114.531 38.026C113.602 38.7883 112.614 39.1308 111.227 39.175C110.907 39.1845 110.523 39.1671 110.077 39.1466C109.103 39.1008 107.768 39.0393 107.078 39.3186C106.365 39.6074 105.717 40.6933 105.91 41.9464C106.07 42.9785 107.668 43.8813 108.35 44.2664C108.453 44.3248 108.543 44.3753 108.615 44.4179C110.268 45.4059 111.037 46.1524 111.191 46.9115C111.416 48.0337 110.72 48.6192 110.104 49.1368C108.283 50.6693 96.0594 56.149 94.0432 56.8971C90.1981 58.3191 81.4848 61.4408 76.0312 63.0696C73.4202 63.8492 69.2373 64.217 65.7015 64.217C64.6799 64.217 63.7139 64.187 62.8542 64.1254C59.6388 63.8997 54.8467 62.4714 52.71 61.3446C50.5749 60.2193 46.982 58.9898 45.0341 58.9504C43.2369 58.9156 37.9911 59.064 33.7764 59.1824C30.9592 59.2628 28.5259 59.3307 27.6518 59.3307C25.6246 59.3307 23.3531 59.1966 22.0983 59.0719C20.8658 58.9488 18.0343 58.4406 15.2869 57.5441C12.8869 56.7613 9.99674 57.2206 9.44155 57.3216C8.51834 57.4889 6.56565 57.41 5.25857 56.4899C4.53048 55.9769 4.07522 55.262 3.9388 54.4192C3.26464 50.2258 5.42354 48.6507 7.00029 47.5002C7.08595 47.4387 7.17002 47.3755 7.25409 47.314C10.2125 45.1313 13.8323 45.2275 15.3345 45.5842C17.2396 46.0356 19.2573 48.081 20.1187 48.9554C20.1916 49.028 20.2535 49.0927 20.3074 49.1447C20.8388 49.6735 21.6161 50.2937 22.9105 50.3979C24.3651 50.5147 26.0465 49.8076 26.9951 49.099C28.3308 48.1031 30.3517 46.8784 32.39 46.7064C34.6568 46.5154 36.3985 47.4608 36.4715 47.5018L36.4905 47.5128C41.2889 50.3111 50.6098 55.7229 51.5314 56.1805L51.6314 56.231C54.5247 57.683 57.2673 58.3333 59.7832 58.1628C63.798 57.8914 66.2551 56.5577 67.3623 55.786C69.204 54.5029 69.3927 53.1061 69.4292 51.7836C69.4387 51.4537 69.4118 51.1002 69.3848 50.7261C69.334 50.0333 69.2769 49.2473 69.4514 48.4629C69.7909 46.9368 70.9822 46.0103 72.2179 45.2354C72.3606 45.1471 72.505 45.0587 72.6493 44.9719C73.617 44.3911 74.169 44.0249 74.2514 43.2626C74.2864 42.9359 73.6693 42.3125 73.0935 41.9732C72.8619 41.8375 49.6105 28.293 46.9535 26.7416C45.0769 25.6447 42.6706 25.187 39.5948 25.3433C35.4467 25.5532 32.2409 27.5844 31.1876 28.252C29.4221 29.3709 27.0554 29.4104 26.1211 29.3757C24.8267 29.3283 23.7433 29.0348 22.809 28.4777C22.2316 28.1336 18.4975 25.7126 17.679 24.8982C17.0223 24.2432 16.8367 23.5709 17.035 22.5735C17.2904 21.2888 18.5435 20.749 19.6 20.7932L115.064 24.5699L115.099 24.6062C115.477 24.6425 116.103 24.7057 116.527 25.2896C117.019 25.9683 116.933 27.0714 116.709 27.8116C116.552 28.3325 115.788 31.4826 115.708 31.874C115.734 31.8898 115.767 31.9103 115.815 31.9356C116.065 32.0666 116.291 32.226 116.419 32.3223C116.67 32.4517 116.93 32.6805 117.074 33.0262C117.211 33.3513 117.288 33.891 116.887 34.6154L116.892 34.6123ZM71.1233 45.2118C71.1519 45.2291 71.1693 45.2386 71.1741 45.2417C71.1741 45.2417 71.1551 45.2323 71.1233 45.2118Z" fill="#15151E"/>
</svg>
