<svg width="121" height="85" viewBox="0 0 121 85" fill="none" xmlns="http://www.w3.org/2000/svg">
<path d="M115.354 39.5929C115.122 39.3534 114.411 38.6673 113.902 38.3676C113.649 38.2192 112.5 37.6784 111.74 37.3215C111.035 36.9908 110.593 36.7822 110.408 36.6849C110.021 36.4809 109.735 36.3589 109.312 36.5072C109.059 36.5968 108.949 36.7962 108.913 36.8827C108.848 37.3416 108.548 39.4785 108.473 40.041C108.428 40.3871 108.444 40.6328 108.467 41.0036C108.473 41.104 108.479 41.2091 108.486 41.325C108.513 41.8596 108.308 42.368 107.909 42.7574C107.485 43.1699 106.858 43.4233 106.355 43.3832C105.856 43.3461 105.276 43.207 104.755 42.4669C104.109 41.5444 104.604 40.5153 104.968 39.7629C105.046 39.6006 105.12 39.4476 105.181 39.3055C105.31 39.0026 105.424 38.2316 105.514 37.6135C105.629 36.8379 105.736 36.1055 105.929 35.6265C106.258 34.806 106.902 34.0983 107.384 33.6487C107.808 33.2531 108.029 32.788 108.005 32.3399C107.982 31.9057 107.862 31.6508 107.544 31.3649C107.435 31.2691 106.959 31.2166 106.603 31.2614C106.459 31.2799 92.7249 32.9858 91.3089 33.2191C90.4401 33.3628 89.495 33.6131 88.8453 33.8696C88.7661 33.9005 88.6852 33.9314 88.6013 33.9639C88.2096 34.1138 87.804 34.2683 87.4029 34.534C86.8994 34.8678 86.4191 35.6048 86.6584 38.5545C86.8185 40.5184 85.6171 44.3056 83.0229 46.013C80.0278 47.9846 75.7814 47.124 73.8556 45.9218C72.7505 45.2312 71.3268 44.1665 69.9481 43.139C68.6301 42.1548 67.3851 41.2261 66.5069 40.6807C65.4375 40.0178 63.5662 39.3472 61.7569 38.6982C60.0239 38.0755 58.3857 37.4884 57.4702 36.9043C56.9852 36.5953 56.4941 36.1874 55.8739 35.6728C55.2739 35.1737 54.5932 34.6082 53.7181 33.9654C52.8461 33.3242 50.339 31.847 48.1273 30.5429C45.9233 29.2434 43.8405 28.0166 43.0804 27.4572C42.6033 27.1065 41.7391 26.4359 40.8236 25.7282C39.504 24.7053 37.8611 23.4336 37.3373 23.0906C36.8259 22.7553 36.3876 22.3907 36.0021 22.0693C35.7877 21.8916 35.584 21.7216 35.3991 21.5841C35.1069 21.6753 34.4976 22.2392 34.2271 22.4896C34.0733 22.6317 33.9272 22.7677 33.7873 22.8867C33.2681 23.327 32.3278 23.7937 31.1356 24.3839C29.7632 25.0638 28.2089 25.8348 27.0338 26.697C24.8873 28.2731 18.8799 34.2235 15.5273 39.511C12.6425 44.063 10.5256 47.9614 9.2386 51.0966C7.8102 54.5778 7.5382 56.7874 7.53509 56.8106C7.53353 56.826 7.53042 56.8415 7.52887 56.8569C7.20557 58.9877 6.59318 59.6567 5.82535 60.3103C5.75541 60.369 5.68547 60.4293 5.61397 60.4942C5.62329 60.5452 5.6606 60.6719 5.80049 60.882C6.03985 61.239 6.93823 62.0564 7.76202 62.6667C9.17332 63.7112 10.4898 64.2428 10.911 64.3973C11.0338 64.1763 11.1722 63.8951 11.2157 63.7189C11.1939 63.447 10.897 62.6435 10.6981 62.1058C10.5629 61.7427 10.4245 61.3657 10.3033 61.001C9.54014 58.7111 10.0562 55.4539 10.8582 53.3973C11.6384 51.3994 13.2192 48.2612 13.7787 47.3233C13.9544 47.0266 14.2512 46.5291 14.8978 46.3653C15.3797 46.2463 15.8926 46.4379 16.1117 46.5368L17.3054 47.0328C17.3179 47.0158 17.3303 46.9988 17.3412 46.9834C17.3521 46.9648 17.3614 46.9525 17.3738 46.9355C17.4344 46.852 23.4045 38.5159 23.919 37.7959C24.376 37.1546 24.2299 36.4222 24.09 35.7145C24.0231 35.3762 23.9594 35.0563 23.9625 34.7411C23.9796 33.0383 26.5629 30.3142 29.1057 28.5033C32.3355 26.2026 36.571 25.2477 37.2705 25.1549C38.3383 25.0128 39.2102 25.6602 39.3439 25.7653C40.0387 26.3045 55.2211 38.0771 55.5708 38.3568C55.7729 38.519 55.9532 38.6689 56.1288 38.8682C56.421 39.1942 56.5081 39.6238 56.5329 39.8185L56.6526 40.5462C56.6604 40.5833 56.6775 40.6451 56.6977 40.6961C56.7319 40.7317 56.7909 40.7827 56.8345 40.8151C56.8422 40.8213 56.8531 40.8306 56.8624 40.8367C57.0054 40.9526 57.3785 41.2493 57.6489 41.4378L58.0593 40.9356C58.2551 40.6807 58.6281 40.3964 59.1224 40.3268C59.7426 40.2403 60.2804 40.6359 60.4622 40.7919C64.7599 44.1665 68.8757 46.7995 70.8838 47.8208C72.1039 48.442 74.3111 49.3923 76.2741 50.0103C78.5232 50.7195 85.0855 52.9368 86.2838 53.3448C87.7511 53.8439 88.7008 54.1189 91.1659 53.9968C94.0056 53.8562 98.4525 51.9835 100.232 51.1862C101.496 50.6191 104.611 48.8545 105.386 48.3246C106.163 47.7946 107.828 46.3406 107.845 46.3267C107.92 46.2633 114.684 40.4582 115.116 40.0781C115.401 39.8293 115.41 39.735 115.416 39.6794C115.416 39.6717 115.407 39.6501 115.394 39.6331C115.376 39.6192 115.39 39.6269 115.359 39.596L115.354 39.5929ZM98.6934 47.8023C95.4869 49.2393 92.4575 50.2158 90.9732 50.29C89.1065 50.3843 88.6309 50.222 87.4853 49.8326C87.1185 49.709 86.2543 49.4154 85.1632 49.0477C88.7785 46.6094 90.6514 41.6618 90.3732 38.2532C90.3406 37.8484 90.3266 37.527 90.3219 37.2752C90.6825 37.1454 91.2825 36.98 91.9166 36.875C92.6316 36.7575 97.4469 36.1426 102.072 35.5616C101.968 36.0498 101.895 36.5536 101.818 37.0712C101.774 37.3648 101.713 37.7835 101.667 38.0168C101.645 38.0616 101.622 38.1095 101.6 38.1559C101.155 39.0783 99.8001 41.8874 101.692 44.5837C101.936 44.9299 102.247 45.3038 102.64 45.653C101.563 46.2942 99.5716 47.4067 98.6918 47.8023H98.6934Z" fill="#15151E"/>
<path d="M119.307 35.6543C118.904 35.2448 117.853 34.2281 116.753 33.5807C116.319 33.3257 115.621 32.992 114.129 32.2905C113.961 32.2117 113.769 32.1221 113.59 32.0371C113.487 30.1319 112.716 28.5188 111.291 27.2332C109.37 25.5103 106.895 25.6108 105.885 25.7421C104.379 25.9291 91.884 27.4835 90.3872 27.7292C89.1158 27.9393 87.7993 28.2932 86.7766 28.6964C86.7175 28.7196 86.6569 28.7428 86.5932 28.7675C86.0771 28.9638 85.2129 29.2944 84.2943 29.9032C80.5687 32.3708 80.9091 36.946 81.0723 38.9516C81.0443 39.6145 80.4117 41.0561 79.9283 41.3744C79.246 41.8241 77.4445 41.5939 76.8306 41.2122C75.9229 40.6436 74.5908 39.6501 73.3039 38.689C71.8863 37.6305 70.5465 36.6308 69.4632 35.9587C67.8902 34.9837 65.736 34.2111 63.6532 33.4633C62.5698 33.0754 60.9347 32.4883 60.4824 32.2179C60.2959 32.0989 59.8514 31.7296 59.4581 31.4036C58.8302 30.8813 58.0499 30.2323 57.0396 29.4907C56.0122 28.7351 54.0631 27.5762 50.9763 25.756C49.2712 24.7517 46.9351 23.3749 46.4051 22.984C45.9839 22.6734 45.1057 21.9936 44.257 21.3369C42.3048 19.8257 41.0723 18.877 40.4133 18.4443C40.1677 18.2836 39.8863 18.0488 39.5879 17.8C39.3004 17.5605 38.9724 17.2886 38.618 17.0321C36.7964 15.7156 34.4665 15.6553 32.3868 16.8698C31.5444 17.3612 30.8885 17.97 30.4082 18.4134C30.3523 18.466 30.2885 18.5247 30.2357 18.5726C29.9326 18.7549 29.1881 19.1242 28.6332 19.3992C27.1348 20.1425 25.2697 21.0665 23.7029 22.2161C21.129 24.1058 14.6118 30.5074 10.7867 36.5397C7.72782 41.3652 5.46165 45.5541 4.05034 48.9905C2.49759 52.7762 2.07171 55.3952 1.98467 56.0457C1.97068 56.1369 1.95669 56.2157 1.94426 56.2821C1.90385 56.3176 1.86499 56.3532 1.82458 56.3887C0.0402379 58.008 -0.864367 60.9763 1.13447 63.9569C2.01731 65.2765 3.72238 66.6099 4.41249 67.1214C6.75949 68.8597 8.91375 69.6014 9.33186 69.7358C9.89141 69.9135 10.4587 70 11.0183 70C12.8772 70 14.6336 69.0559 15.5941 67.4381C15.9408 66.8742 16.4988 65.8374 16.7132 64.7171C17.0226 63.0993 16.4988 61.6809 15.9439 60.179C15.8195 59.8421 15.7014 59.5254 15.6081 59.2426C15.3905 58.5921 15.5475 56.7333 16.0682 55.4014C16.3791 54.6056 16.8547 53.5673 17.3163 52.6124C17.8292 52.6216 18.3966 52.5583 18.9887 52.3744C20.5508 51.8908 21.5036 50.7906 21.9854 50.0675C22.6585 49.128 27.9788 41.6989 28.4762 41.0021C29.9792 38.8929 29.9093 36.7421 29.7103 35.4055C30.1626 34.8539 31.0128 33.9716 32.3558 33.0152C33.7515 32.0201 35.654 31.3093 36.9145 30.9354C42.1214 34.9744 48.9355 40.2588 51.2592 42.0651C51.34 42.3587 51.4612 42.7234 51.6384 43.0958C52.0923 44.0599 52.8119 44.7552 53.3684 45.1863C53.6637 45.4243 54.2823 45.911 54.7843 46.2278C56.1552 47.0931 57.7686 47.2739 59.211 46.852C62.9786 49.6488 66.3841 51.7795 68.3239 52.7669C69.7911 53.5132 72.2936 54.5886 74.5737 55.3071C76.5819 55.9391 82.6126 57.9725 84.4638 58.6014C86.3414 59.2395 88.048 59.7139 91.4364 59.5455C94.9102 59.3724 99.3835 57.6588 102.523 56.2497C104.068 55.5574 107.433 53.6615 108.546 52.9013C109.519 52.2369 111.042 50.922 111.512 50.511C112.281 49.8496 118.362 44.6316 118.798 44.2484C120.093 43.1189 120.825 41.7561 120.974 40.2032C121.138 38.5097 120.516 36.8255 119.302 35.6512L119.307 35.6543ZM117.267 39.8525C117.208 40.4628 116.924 40.9603 116.344 41.4672C115.906 41.8519 109.345 47.4824 109.065 47.7219C109 47.7791 107.306 49.2578 106.438 49.8496C105.576 50.4399 102.386 52.2508 100.995 52.8735C98.6639 53.918 94.2994 55.695 91.2561 55.8464C88.5112 55.9839 87.3175 55.6548 85.6777 55.097C83.7379 54.4372 77.7694 52.4254 75.7084 51.7764C73.6443 51.1259 71.319 50.1262 70.0321 49.4711C67.954 48.4157 63.734 45.7194 59.3555 42.2876L58.9981 42.7249C58.5566 43.3136 57.6458 43.6412 56.7925 43.1035C56.4132 42.864 55.8117 42.3819 55.6936 42.2861C55.5055 42.1439 55.1822 41.8658 55.0268 41.5321C54.8931 41.2493 54.831 40.9511 54.8185 40.8955C54.817 40.8862 54.8154 40.8754 54.8139 40.8661L54.688 40.0982C54.6833 40.0734 54.6833 40.0765 54.6818 40.0518C54.6818 40.0502 54.6818 40.0456 54.6786 40.041C54.618 39.9807 54.5419 39.9143 54.3973 39.7984C54.1253 39.5805 43.6789 31.4777 38.1922 27.2239C38.1875 27.2208 38.1844 27.2177 38.1797 27.2146C38.0958 27.1513 37.7756 26.9581 37.5145 26.9921C36.9254 27.0694 33.0692 27.9579 30.1906 30.0083C27.1535 32.1715 25.8386 34.2822 25.8261 34.7581C25.8261 34.8817 25.8728 35.1227 25.9194 35.3561C26.095 36.2399 26.3593 37.5765 25.4407 38.8682C24.9386 39.5728 19.2561 47.5056 18.9095 47.9893C18.7851 48.1824 18.4261 48.6753 17.8867 48.8422C17.3256 49.0168 16.7894 48.8267 16.6386 48.7649L15.3968 48.2488C15.3968 48.2488 15.389 48.2612 15.3859 48.2674C14.8667 49.1389 13.3342 52.1859 12.599 54.0679C11.8918 55.8819 11.4846 58.6447 12.0752 60.4185C12.1871 60.7553 12.3208 61.1169 12.4498 61.4677C12.9114 62.7161 13.1679 63.4516 13.056 64.0311C12.9394 64.6429 12.5135 65.3584 12.3985 65.5422C12.1622 65.9532 11.6726 66.304 11.0447 66.304C10.866 66.304 10.6763 66.2762 10.4789 66.2128C10.4012 66.1881 8.59668 65.5994 6.64913 64.1562C6.03363 63.7004 4.7389 62.6451 4.24774 61.9127C3.20791 60.3629 4.06122 59.3956 4.34566 59.1376C4.43581 59.0557 4.5244 58.98 4.61144 58.9058C5.11037 58.4809 5.43989 58.2012 5.68391 56.5772C5.71966 56.2914 6.04296 53.9767 7.51022 50.3997C8.83915 47.1641 11.0043 43.1699 13.9481 38.5252C17.422 33.0461 23.6827 26.8531 25.924 25.2075C27.2297 24.2495 28.9332 23.4043 30.3025 22.726C31.2942 22.2346 32.2299 21.7711 32.5749 21.4775C32.6837 21.3848 32.8158 21.2627 32.9542 21.1345C33.7717 20.3773 35.1426 19.1103 36.428 20.0389C36.6814 20.2213 36.9316 20.4299 37.1959 20.6508C37.5611 20.9552 37.9388 21.2689 38.3616 21.547C38.9476 21.9302 40.4832 23.12 41.9676 24.2696C42.8737 24.9711 43.7301 25.6339 44.1887 25.9723C44.8726 26.4761 47.0097 27.7354 49.0769 28.9529C51.4364 30.3436 53.8766 31.7806 54.8248 32.479C55.7449 33.1558 56.4785 33.7646 57.0692 34.2559C57.6396 34.7287 58.0888 35.1042 58.4743 35.3483C59.2157 35.8196 60.829 36.399 62.3895 36.9584C64.2905 37.6398 66.2551 38.3459 67.4923 39.1123C68.4389 39.6995 69.715 40.6529 71.0672 41.6603C72.4148 42.6662 73.8075 43.7061 74.8473 44.3566C76.3829 45.3146 79.8117 45.9079 81.9924 44.4725C83.8622 43.241 84.9192 40.1878 84.7979 38.7091C84.5415 35.5585 84.9953 33.9036 86.3662 32.9951C86.9413 32.6134 87.49 32.4033 87.933 32.2349C88.0107 32.2055 88.0853 32.1777 88.1568 32.1483C88.9324 31.8424 89.9971 31.5596 91.0043 31.3927C92.456 31.1532 105.8 29.4953 106.367 29.4258C106.619 29.3918 107.969 29.2527 108.796 29.9928C109.48 30.6093 109.821 31.3248 109.869 32.2457C109.914 33.1125 109.6 33.9623 108.977 34.6777C110.062 34.4073 110.876 34.8353 111.285 35.0517C111.442 35.1351 112 35.3962 112.541 35.6512C113.705 36.1982 114.552 36.5984 114.857 36.7776C115.637 37.2365 116.513 38.1203 116.684 38.295C117.005 38.5963 117.339 39.1726 117.272 39.8602L117.267 39.8525Z" fill="#15151E"/>
<path d="M106.306 41.4347C106.351 41.4934 106.378 41.5166 106.384 41.5212C106.389 41.5212 106.404 41.5243 106.437 41.5274C106.502 41.5073 106.591 41.4502 106.62 41.4115C106.614 41.3065 106.608 41.2107 106.603 41.1195C106.594 40.9773 106.586 40.8414 106.58 40.7038C106.457 40.9619 106.311 41.2879 106.306 41.4347Z" fill="#15151E"/>
</svg>
