<svg width="121" height="85" viewBox="0 0 121 85" fill="none" xmlns="http://www.w3.org/2000/svg">
<g clip-path="url(#clip0_3042_482)">
<path d="M5.78248 24.4297C5.78248 24.4297 5.4967 24.4568 5.47694 24.585C5.47694 24.5911 5.47542 24.5971 5.47542 24.6016C5.51951 24.6424 5.6624 24.7329 5.95882 24.8007C6.17467 24.8505 7.84222 25.2049 9.53105 25.5609C9.29088 25.4809 9.04766 25.392 8.79836 25.2909C7.28434 24.6786 6.06218 24.4222 5.78248 24.4297Z" fill="#15151E"/>
<path d="M120.754 46.1771C120.1 43.9102 118.378 42.5257 116.975 41.9827C114.85 41.1667 112.532 41.5332 110.793 42.9314C109.537 42.1803 108.135 41.3553 107.328 40.8802C107.318 40.8741 107.305 40.8666 107.295 40.8606C106.866 40.6147 102.981 38.4293 98.3764 37.6133C98.3688 37.6133 98.3627 37.6103 98.3551 37.6103L77.5829 33.0931C76.8989 31.6829 75.5916 30.6708 73.8207 30.2877C73.2582 30.1656 36.0902 22.0135 35.7178 21.932C35.4472 21.8717 34.029 21.5716 32.7293 21.5112C32.5712 21.5037 31.9799 21.46 31.3536 21.4147C28.7193 21.2217 23.2454 20.819 17.0206 20.6003C16.636 20.5776 15.6738 20.549 14.1202 20.6666C12.8601 20.7616 12.0103 20.7254 10.8657 20.2624C9.8974 19.8718 7.45763 18.9698 5.6624 19C2.83197 19.0634 0.478853 21.0708 0.0669058 23.7721C-0.387604 26.7554 1.5262 29.3541 4.71689 30.0871C5.15164 30.1882 9.51585 31.1082 10.925 31.4038C11.7732 31.6014 12.9057 31.8985 13.2735 32.0328C14.2099 32.3767 16.1906 33.2771 18.6927 34.6858C21.0458 36.0085 26.9453 40.3025 30.475 43.4261C30.5115 43.4578 30.51 43.4578 30.5419 43.4834C30.5723 43.5105 30.6042 43.5392 30.6361 43.5694C30.4841 43.9766 30.3473 44.4713 30.2971 45.0414C30.1573 46.6779 30.8125 48.2676 32.0833 49.3897C32.4891 49.7502 37.2151 53.6942 40.155 55.9988C43.408 58.5478 49.6891 61.7966 55.429 63.896L56.2346 64.1917C60.4468 65.7361 63.8822 66.997 66.9164 66.997C68.4577 66.997 69.8958 66.6712 71.2791 65.8914C72.7399 65.0694 73.6383 64.169 74.2098 63.255C75.7269 63.9594 77.5039 64.7844 78.4205 65.2112C79.0817 65.5219 81.4136 66.5309 83.7378 66.5309H83.7697C85.8386 66.5204 88.2935 66.2625 90.8139 64.4239C91.0662 64.2399 91.203 64.1735 91.2319 64.1615C91.2623 64.1524 91.2897 64.1464 91.314 64.1419L91.3353 64.1373C91.621 64.068 94.45 63.3274 96.4033 62.8146C97.1421 63.4511 98.1909 64.1253 99.4678 64.3244C100.453 64.4782 101.429 64.3968 102.453 64.074C102.459 64.0725 102.465 64.071 102.47 64.068C103.247 63.8206 107.693 61.8825 108.385 61.5552C109.333 61.1073 112.208 59.6367 113.363 58.8283C114.929 57.7348 117.379 55.1708 119.322 52.5917C121.388 49.8497 121.106 47.3943 120.754 46.1756V46.1771ZM116.4 50.4274C114.483 52.9718 112.322 55.1316 111.264 55.8706C110.444 56.4438 107.889 57.7831 106.817 58.2899C106.009 58.673 101.853 60.4663 101.357 60.6231C101.053 60.7197 100.59 60.8358 100.039 60.7483C99.1668 60.6126 98.3384 59.6307 98.2472 59.5206C98.0556 59.2868 97.6498 58.9957 97.4415 58.9098C97.3579 58.8796 97.0919 58.8947 96.9049 58.9414C96.6602 59.0063 90.8336 60.5326 90.4658 60.6231L90.4445 60.6277C90.1177 60.7076 89.5704 60.8418 88.6538 61.51C86.8981 62.7905 85.2032 62.9051 83.753 62.9127H83.7348C82.0718 62.9127 80.0652 61.9806 79.9801 61.9398C79.9224 61.9127 73.9301 59.1239 73.1245 58.762C72.4161 58.4452 72.2626 58.5327 72.0817 58.6322C71.8613 58.7544 71.691 59.1089 71.6241 59.5809L71.6165 59.6337C71.4326 60.9248 71.197 61.7769 69.4793 62.7452C68.7101 63.1796 67.8467 63.3681 66.8708 63.3681C64.51 63.3681 61.4835 62.2581 57.5009 60.7966L56.6922 60.4995C51.3581 58.5478 45.3553 55.4604 42.4169 53.1573C39.4162 50.8059 34.821 46.9629 34.5185 46.693C33.5471 45.8363 34.0062 44.8906 34.2798 44.3265L34.3467 44.1893C34.5899 43.678 34.7024 43.4442 34.4242 42.6101C34.222 42.0053 33.3936 41.1396 32.9193 40.7354C32.9148 40.7308 32.9102 40.7263 32.9056 40.7233C29.113 37.3675 23.0143 32.9528 20.494 31.5351C17.8065 30.0238 15.6586 29.0464 14.5428 28.6377C13.7356 28.3421 11.8659 27.9032 11.723 27.87C11.381 27.7976 5.97858 26.6604 5.54839 26.5609C3.97204 26.1974 3.54794 25.1612 3.67714 24.3121C3.85044 23.1763 4.87194 22.6379 5.74752 22.6183C6.46957 22.6032 8.00791 23.0135 9.49001 23.6122C11.2746 24.3347 12.743 24.3995 14.3984 24.2744C15.876 24.1627 16.6998 24.205 16.8458 24.214C23.0204 24.4297 28.4685 24.8294 31.0861 25.0224C31.8218 25.0767 32.3523 25.116 32.5606 25.125C33.6018 25.1733 34.8757 25.4523 34.9304 25.4644C35.3059 25.5473 72.5651 33.719 73.0484 33.8231C73.8085 33.9875 74.6537 34.3811 74.4485 35.9889C74.4409 36.0462 74.4485 36.0689 74.4485 36.0689C74.4606 36.087 74.526 36.1262 74.5807 36.1428L97.6862 41.1667C97.7045 41.1682 97.7212 41.1713 97.7394 41.1743C101.797 41.8922 105.319 43.9027 105.468 43.9887C105.676 44.1108 110.408 46.892 111.201 47.4305C111.232 47.426 111.287 47.4048 111.328 47.3807C111.553 47.1726 112.492 46.3053 112.909 45.9041C113.669 45.1757 114.672 44.9751 115.661 45.3566C116.108 45.5301 116.943 46.1047 117.25 47.1711C117.452 47.8739 117.47 49.0096 116.403 50.4259L116.4 50.4274Z" fill="#15151E"/>
<path d="M114.991 47.0429C114.582 46.886 114.339 47.0474 114.173 47.2073C113.687 47.6748 112.563 48.711 112.515 48.7547C112.497 48.7713 112.477 48.7879 112.457 48.8045C112.027 49.1393 111.063 49.5405 110.169 48.9297C109.573 48.5225 105.904 46.3551 104.54 45.5542C104.515 45.5391 101.196 43.6508 97.5008 42.9766C97.4597 42.9736 97.4202 42.9676 97.3807 42.9585L74.1672 37.9104C73.4589 37.7536 72.4708 37.0537 72.635 35.7657C72.6441 35.6963 72.6487 35.6405 72.6517 35.5953C71.9221 35.4369 36.0644 27.5714 34.5337 27.235C34.5215 27.232 33.3556 26.9786 32.4724 26.9379C32.2398 26.9274 31.726 26.8897 30.9493 26.8323C28.3393 26.6408 22.9095 26.2411 16.7637 26.0269C16.7515 26.0269 16.7394 26.0269 16.7272 26.0254C16.7211 26.0254 15.9778 25.9741 14.5337 26.0842C13.7463 26.1431 12.9178 26.1717 12.0225 26.0888C12.0514 26.0948 12.0787 26.1008 12.1076 26.1069C12.1137 26.1069 12.1198 26.1099 12.1259 26.1114C12.211 26.131 14.2312 26.6001 15.1737 26.947C16.3548 27.3813 18.6091 28.4024 21.3909 29.968C24.0419 31.4581 30.1725 35.8909 34.1111 39.3734C34.3087 39.5423 35.7345 40.7882 36.1556 42.0491C36.5858 43.3356 36.4384 44.043 35.996 44.972L35.9246 45.1198C35.882 45.2073 35.8288 45.3159 35.7923 45.4019C36.408 45.9298 40.7661 49.5647 43.5479 51.7456C45.9542 53.6324 51.46 56.664 57.3245 58.8102L58.1347 59.1073C63.1009 60.9293 66.6884 62.246 68.5809 61.1782C69.6434 60.5809 69.6784 60.3275 69.8122 59.3879L69.8198 59.3366C70.0219 57.9113 70.7653 57.3005 71.1894 57.0637C71.9965 56.6127 72.7748 56.6293 73.8754 57.121C74.6932 57.4875 80.5106 60.1963 80.7569 60.3109C81.2357 60.5341 82.6965 61.1103 83.7317 61.1103H83.7439C85.2655 61.1028 86.3813 60.9278 87.5715 60.0606C88.78 59.1782 89.578 58.9837 90.0067 58.8781L90.028 58.8736C90.3107 58.8042 94.3466 57.7469 96.4398 57.1979C96.5978 57.1557 97.4385 56.9581 98.1392 57.2462C98.6515 57.4573 99.2884 57.9369 99.6578 58.3849C99.8828 58.6594 100.216 58.9188 100.346 58.9731C100.473 58.9882 100.606 58.9686 100.801 58.9067C101.155 58.7891 105.074 57.1165 106.032 56.6625C107.129 56.1436 109.537 54.8707 110.212 54.3971C111.021 53.8315 113.023 51.8919 114.938 49.349C115.274 48.9025 115.643 48.2555 115.499 47.7005C115.395 47.3053 115.067 47.0836 114.991 47.0489V47.0429ZM104.463 53.3881C103.961 53.6249 102.397 54.3036 101.152 54.833C100.637 54.4469 100.079 54.1196 99.5347 53.8948C97.8382 53.1965 96.1449 53.5223 95.5064 53.6912C93.2202 54.29 89.4731 55.2719 89.1524 55.3518L89.1342 55.3563C88.2343 55.5765 86.9984 55.9777 85.4114 57.1361C85.1059 57.3593 84.8916 57.4754 83.753 57.483C83.4733 57.4588 82.7634 57.2356 82.3013 57.0245C81.9942 56.8812 76.2133 54.1905 75.3727 53.8134C73.2293 52.8557 71.2182 52.8843 69.4002 53.9009C67.9029 54.7349 66.8556 56.1376 66.3904 57.9023C66.0529 57.8585 65.5559 57.7635 64.8445 57.5674C63.376 57.1647 61.5322 56.489 59.3979 55.7062L58.5847 55.4076C53.1367 53.4137 47.9349 50.5661 45.8067 48.898C44.0358 47.5104 41.6523 45.5542 40.0106 44.1923C40.1231 43.2707 40.0471 42.1954 39.6169 40.9058C38.945 38.8908 37.2531 37.2785 36.5113 36.6435C34.3345 34.7205 31.2411 32.3058 28.4213 30.2757C29.3106 30.3375 30.0707 30.3933 30.6787 30.4386C31.6075 30.5064 32.0301 30.5381 32.3022 30.5502C32.6898 30.5683 33.3936 30.6904 33.7463 30.7674C35.0596 31.0554 61.6158 36.8803 69.6221 38.6359C70.4339 40.1125 71.8932 41.1154 73.3859 41.4442L96.5994 46.4924C96.7149 46.518 96.8304 46.5376 96.946 46.5542C99.857 47.1077 102.543 48.5903 102.709 48.6823C104.601 49.7939 106.804 51.1046 107.722 51.6702C106.924 52.1347 105.338 52.9748 104.463 53.3881Z" fill="#15151E"/>
</g>
<defs>
<clipPath id="clip0_3042_482">
<rect width="121" height="85" fill="white"/>
</clipPath>
</defs>
</svg>
