<svg width="121" height="85" viewBox="0 0 121 85" fill="none" xmlns="http://www.w3.org/2000/svg">
<path d="M112.706 59.1956L104.781 59.0434L88.1001 58.7543L71.2253 58.3776C71.0162 58.3714 66.2247 58.2361 65.034 58.1254C63.7808 58.007 63.3885 57.6242 62.8039 56.9584C62.6986 56.8385 62.578 56.7016 62.436 56.5509C61.7613 55.8359 61.2561 55.5284 60.0838 55.1225C59.2671 54.8396 57.9697 55.1486 57.1103 55.3547C56.9393 55.3962 56.7806 55.4331 56.6371 55.4638C55.4678 55.7191 54.5871 55.0272 54.1993 54.5182C53.0591 53.4127 35.7019 36.5898 33.2474 34.2158C30.7058 31.7572 29.2267 29.4093 29.0939 29.1955C26.8485 25.7636 20.8969 16.7133 20.2268 15.8861C19.9413 15.5355 19.4178 15.5355 19.3033 15.5401L8.92957 17.4083C8.88225 17.416 8.83493 17.4221 8.78761 17.4221C8.77081 17.4221 6.72996 17.496 5.98505 18.7737C5.25083 20.0314 5.54238 21.0201 5.58207 21.1354L7.59393 25.922C7.67788 26.1157 9.705 30.8377 10.0881 31.7649C10.3263 32.3399 10.9002 33.8129 11.0742 35.0692C11.0849 35.1476 11.1002 35.2014 11.1124 35.2352C11.2192 35.2567 11.5062 35.3136 12.0542 35.4305C13.112 35.655 13.4768 36.4807 13.5333 36.9635L14.8048 45.5402C14.8476 45.7985 15.8673 51.9597 16.1832 53.9647C16.4061 55.3854 16.7495 57.0061 16.9327 57.8441C17.0151 58.2238 17.125 58.5944 17.2563 58.948C17.7768 60.3488 19.7276 65.0969 22.9835 67.434C26.8867 70.2355 30.4692 70.191 30.5059 70.191C30.512 70.191 30.5226 70.191 30.5288 70.191C30.5761 70.191 35.2317 70.1956 37.2222 70.1848C39.0616 70.1756 41.0719 69.5052 41.0918 69.4975C41.1147 69.4898 44.2194 68.4089 45.1643 68.0291C45.9092 67.7293 46.4374 67.8815 46.7488 68.0629C47.3685 68.4227 47.4906 69.0808 47.5089 69.2084C47.5211 69.2992 47.5211 69.3914 47.5074 69.4837C47.5074 69.4837 47.4891 69.6467 47.486 70.0572L53.5704 70.0772L71.265 70.1079C71.2787 70.1079 88.8664 70.4001 92.4917 70.4585C95.2851 70.5031 98.28 70.3247 99.4386 70.2448C99.5332 70.2386 99.7897 70.2186 100.118 70.1925C101.563 70.0803 102.392 70.0187 102.624 70.0157C103.884 70.0018 106.272 69.7558 108.855 69.1131C112.467 68.2121 114.512 65.9195 115.224 64.0744C115.743 62.7244 115.532 61.1653 114.7 60.195C113.883 59.2448 112.752 59.1987 112.705 59.1971L112.706 59.1956ZM107.978 65.529C105.541 66.1363 103.441 66.3147 102.592 66.3239C102.27 66.327 101.73 66.3639 99.837 66.5115C99.5271 66.5361 99.2844 66.5545 99.1928 66.5607C98.08 66.636 95.2073 66.8082 92.5513 66.7667C88.9244 66.7083 71.3398 66.4162 71.3398 66.4162C71.3169 66.4162 71.294 66.4162 71.2726 66.4162L53.5842 66.3854L50.2199 66.3746C49.791 65.7642 49.2338 65.2445 48.5835 64.8663C47.1502 64.0313 45.4528 63.9375 43.8058 64.6018C43.1754 64.8555 41.1055 65.5889 39.924 65.9995C39.5149 66.1317 38.2037 66.4884 37.2039 66.493C35.2256 66.5038 30.5791 66.4992 30.5333 66.4992C30.4479 66.4992 30.483 66.4961 30.4387 66.4992C30.0769 66.4854 27.7522 66.3254 25.1099 64.428C23.1957 63.0534 21.5701 60.0274 20.6862 57.6503C20.6145 57.4581 20.5565 57.2613 20.5107 57.0476C20.3352 56.2496 20.01 54.712 19.8024 53.3866C19.4895 51.3954 18.5202 45.5463 18.424 44.9636L17.1632 36.4607C16.9571 34.88 15.9817 33.1748 14.176 32.2876C13.9317 31.4989 13.6631 30.8054 13.4707 30.3441C13.0845 29.4139 11.117 24.8272 10.9628 24.4674L9.5264 21.0509C9.54167 21.0478 9.55846 21.0447 9.57525 21.0416L18.2607 19.4779C19.8391 21.8043 23.0736 26.6985 26.0151 31.1929C26.3387 31.7095 27.9796 34.2342 30.7104 36.8774C33.0901 39.1792 49.4796 55.0641 51.5128 57.0353C52.7721 58.4991 54.9519 59.6077 57.4125 59.0726C57.5774 59.0372 57.759 58.9942 57.9559 58.9465C58.2765 58.8696 58.8382 58.7359 59.1557 58.7066C59.5465 58.8481 59.5877 58.8912 59.78 59.0957C59.8777 59.1987 59.9662 59.2986 60.0594 59.4063C60.9661 60.4395 62.1475 61.562 64.6921 61.8018C65.9514 61.9202 70.2652 62.0448 71.1169 62.0694C71.1261 62.0694 71.1337 62.0694 71.1429 62.0694L88.0131 62.4461C88.0131 62.4461 88.0284 62.4461 88.036 62.4461L104.709 62.7351L111.751 62.8705C111.522 63.3333 110.582 64.8816 107.978 65.5305V65.529Z" fill="#15151E"/>
<path d="M118.856 56.5709C116.55 53.8878 113.482 53.6756 112.813 53.6618L104.876 53.5096L88.2024 53.2205L71.3566 52.8438C69.8118 52.8007 67.5969 52.7254 66.3483 52.6639C64.889 51.1401 63.5503 50.4697 61.8728 49.8885C60.1708 49.2981 58.4718 49.438 57.1393 49.684C53.3598 46.0215 39.2524 32.3476 37.0558 30.2226C35.0547 28.2868 33.8427 26.3971 33.7587 26.2633C33.7328 26.2203 33.7206 26.2018 33.6915 26.1572C30.6249 21.4706 25.3511 13.449 24.4825 12.3788C22.837 10.3538 20.4054 9.84333 18.679 10.0386C18.5813 10.0494 18.4836 10.0647 18.3874 10.0817L8.24877 11.9068C5.9301 12.0728 2.86042 13.2091 1.25155 15.9676C-0.33748 18.6922 -0.192468 21.4737 0.474588 23.1697C0.488326 23.2035 0.500538 23.2358 0.514276 23.2696L2.53529 28.0792C2.53987 28.09 2.54445 28.1008 2.54903 28.1115C3.27409 29.7998 4.72268 33.1794 5.01881 33.896C5.35616 34.7094 5.58665 35.5012 5.63244 35.8318C5.85989 37.477 6.67501 38.8778 7.92822 39.7727C8.09307 39.8911 8.26556 39.9987 8.44263 40.0971L9.37223 46.3643C9.37681 46.3905 9.37987 46.4166 9.38445 46.4412C9.39513 46.5043 10.4392 52.813 10.7567 54.8288C11.0025 56.3941 11.3703 58.1377 11.5673 59.0357C11.7062 59.6692 11.8893 60.295 12.1107 60.8885C14.5545 67.4586 17.9737 70.6338 19.7963 71.9407C24.8763 75.5864 29.6419 75.7294 30.5532 75.7248C30.9791 75.7248 35.305 75.7294 37.2543 75.7186C39.9301 75.7048 42.5541 74.8422 42.8456 74.7438C42.8578 74.7392 42.8701 74.7361 42.8807 74.7315C42.9907 74.693 43.3814 74.5577 43.8943 74.3763C44.8086 75.1389 45.9764 75.5879 47.222 75.5895L53.5613 75.611L71.2238 75.6417C72.074 75.6556 88.8725 75.9354 92.4078 75.9923C92.7359 75.9969 93.0657 76 93.3954 76C96.0804 76 98.7196 75.8416 99.8095 75.7678C99.9118 75.7617 100.19 75.7401 100.544 75.7125C101.107 75.6679 102.406 75.5679 102.731 75.5526C104.369 75.5295 107.168 75.2389 110.179 74.4885C115.833 73.0786 119.14 69.2192 120.351 66.0733C121.601 62.8166 121.015 59.0895 118.856 56.574V56.5709ZM116.935 64.7386C116.057 67.0174 113.592 69.8312 109.299 70.9029C106.567 71.584 104.071 71.8439 102.646 71.8608C102.43 71.8623 100.965 71.9761 100.261 72.0315C99.924 72.0576 99.6599 72.0776 99.5637 72.0853C98.512 72.1575 95.9674 72.3098 93.3999 72.3098C93.087 72.3098 92.7756 72.3082 92.4642 72.3021C88.8374 72.2436 71.2497 71.9515 71.2497 71.9515L53.5674 71.9208L47.2235 71.8992C46.5305 71.8992 45.9153 71.4333 45.7291 70.766C45.6802 70.5907 45.6558 70.4001 45.6558 70.2033C45.6558 70.0556 45.6573 69.9265 45.6604 69.8142C44.5247 70.2555 41.8077 71.1996 41.6855 71.2427C41.5848 71.2765 39.3745 72.0161 37.2344 72.0284C35.2836 72.0392 30.7867 72.0345 30.5394 72.0345C30.2113 72.0422 26.2562 72.0468 21.9227 68.9363C18.3447 66.367 16.2687 61.5481 15.5421 59.5954C15.3803 59.1618 15.2475 58.7066 15.1452 58.2423C14.9575 57.3828 14.6064 55.7222 14.3744 54.2538C14.0554 52.2241 13.0082 45.9 12.9975 45.837C12.9975 45.8323 12.996 45.8262 12.9945 45.8216L11.723 37.251C11.7123 37.2464 11.697 37.2418 11.6756 37.2387C11.1337 37.1234 10.8575 37.068 10.7598 37.048C10.2576 36.9865 9.43329 36.576 9.25928 35.3259C9.14174 34.4741 8.73723 33.2963 8.39836 32.4768C8.01828 31.5604 5.93163 26.6985 5.91026 26.6493L3.88619 21.8335C3.88619 21.8335 3.88009 21.8197 3.87856 21.8135C3.84956 21.7382 3.17182 19.9576 4.40824 17.8404C5.57291 15.8415 8.16787 15.6093 8.66854 15.5816L19.0285 13.7165C19.0484 13.7135 19.0667 13.7104 19.0865 13.7073C19.2499 13.6889 20.7046 13.5597 21.6448 14.7175C22.4981 15.7692 29.8006 26.9214 30.631 28.1899C30.6356 28.1976 30.6402 28.2053 30.6448 28.213C30.6585 28.2361 32.0842 30.5317 34.5158 32.8858C37.0421 35.3305 55.3426 53.0667 55.5258 53.2451C55.5777 53.2958 55.6067 53.325 55.6433 53.385C55.6876 53.4434 55.9273 53.7325 56.2478 53.6618C56.3806 53.6326 56.5272 53.5972 56.6859 53.5603C57.7498 53.3066 59.3587 52.9222 60.6776 53.3789C61.9476 53.8202 62.7734 54.2338 63.761 55.2809C63.9258 55.4562 64.0571 55.6053 64.1731 55.7375C64.5914 56.2142 64.6082 56.2326 65.2019 56.2895C66.333 56.3956 71.2177 56.534 71.268 56.5355L88.1337 56.9123L104.812 57.2013L112.742 57.3536C112.816 57.3536 114.717 57.3966 116.084 58.988C117.367 60.4826 117.699 62.7398 116.932 64.7402L116.935 64.7386Z" fill="#15151E"/>
</svg>
