<svg width="121" height="85" viewBox="0 0 121 85" fill="none" xmlns="http://www.w3.org/2000/svg">
<g clip-path="url(#clip0_3042_403)">
<path d="M111.4 63.1833C109.264 62.1186 106.703 62.8548 106.081 63.4028C105.458 63.9508 105.65 65.0302 106.003 65.7895C106.822 67.549 106.94 68.881 106.361 69.8598C105.783 70.8369 104.495 70.8386 104.352 70.832C102.863 70.7891 67.9747 69.7789 67.4184 69.7476C66.7777 69.7113 65.8407 69.5941 65.1007 68.9933C64.4038 68.4271 64.0892 67.5969 64.0379 67.4516C63.8574 66.9565 62.389 62.9175 62.2251 62.3646C62.1043 61.9602 61.7732 60.5506 62.5595 59.4117C63.0843 58.6524 64.4865 57.4723 66.4135 57.8635C67.8753 58.1589 71.529 58.6359 72.6316 58.6409H72.6531C74.7605 58.6409 76.6759 57.4607 77.7818 55.4801C78.8363 53.5918 78.7834 51.5831 77.6278 49.5116C77.3232 48.9653 76.5832 47.8181 75.9326 46.8047C75.4409 46.0405 74.9757 45.3191 74.6877 44.8421L74.638 44.7613C71.3022 39.2847 72.4494 34.9882 73.999 32.3473C77.704 26.0389 84.1786 26.5291 84.6422 26.5736C85.1173 26.6083 98.2702 27.5673 101.046 27.4468C102.672 27.3758 105.256 26.9665 108.341 25.4149L108.372 25.3984C108.912 25.1277 109.014 24.8356 109.003 24.4543C108.973 24.3553 108.65 24.1556 108.357 24.0813C101.748 22.4324 91.6962 19.94 91.0887 19.8311C90.2146 19.6792 88.8123 19.8476 88.3472 19.9252C88.3405 19.9252 88.3339 19.9268 88.3273 19.9285C88.1468 19.9549 70.1831 22.5892 67.276 22.9705C64.0081 23.3996 61.9603 21.8019 60.818 20.384C60.025 19.4019 59.4472 18.4628 59.0996 17.5929C58.141 15.193 59.1592 13.8494 59.8528 13.2635C60.9686 12.3177 62.053 12.2319 62.7665 12.3259C63.7714 12.4596 64.72 13.0439 65.3043 13.8907C65.4037 14.0343 65.503 14.1845 65.604 14.3347C66.3059 15.3894 66.8109 16.076 67.4913 16.048C69.0242 15.9753 69.6997 14.4007 69.9199 13.7256C70.4165 12.2021 69.9513 10.8025 68.5375 9.56454C67.1717 8.36953 64.6405 7.32472 62 8.31671C59.1012 9.40443 57.8447 12.3639 57.7768 12.529L36.0137 71.956C35.5982 73.2814 34.7108 73.6281 34.1711 73.6281H34.1645C33.1696 73.6726 12.4825 74.6052 11.2144 74.6861C10.2642 74.7471 7.08727 76.264 6.15357 77.0513L106.476 76.5727C109.008 76.5083 111.352 75.3975 112.91 73.5224C114.224 71.9412 114.958 70.2923 115.034 68.7539C115.156 66.2484 114.001 64.4773 111.4 63.18V63.1833ZM39.8859 72.9348L58.0682 23.2841C60.563 26.1197 63.9965 27.4022 67.7959 26.9038C68.7643 26.7767 71.3121 26.4135 74.3168 25.9794C72.9395 27.0837 71.6482 28.5164 70.5705 30.3518C68.8537 33.275 66.6602 39.3012 71.2426 46.8228L71.2873 46.8954C71.6052 47.4187 72.0836 48.1614 72.5902 48.9488C73.1481 49.8153 73.9129 51.0037 74.1579 51.4411C74.7738 52.5453 74.5834 53.0719 74.3119 53.5571C73.9063 54.2834 73.3186 54.6828 72.6547 54.6828H72.6481C71.8584 54.6779 68.5011 54.2471 67.2065 53.9846C63.7416 53.2831 60.7352 55.0773 59.2899 57.1669C57.5517 59.6824 58.1013 62.4306 58.4175 63.4952C58.5847 64.0581 59.5283 66.6742 60.2965 68.7836C60.5266 69.4356 61.1755 70.9178 62.5943 72.0699C62.9519 72.3588 63.3327 72.6097 63.7383 72.8226L39.8859 72.9365V72.9348ZM111.064 68.5658C111.052 68.7935 110.969 69.3168 110.513 70.0777C110.718 69.2227 110.751 68.3132 110.615 67.3509C111.104 67.7817 111.085 68.1416 111.065 68.5658H111.064Z" fill="#15151E"/>
<path d="M114.067 57.8701C109.791 55.7359 104.642 56.7427 102.136 58.9496C100.465 60.4202 99.6327 62.5131 99.7171 64.7546C92.7574 64.5532 83.0132 64.2693 76.1031 64.0663C78.9671 63.1783 81.4222 61.1861 82.9933 58.3702C85.0577 54.6713 85.0014 50.5003 82.8377 46.6248C82.4685 45.9645 81.851 44.9973 80.9488 43.5976C80.5001 42.9011 80.0366 42.1814 79.7899 41.7721L79.7336 41.6796C78.2172 39.1922 78.0367 37.2396 79.1443 35.353C79.8876 34.087 80.8693 33.2584 82.1457 32.8194C83.086 32.4959 83.8939 32.4909 84.0959 32.4959C84.1124 32.4975 84.1157 32.4992 84.1207 32.4992C84.1273 32.4992 84.1372 32.4992 84.1935 32.5025C86.5178 32.6742 98.2718 33.5192 101.308 33.3872C104.477 33.2485 107.837 32.3292 111.026 30.7248L111.056 30.71C113.58 29.4423 115.04 27.0424 114.963 24.2926C114.87 21.0112 112.3 18.9299 109.787 18.3159C98.7089 15.5512 92.7607 14.092 92.1084 13.9798C90.2377 13.6563 88.1121 13.9468 87.4201 14.059C86.8539 14.1416 80.957 15.0065 75.5121 15.7971C75.5386 15.7212 75.5651 15.6436 75.5899 15.566C76.8167 11.7994 75.6512 7.88921 72.471 5.1047C69.0408 2.10232 64.1074 1.1813 59.9008 2.76089C54.537 4.77459 52.4412 9.81873 52.2193 10.3882C52.2077 10.4195 52.1962 10.4509 52.1846 10.4823L31.1879 67.8197C25.1619 68.092 11.9197 68.6929 10.8386 68.7622C9.14505 68.8695 7.0045 69.7872 5.50627 70.5382C2.51314 72.0386 1.02651 73.3821 0.380868 75.1763C-0.282985 77.0167 -0.0611492 78.9462 0.985123 80.4697C2.03967 82.0047 3.83423 82.9505 5.7844 82.9983C5.82578 82.9983 5.86552 82.9983 5.9069 82.9983H5.93008L106.52 82.5197C106.553 82.5197 106.584 82.5197 106.617 82.5197C110.875 82.4157 114.843 80.5208 117.504 77.3187C119.648 74.7405 120.853 71.8801 120.99 69.0477C121.128 66.2319 120.411 61.0342 114.07 57.8701H114.067ZM34.4344 67.6976C34.3615 67.6943 34.2903 67.691 34.2175 67.6893C34.2887 67.6893 34.3615 67.6926 34.4344 67.6976ZM117.017 68.8546C116.921 70.8237 116.03 72.877 114.439 74.7901C112.512 77.1091 109.624 78.4824 106.516 78.5583C106.51 78.5583 106.503 78.5583 106.496 78.5583L5.9069 79.037H5.90194C5.90194 79.037 5.88538 79.037 5.8771 79.037C5.69666 79.032 4.76958 78.9726 4.25803 78.2298C4.02957 77.8981 3.81933 77.3319 4.114 76.5149C4.21665 76.231 4.48815 75.4767 7.28427 74.077C7.71139 73.8624 9.90492 72.7912 11.0869 72.7153C12.3617 72.6344 32.0918 71.7448 33.9907 71.6589C34.0221 71.6094 34.0702 71.517 34.1198 71.3569C34.1248 71.3404 34.1314 71.3222 34.1364 71.3057L55.9144 11.8407C55.9144 11.8407 55.9194 11.8275 55.921 11.8225C55.9839 11.6624 57.4855 7.90242 61.298 6.46972C64.7613 5.16907 68.0674 6.52584 69.8454 8.08233C71.8518 9.84018 72.5488 12.0635 71.8071 14.3429C71.0837 16.5629 69.5043 17.9412 67.5823 18.032C65.7248 18.1161 64.6984 16.5679 63.9452 15.4356C63.8508 15.2937 63.7581 15.155 63.6654 15.0197C63.4651 14.7308 63.0413 14.366 62.5033 14.2951C62.0463 14.234 61.5878 14.3974 61.1391 14.7787C59.9058 15.8235 61.5861 18.1822 62.3658 19.1477C63.5644 20.6333 65.1272 21.2605 67.0161 21.0112C69.8834 20.6349 87.5343 18.0468 88.0293 17.9742C88.2793 17.9329 90.0821 17.6507 91.428 17.8834C92.2425 18.0237 107.142 21.7408 108.837 22.1633C109.612 22.3482 110.95 23.0332 110.988 24.4031C111.022 25.6312 110.426 26.5885 109.264 27.1712L109.233 27.186C106.543 28.5395 103.742 29.3136 101.131 29.4275C98.2056 29.5546 85.0411 28.5906 84.4816 28.5494C84.4716 28.5494 84.4617 28.5494 84.4518 28.5461C84.2266 28.5246 78.8115 28.0674 75.7108 33.3492C73.8533 36.5134 74.0619 40.0076 76.3332 43.7346L76.3846 43.8204C76.6594 44.2743 77.1163 44.9841 77.6013 45.7368C78.3016 46.8245 79.0267 47.9485 79.3611 48.551C80.8527 51.2232 80.9057 53.9533 79.5151 56.4456C78.0483 59.0733 75.474 60.643 72.6216 60.6232C71.2939 60.6183 67.478 60.1033 66.0146 59.8062C65.0676 59.6131 64.3773 60.27 64.1919 60.5374C63.98 60.8444 64.0081 61.4089 64.1256 61.8034C64.2382 62.1814 65.2514 64.989 65.9036 66.7848C65.9053 66.7914 65.9086 66.798 65.9103 66.8046C65.9467 66.9086 66.1139 67.2668 66.349 67.4582C66.6751 67.724 67.3141 67.7586 67.5244 67.7718C68.0756 67.7999 91.87 68.4915 104.386 68.853C104.475 68.853 104.601 68.8298 104.667 68.8034C104.75 68.6054 104.846 68.0227 104.194 66.623C103.336 64.7827 103.553 62.9786 104.758 61.9189C106.048 60.7833 109.533 60.0422 112.281 61.4122C115.578 63.0578 117.169 65.5617 117.009 68.8546H117.017Z" fill="#15151E"/>
</g>
<defs>
<clipPath id="clip0_3042_403">
<rect width="121" height="85" fill="white"/>
</clipPath>
</defs>
</svg>
