<svg width="121" height="85" viewBox="0 0 121 85" fill="none" xmlns="http://www.w3.org/2000/svg">
<path d="M113.709 43.4713L112.476 34.1422C112.472 34.1025 111.983 30.5482 109.363 27.7387C106.712 24.8956 104.776 24.1188 104.756 24.1111C104.737 24.1035 104.714 24.0944 104.696 24.0852L97.7475 20.8438C97.2808 20.6255 96.7988 20.4973 96.3152 20.4622C94.9197 20.3615 94.0262 20.9933 93.5871 22.3928C93.3384 23.5984 93.7329 24.4988 94.76 25.0711C95.1945 25.3122 95.7886 25.4648 96.4779 25.5121C97.2133 25.5625 98.7439 25.6632 99.82 25.7258C101.457 25.8173 102.25 26.6582 102.494 26.9772C102.761 27.258 103.283 28.0027 103.598 29.7196C104.005 31.94 102.53 33.8828 102.467 33.9637C102.456 33.9774 102.447 33.9896 102.436 34.0018C102.178 34.3024 76.5985 64.0019 75.9 64.8443C75.1017 65.8057 74.3586 66.2712 73.4206 66.3994L73.3684 66.407C72.9217 66.4681 72.8541 66.465 72.022 66.4208C71.6045 66.3994 70.972 66.3658 69.9664 66.3231C66.8607 66.1903 63.0948 64.4628 62.691 64.272C62.0109 63.9988 60.9409 63.1976 61.0729 61.8425C61.2004 60.5407 62.4439 59.8005 63.1577 59.5701C63.1915 59.5594 66.9344 58.3278 68.7966 57.667C69.01 57.5923 69.1358 57.5007 69.1712 57.3954C69.2571 57.1451 69.0714 56.6461 68.8933 56.3561C68.4834 55.8662 64.9125 51.5993 61.9618 48.1503C58.5798 44.2007 58.982 40.4313 59.0004 40.2726L59.2153 38.4718C59.2169 38.4565 59.2199 38.4397 59.2215 38.4244C59.4594 37.0464 60.0167 33.0877 59.7419 31.3372C59.4794 29.6738 58.7072 29.1091 58.6012 29.0405C58.5583 29.0191 58.5506 29.0115 58.5061 28.9794L53.4706 25.3061C53.4476 25.2893 53.4245 25.271 53.403 25.2511L46.7709 20.5263C46.6573 20.4455 35.8019 12.6288 33.8921 11.2904C32.8804 10.5823 32.3845 10.5044 32.2939 10.4968C32.2755 10.4999 32.2571 10.5014 32.2371 10.5029C32.2295 10.5029 31.1671 10.6067 29.4645 11.1958C27.6023 11.8413 25.9336 13.3888 24.8405 14.4967C24.1021 15.2445 24.3999 15.8656 24.5918 16.1251C24.7177 16.2472 25.1644 16.6714 25.995 17.3841C27.2569 18.4676 26.9207 19.8259 26.3865 20.4745C26.3711 20.4943 26.3542 20.5126 26.3358 20.5309C26.302 20.5645 25.5022 21.3855 24.0253 22.6568C22.8263 23.6884 20.5174 25.8173 19.8388 26.4461C19.7236 26.5529 19.1833 27.1283 19.0436 27.29C18.6674 27.7234 18.0626 28.3613 15.6078 30.4368C13.3433 32.3521 10.1286 33.9362 8.58418 34.6977C7.34834 35.3066 6.58227 35.853 6.07258 36.9945C5.67957 37.8735 4.61107 40.9105 7.36983 43.0867C12.2671 46.9477 22.1493 51.7137 22.2491 51.761C22.2552 51.7641 22.2598 51.7671 22.266 51.7687L29.0746 55.21C29.2558 55.3001 47.689 64.475 49.9396 65.5799C52.5249 66.8496 53.2587 68.1117 55.2238 71.4889C56.8158 74.2237 58.5352 74.4481 58.6964 74.4633C58.7717 74.4603 58.7931 74.4648 58.8684 74.4862C59.028 74.5152 60.792 74.7685 63.0272 72.5236C64.4197 71.1242 66.4001 70.5122 68.752 70.7518C70.3164 70.9121 71.5507 71.4004 71.7825 71.4966C72.0696 71.5958 74.4246 72.4077 75.6405 72.8014C77.1573 73.2913 78.1398 72.545 78.1813 72.513C78.192 72.5038 78.1936 72.5038 78.2043 72.4962C78.2488 72.4626 79.3189 71.6614 81.1013 70.6877C82.945 69.679 85.6762 69.5798 86.0016 69.5706C86.235 69.5538 88.1862 69.4104 92.7381 69.1097C97.6078 68.7877 98.3662 68.6855 102.878 67.7439C107.304 66.8206 112.08 64.9801 112.128 64.9618C112.151 64.9527 112.174 64.945 112.198 64.9374C112.201 64.9374 113.371 64.5498 114.53 63.1198C115.625 61.7677 115.473 59.5838 115.464 59.4633L113.714 43.4697L113.709 43.4713ZM60.4067 69.9506C59.897 70.4619 59.5132 70.6847 59.2967 70.7808C59.1063 70.6267 58.7839 70.3001 58.4109 69.6591C56.3798 66.1674 55.1532 64.0599 51.5685 62.3003C49.3516 61.2122 31.3006 52.228 30.7296 51.9426L23.9332 48.5074C23.9056 48.4937 23.8779 48.4799 23.8503 48.4662C23.7551 48.4204 14.2291 43.8253 9.65729 40.2207C9.4178 40.0314 8.92039 39.6392 9.43776 38.484C9.45465 38.4458 9.46693 38.4229 9.47307 38.4122C9.51298 38.3756 9.67725 38.2474 10.2192 37.9804C11.8956 37.1532 15.3836 35.4333 17.9935 33.2265C20.4007 31.1907 21.2251 30.3834 21.8269 29.689C21.9236 29.5792 22.2598 29.219 22.3857 29.0923C23.098 28.4331 25.3026 26.4018 26.434 25.4282C28.0076 24.0745 28.8873 23.1756 28.9825 23.078C29.07 22.9879 29.1544 22.8933 29.2343 22.7956C29.592 22.3622 30.2245 21.4359 30.4578 20.1067C30.7449 18.4615 30.2936 16.7996 29.2358 15.478C29.7025 15.1285 30.2014 14.8202 30.6728 14.657C31.1195 14.5028 31.5018 14.3929 31.8073 14.3151C33.8138 15.7237 44.4942 23.4137 44.6032 23.4916C44.6094 23.4961 44.6155 23.5007 44.6216 23.5053L51.157 28.1614C51.2 28.195 51.2445 28.2286 51.2891 28.2621L56.0682 31.7478C56.0789 31.7905 56.0896 31.8424 56.0989 31.9049C56.2401 32.8084 55.9438 35.74 55.5876 37.8064C55.5738 37.8842 55.5631 37.9636 55.5539 38.0414L55.3389 39.8452C55.2729 40.4053 54.817 45.4598 59.1539 50.5249C60.5893 52.2021 62.1721 54.0731 63.4633 55.6068C62.6404 55.88 62.0386 56.0784 61.9971 56.0921C60.0551 56.727 57.6939 58.5186 57.4038 61.4884C57.1106 64.4902 59.1232 66.7336 61.1896 67.6172C61.4429 67.7347 61.9726 67.9728 62.691 68.2551C61.8513 68.7023 61.0837 69.2685 60.4067 69.9476V69.9506ZM111.627 60.8581C111.279 61.2809 110.983 61.4609 110.892 61.5113C110.857 61.5235 110.821 61.5372 110.788 61.5494C110.743 61.5662 106.23 63.3014 102.117 64.1606C97.7966 65.0625 97.1657 65.1465 92.4894 65.4563C88.2338 65.7371 86.2826 65.879 85.8113 65.9126C84.9024 65.9416 81.7737 66.1384 79.322 67.4799C78.0109 68.1971 77.0268 68.8412 76.4741 69.2227C76.4496 69.215 76.4235 69.2059 76.3989 69.1983C77.2417 68.7206 78.017 68.0506 78.7401 67.1808C79.4233 66.3643 98.0975 44.6738 105.236 36.3856C105.29 36.323 105.342 36.2604 105.391 36.1948C105.734 35.7507 107.16 33.7531 107.338 31.0702C108.503 32.7412 108.806 34.5192 108.826 34.6351L110.051 43.9077L111.785 59.7731C111.801 60.1393 111.724 60.6613 111.627 60.8581Z" fill="#15151E"/>
<path d="M120.961 58.9505C120.96 58.9276 120.957 58.9047 120.954 58.8803L119.202 42.8654C119.199 42.8318 119.194 42.7983 119.19 42.7647L117.955 33.4265C117.869 32.7672 117.128 27.9829 113.414 24.0013C110.352 20.7171 107.831 19.4443 106.957 19.0704L100.095 15.8687C99.0141 15.3635 97.878 15.066 96.7174 14.982C92.7028 14.6905 89.4743 16.9354 88.286 20.8377C88.2492 20.9582 88.2185 21.0803 88.1908 21.2024C87.4171 24.7872 88.9001 28.105 92.0642 29.8645C93.2233 30.5086 94.5804 30.887 96.0987 30.9908C96.4702 31.0168 97.0444 31.0549 97.6631 31.0946C94.2181 35.0945 80.8126 50.6622 74.6948 57.78C74.8867 55.6236 73.8535 53.8518 73.4774 53.2887C73.3853 53.1513 73.2855 53.017 73.1796 52.8904C73.1412 52.8446 69.3078 48.2602 66.1667 44.5899C64.5609 42.7158 64.498 41.0768 64.4995 40.8021L64.6868 39.2363C64.9432 37.7301 65.6294 33.222 65.1996 30.4918C64.6331 26.8871 62.6818 25.1489 61.664 24.4728L56.9171 21.0101C56.8465 20.9536 56.7759 20.8987 56.7022 20.8468L49.9995 16.0717C49.4391 15.6688 39.0043 8.15577 37.0746 6.80364C35.0389 5.37521 33.1552 4.79224 31.4634 5.06541C30.8585 5.14172 29.4937 5.37063 27.6423 6.0116C24.687 7.03714 22.375 9.15079 20.895 10.6509C18.2882 13.2911 18.3957 16.6745 19.8618 18.9835C18.6029 20.0945 16.8451 21.7136 16.0714 22.4294C15.7152 22.759 15.0198 23.519 14.8524 23.7113C14.7296 23.8532 14.3581 24.2836 12.0261 26.2553C10.2791 27.7326 7.47576 29.1152 6.12785 29.7791C4.30249 30.6795 2.26987 31.9751 1.02175 34.7664C-1.05385 39.4057 0.0898792 44.3625 3.93404 47.3949C9.18445 51.5352 18.9545 56.2829 19.7989 56.6903L26.5676 60.1119C26.5753 60.1164 26.5845 60.121 26.5937 60.1241C27.3536 60.5025 45.2265 69.3982 47.491 70.5092C48.4934 71.0021 48.5763 71.0418 50.4385 74.2436C53.1113 78.8356 56.6132 79.7421 58.0255 79.9176C58.3142 79.9618 58.7026 80 59.1708 80C60.9639 80 63.9284 79.4323 66.9558 76.3923C67.2967 76.0505 68.7229 76.2015 69.6286 76.5602C69.753 76.6166 69.8006 76.6319 69.9388 76.6792C70.0462 76.7158 72.5901 77.5949 73.9318 78.0283C77.1297 79.0614 79.999 78.0695 81.5572 76.8639C81.7261 76.7418 82.5305 76.1756 83.7633 75.5011C84.1241 75.3042 85.297 75.0875 86.1367 75.0631C86.2319 75.0631 86.2918 75.0585 86.3885 75.0508C86.4069 75.0508 88.2937 74.9089 93.1004 74.5915C98.2234 74.2527 99.2428 74.1154 104.008 73.1219C108.554 72.1742 113.241 70.4207 114.022 70.1231C114.888 69.8224 116.931 68.9098 118.831 66.5657C121.258 63.5685 121.03 59.6968 120.961 58.952V58.9505ZM64.498 40.8296C64.4934 40.886 64.4872 40.9181 64.4872 40.9211L64.498 40.8296ZM115.96 64.269C114.53 66.0331 113.069 66.581 112.763 66.6802C112.32 66.8511 107.699 68.6092 103.251 69.5371C98.6686 70.4924 97.7936 70.6114 92.8563 70.938C88.0235 71.257 86.1306 71.3989 86.1122 71.4004C86.0953 71.4004 86.0769 71.4019 86.06 71.4035C86.0354 71.4035 83.5054 71.463 81.9855 72.2947C80.3858 73.1692 79.3895 73.9017 79.3158 73.9566C79.0763 74.1413 77.4306 75.3118 75.0679 74.5472C73.7614 74.1245 71.1715 73.2302 71.1454 73.2211C71.1224 73.2134 71.1009 73.2043 71.0794 73.1951C71.038 73.1768 66.7578 71.3806 64.3322 73.8162C62.3441 75.8124 60.3882 76.348 59.1677 76.348C58.9252 76.348 58.7118 76.3267 58.5322 76.2916C57.4606 76.2122 55.319 75.321 53.6241 72.4092C51.6268 68.9754 51.134 68.2155 49.1198 67.225C46.8661 66.1186 28.4267 56.9406 28.241 56.8491L21.4354 53.4092C20.918 53.1605 11.2478 48.4891 6.21996 44.5243C3.20328 42.1451 3.29386 38.6915 4.38539 36.2528C5.11308 34.626 6.26141 33.7988 7.76285 33.0587C9.24125 32.3292 12.3193 30.8123 14.4118 29.0435C16.6532 27.1481 17.2903 26.5071 17.645 26.0981C17.7862 25.9348 18.3788 25.2954 18.5815 25.1077C19.2662 24.4744 21.5951 22.3271 22.8171 21.2741C24.033 20.2287 24.776 19.4947 24.9618 19.307C25.0923 19.101 24.9863 18.9438 24.7868 18.7713C23.7321 17.8648 23.2654 17.4009 23.2454 17.3826C23.227 17.3643 23.2101 17.3459 23.1932 17.3261C22.5976 16.6226 21.9006 14.8569 23.5218 13.2163C24.7438 11.9771 26.6275 10.2419 28.8535 9.46974C30.573 8.87456 31.7305 8.7189 32.0115 8.68838C32.4582 8.60749 33.3701 8.68838 34.9498 9.79633C36.8704 11.1423 47.735 18.9651 47.844 19.0445L54.5544 23.8242C54.5836 23.8456 54.6128 23.8685 54.6389 23.8914L59.5592 27.4808C59.9016 27.6929 61.1758 28.6299 61.5581 31.0564C61.9265 33.4036 61.1128 38.2779 61.0376 38.7129L60.8258 40.4893C60.8135 40.6113 60.5249 43.6544 63.3604 46.9645C66.4876 50.618 70.3072 55.1871 70.3456 55.2314C70.3671 55.2573 70.387 55.2833 70.4055 55.3107C70.5006 55.4542 71.3281 56.7483 70.9167 57.9723C70.7632 58.4301 70.3763 59.0497 69.4122 59.39C67.53 60.0569 63.7672 61.2946 63.7288 61.3068C63.4847 61.3892 62.9351 61.6853 62.9029 62.0164C62.8691 62.3568 63.3896 62.575 63.3942 62.5765C63.4172 62.5857 63.4295 62.5902 63.451 62.6009C63.4878 62.6177 67.2046 64.3666 70.0416 64.4887C71.0564 64.5314 71.6935 64.565 72.1141 64.5864C72.5982 64.6118 72.9319 64.6118 73.1151 64.5864L73.1688 64.5788C73.4728 64.5375 73.8489 64.4307 74.4768 63.6722C75.1815 62.8237 99.6865 34.3696 101.013 32.8298C101.119 32.6833 102.028 31.3769 101.784 30.0401C101.566 28.8451 101.259 28.3659 101.174 28.253C101.07 28.1874 101.079 28.1828 101.014 28.0622C100.951 27.9844 100.588 27.5937 99.7126 27.5449C98.6272 27.4838 97.0874 27.3816 96.3489 27.3312C95.3771 27.2656 94.5389 27.0397 93.8588 26.6613C92.1102 25.6891 91.3564 23.9769 91.7909 21.9639C91.7955 21.9395 91.8032 21.9151 91.8093 21.8907C92.491 19.6519 94.1782 18.4615 96.4457 18.6263C97.1549 18.6782 97.855 18.8629 98.5259 19.1757L105.45 22.4065C105.78 22.5408 107.911 23.4839 110.709 26.4842C113.746 29.7394 114.279 33.7317 114.299 33.8996L115.533 43.2332C115.533 43.2332 115.534 43.2469 115.536 43.253L117.288 59.2679C117.3 59.4037 117.552 62.2896 115.957 64.2598L115.96 64.269Z" fill="#15151E"/>
</svg>
