<svg width="121" height="85" viewBox="0 0 121 85" fill="none" xmlns="http://www.w3.org/2000/svg">
<g clip-path="url(#clip0_3042_503)">
<path d="M113.698 66.5993C113.578 66.4985 113.44 66.4088 113.287 66.3384C113.202 66.3 104.757 62.3951 103.506 61.7995C102.005 61.0839 101.382 60.1377 100.815 58.7464C100.465 57.8882 100.53 56.8252 100.647 56.0855C100.717 55.6372 100.847 55.1937 101.038 54.7695L101.615 53.4823C101.809 53.0132 101.893 52.5104 101.86 52.0285C101.831 51.5947 101.737 51.1752 101.583 50.783C101.26 49.9584 100.26 49.3516 99.8443 49.1275C99.6772 49.0378 99.4989 48.9674 99.3094 48.921C96.8339 48.295 86.0118 45.5476 82.1831 44.5518C77.7575 43.3991 76.0047 39.2925 75.8838 38.9963L75.8233 38.849C75.7325 38.6329 75.0862 36.9422 75.0305 32.9125C74.9779 29.1533 77.7639 27.1344 79.246 26.5933C79.2571 26.5885 79.2699 26.5853 79.281 26.5805C79.3415 26.5612 85.4291 24.5968 89.7879 23.1783C94.0783 21.7822 96.9024 20.439 96.931 20.4262C96.9581 20.4134 100.782 18.5162 102.805 17.4963C104.958 16.4108 106.726 17.5491 107.363 18.3016C107.796 18.8251 111.539 23.3576 111.849 23.7851C111.954 23.9308 112.558 24.4671 113.29 24.5472C113.774 24.6 114.218 24.4415 114.645 24.0637C114.874 23.8603 115.571 23.2407 115.118 21.9327C115.041 21.715 114.915 21.5068 114.743 21.3179L113.265 19.6945C110.382 16.5309 104.383 9.94914 103.425 8.90208C102.63 8.03433 101.479 8.3017 101.288 8.35453C100.944 8.49382 98.5946 9.43842 96.3659 10.3142C93.8729 11.2924 92.117 9.61453 91.5025 8.54345C91.1713 8.09036 90.7877 7.87903 90.1079 7.76856C89.8118 7.72053 89.2387 7.87423 88.6831 8.1512C88.5064 8.23766 87.3984 8.75799 87.2217 8.83484L70.4281 16.2379C70.2546 16.3148 52.9373 23.9804 50.5557 25.0531C48.3126 26.0649 46.9165 27.2369 46.9037 27.2481C46.4596 27.6259 35.9861 36.542 35.2633 37.1183C34.4307 37.7827 33.3323 38.1494 33.2097 38.1878C33.2002 38.191 33.1922 38.1942 33.1826 38.1958L31.2818 38.7481C31.258 38.7545 31.2357 38.761 31.2118 38.7658C31.2118 38.7658 30.7692 38.8618 30.2009 39.0988C29.5673 39.3629 28.8159 39.7264 28.0438 40.4244C27.7875 40.6565 27.5392 40.9175 27.302 41.2009C27.0759 41.4731 26.8833 41.7773 26.732 42.1039C26.455 42.6978 25.9727 43.7369 25.6766 44.3741C25.2022 45.4003 24.6752 46.0327 24.6163 46.1016C24.6115 46.108 24.6068 46.1128 24.602 46.1176C24.1929 46.5771 14.5567 57.3663 13.7926 58.2116C13.1112 58.9657 12.2436 60.2177 10.7997 62.536C9.52614 64.5805 8.59166 67.0813 8.51843 67.2798L5.82802 75.4481L10.4781 71.7866C16.9224 66.8219 29.3381 57.2318 30.255 56.4313C30.9969 55.7829 31.9234 55.7813 32.6716 56.4281C33.1237 56.8188 33.388 57.3919 33.3976 57.9987C33.4007 58.2213 33.4103 58.756 33.4119 59.2715C34.8096 58.9673 41.5627 57.4912 43.7915 56.9629C46.1093 56.4121 48.2203 55.2722 48.241 55.2594C48.3285 55.2113 56.7293 50.6757 59.1029 49.3548C61.8315 47.8355 65.0234 48.7817 65.1587 48.8233C65.4278 48.9018 72.063 50.8326 73.9861 51.441C75.801 52.0141 77.0045 52.8739 78.399 53.8697C78.6108 54.0218 78.8289 54.1771 79.0565 54.3372C80.8586 55.6036 82.4203 57.8962 82.4856 57.9923C82.5127 58.0307 86.0818 63.1348 88.0941 65.9974C90.0028 68.7127 92.585 70.541 92.6105 70.5586C92.6232 70.5683 92.6375 70.5779 92.6503 70.5891C92.6725 70.6067 94.8917 72.3422 97.0202 73.8311C98.9417 75.1744 101.728 76.0998 102.038 76.199C102.333 76.2695 104.453 76.7818 105.052 76.9211C105.383 76.9995 105.821 77.0876 106.206 77.1628C106.586 77.2381 106.975 77.2557 107.358 77.2157C107.903 77.1596 108.4 77.0379 108.966 76.8234C109.66 76.5608 110.256 75.9861 110.633 75.549C110.862 75.2832 111.066 74.9838 111.236 74.6604C112.5 72.2797 113.946 69.542 114.212 68.9897C114.508 68.3765 114.54 67.981 114.339 67.4223C114.248 67.1661 114.021 66.8747 113.698 66.5961V66.5993ZM107.865 72.8529C107.828 72.9233 107.787 72.9842 107.747 73.0306C107.645 73.1491 107.561 73.2259 107.511 73.2676C107.247 73.3588 107.091 73.3812 106.965 73.394C106.959 73.394 106.949 73.394 106.937 73.394C106.725 73.3524 106.226 73.2548 105.922 73.1827L105.902 73.1779C105.381 73.0578 103.641 72.6384 103.074 72.5007C102.312 72.2445 100.382 71.5064 99.1996 70.6787C97.1603 69.2522 95.0159 67.576 94.9952 67.5584C94.9204 67.4991 94.8742 67.4639 94.7978 67.4111C94.6561 67.3086 92.6614 65.8437 91.2111 63.7816C89.2753 61.0262 85.894 56.1928 85.617 55.7957C85.227 55.2242 83.4742 52.7554 81.2407 51.1864C81.021 51.0327 80.8109 50.8822 80.6071 50.7365C79.0884 49.6526 77.5171 48.5303 75.1292 47.7746C73.1965 47.1631 66.7029 45.2723 66.2253 45.133C65.3259 44.864 61.1613 43.8153 57.2515 45.9927C54.8986 47.3023 46.5201 51.8268 46.4293 51.8764C46.4118 51.886 44.7052 52.797 42.9127 53.2229C41.6184 53.5303 38.6749 54.1835 36.2249 54.723C35.9288 54.2764 35.5722 53.8681 35.1614 53.5127C32.9741 51.6235 29.9271 51.6299 27.762 53.5207C27.0329 54.1419 20.6396 59.1002 14.4994 63.8424C15.2572 62.6432 16.085 61.3897 16.6215 60.7973C17.3936 59.9439 27.0361 49.1451 27.4468 48.6856C27.4707 48.6584 27.4962 48.6296 27.52 48.6024C27.735 48.351 28.4864 47.4176 29.1423 45.9975C29.4368 45.3619 29.9175 44.3277 30.1945 43.7321C30.2073 43.7049 30.2216 43.6825 30.2312 43.6697C30.3521 43.5256 30.4795 43.3895 30.6005 43.2806C30.9221 42.9892 31.2452 42.8227 31.6607 42.6498C31.8295 42.5794 31.9696 42.5377 32.0317 42.5201C32.167 42.4945 32.1909 42.4833 32.3437 42.4401L34.2445 41.8877C34.2891 41.8749 34.3336 41.8605 34.3782 41.8461C34.8144 41.7052 36.3395 41.1641 37.6401 40.1266C38.3772 39.5374 47.4673 31.8013 49.3522 30.1971C49.4445 30.1219 50.492 29.2926 52.119 28.5577C54.4894 27.4898 71.794 19.829 71.9628 19.7553L88.7484 12.3555C88.8487 12.3106 89.1113 12.1906 89.3979 12.0561C91.356 14.0733 94.4571 15.1877 97.7589 13.8908C99.1009 13.3641 100.487 12.8101 101.457 12.4227C101.742 12.7349 102.078 13.1031 102.454 13.5162C102.003 13.6507 101.548 13.83 101.092 14.0589C99.1948 15.0163 95.6893 16.7566 95.2722 16.9632C95 17.0913 92.4258 18.2808 88.6131 19.52C84.2606 20.9369 78.1778 22.8997 78.1173 22.9189C78.0584 22.9382 78.0011 22.9574 77.9422 22.9798C75.4046 23.9084 71.1302 27.0576 71.2129 32.9637C71.2734 37.3681 71.9803 39.5567 72.2987 40.3251L72.3385 40.4228C73.2522 42.7395 76.1225 46.9389 81.2264 48.2694C85.1076 49.2796 95.4123 51.8941 97.8576 52.5136L97.5551 53.1893C97.224 53.9273 96.9947 54.7038 96.8737 55.4851C96.5936 57.2687 96.732 58.8569 97.2813 60.2033C98.0024 61.9708 99.1104 63.9545 101.871 65.2705C102.775 65.7012 107.325 67.8081 109.901 68.9993C109.383 69.9855 108.677 71.3239 107.865 72.8513V72.8529Z" fill="#15151E"/>
<path d="M117.412 62.211C116.894 61.7691 116.313 61.3961 115.68 61.1031C113.554 60.1201 108.194 57.6417 106.411 56.806L106.844 55.8405C106.862 55.8021 106.879 55.7621 106.895 55.7221C107.435 54.4252 107.67 53.0116 107.576 51.6395C107.506 50.6116 107.284 49.6094 106.913 48.668C105.978 46.2857 104.022 44.84 102.554 44.0507C101.971 43.7369 101.347 43.4935 100.707 43.3334C98.2364 42.7074 87.4334 39.9665 83.6207 38.9739C82.0637 38.5688 81.2725 36.9934 81.1929 36.8253C81.1929 36.8221 81.1897 36.8189 81.1881 36.8157L81.1563 36.7373C81.0958 36.5211 80.7965 35.3316 80.7615 32.834C80.7583 32.6627 80.7535 32.272 81.2741 31.9935C82.4538 31.6124 87.6818 29.925 91.5518 28.665C96.2067 27.1504 99.2664 25.6951 99.3938 25.6327C99.4129 25.623 99.4336 25.6134 99.4527 25.6038C99.4845 25.5878 102.008 24.3374 104.05 23.3144C105.574 25.1636 106.994 26.8975 107.252 27.2305C108.173 28.4728 110.128 30.0002 112.666 30.2788C114.753 30.5077 116.8 29.8369 118.437 28.3864C120.823 26.2667 121.605 23.1463 120.525 20.0275C120.191 19.0717 119.671 18.1992 118.97 17.4275L117.49 15.8024C114.384 12.3939 108.603 6.05068 107.639 4.99881C105.152 2.2851 101.701 2.16182 99.5005 2.88067C99.3986 2.91429 99.2967 2.95112 99.198 2.99114C99.1773 2.99915 97.4787 3.68438 95.5556 4.44646C94.3855 3.17366 92.8636 2.38116 91.0137 2.08177C89.1225 1.77597 87.3331 2.39877 86.1614 2.97833C85.9911 3.05999 85.098 3.47945 84.9181 3.5595L68.1198 10.9658C67.4066 11.2812 50.6098 18.7163 48.2107 19.7986C45.2688 21.1258 43.403 22.6804 43.2008 22.8533C39.1477 26.3035 32.5602 31.9022 31.7435 32.5746C31.6766 32.6115 31.5588 32.6659 31.4617 32.7043L29.8109 33.1846C29.4527 33.2727 28.792 33.4568 28.0104 33.7818C27.0695 34.1725 25.6511 34.8449 24.2072 36.1513C23.7535 36.5628 23.3173 37.0174 22.9034 37.5138C22.3589 38.1686 21.9004 38.8938 21.5422 39.6655C21.2637 40.2627 20.7797 41.3066 20.4804 41.9518C20.3801 42.1679 20.2766 42.328 20.2257 42.4001C19.1225 43.6344 10.2616 53.5591 9.5532 54.342C8.6028 55.3939 7.62375 56.7867 5.94264 59.4844C4.32999 62.0733 3.24745 64.9983 3.12965 65.3233C3.11373 65.3682 3.09781 65.4146 3.08189 65.461L0.345313 73.7703C0.276859 73.9544 0.219548 74.1433 0.173382 74.3386C-0.332861 76.4824 0.284819 78.6037 1.82583 80.0126C3.28884 81.3511 5.36157 81.7866 7.2369 81.1525C7.99786 80.8964 8.71105 80.5057 9.35421 79.9982L13.9884 76.3495C17.0768 73.9704 25.0382 67.8321 29.9637 63.9929C30.3967 64.3035 30.8807 64.5581 31.4108 64.7422C32.4233 65.0928 33.517 65.1552 34.5676 64.9247C35.8428 64.6477 42.8028 63.1268 45.1064 62.5792C48.0738 61.8732 50.613 60.5283 50.9569 60.341C51.3676 60.1184 59.4802 55.7381 61.8761 54.4044C62.2391 54.2027 63.0955 54.2459 63.5588 54.3644C63.8151 54.4397 70.4313 56.3657 72.2636 56.9452C73.1774 57.2334 73.7871 57.6545 75.0782 58.5751C75.3027 58.7352 75.5319 58.8985 75.7707 59.0666C76.4075 59.5133 77.3292 60.634 77.7447 61.2392C77.7591 61.26 77.7734 61.2808 77.7877 61.3C77.8228 61.3512 81.3967 66.4585 83.4121 69.3291C85.6807 72.5567 88.5303 74.7149 89.2148 75.208C89.6605 75.5554 91.7078 77.1404 93.7455 78.5653C96.4471 80.4545 99.9637 81.5896 100.355 81.7129C100.457 81.7449 100.559 81.7737 100.663 81.7978C100.761 81.8218 103.071 82.3805 103.756 82.5374C104.171 82.6351 104.67 82.7343 105.104 82.8208C105.715 82.9409 106.335 83.0017 106.956 83.0017C107.285 83.0017 107.616 82.9841 107.946 82.9505C108.984 82.8416 109.948 82.6111 110.978 82.222C112.438 81.6713 113.777 80.6979 114.96 79.329C115.471 78.7366 115.918 78.0802 116.291 77.379C117.286 75.5042 119.01 72.2477 119.365 71.5113C120.328 69.5164 120.451 67.4847 119.733 65.4834C119.3 64.2651 118.523 63.1684 117.412 62.211ZM115.928 69.8302C115.579 70.5538 113.537 74.4027 112.921 75.5666C112.682 76.0165 112.397 76.436 112.074 76.8106C111.552 77.4158 110.705 78.2195 109.636 78.6245C108.92 78.8951 108.258 79.0552 107.553 79.1289C107.354 79.1497 107.155 79.1593 106.957 79.1593C106.581 79.1593 106.207 79.1225 105.838 79.0504C105.435 78.9704 104.975 78.8791 104.619 78.7943C103.972 78.6454 101.654 78.085 101.556 78.061C101.535 78.0562 101.514 78.0498 101.494 78.0434C101.36 78.0018 98.1966 76.9979 95.9265 75.4097C93.8601 73.964 91.7158 72.2957 91.4929 72.1212C91.2032 71.9163 88.5637 70.0015 86.5308 67.1085C84.5169 64.2427 80.9478 59.1386 80.9112 59.0874C80.8889 59.0538 79.4704 56.9757 77.9581 55.9142C77.7272 55.7525 77.5044 55.594 77.2894 55.4387C75.9745 54.5005 74.9365 53.7592 73.4098 53.2757C71.5075 52.6753 64.6811 50.6869 64.6127 50.6677C64.5777 50.6565 62.0369 49.9184 60.0247 51.0391C57.6399 52.3663 49.228 56.9084 49.1436 56.9548C49.0529 57.0045 46.7987 58.2245 44.2261 58.836C41.9527 59.3756 35.0293 60.8885 33.7605 61.1655C33.3864 61.2472 33.0043 61.2263 32.6557 61.1063C31.9298 60.8517 31.4984 60.2449 31.4984 59.4796C31.4984 58.9241 31.4888 58.2837 31.484 58.0339C31.484 57.9939 31.4729 57.9587 31.4554 57.9283C29.8921 59.2523 12.3964 72.7312 11.6434 73.3108L6.99652 76.9691C6.69404 77.2093 6.36451 77.3902 6.01905 77.5054C5.45868 77.6976 4.83464 77.5679 4.39366 77.1644C3.89697 76.7097 3.70753 75.9829 3.88742 75.2208C3.90016 75.168 3.91608 75.1167 3.93677 75.0687L6.70519 66.6634C6.70837 66.6538 6.71156 66.6458 6.71474 66.6362C6.75613 66.5225 7.74633 63.8136 9.17591 61.5193C10.7042 59.0666 11.6021 57.7778 12.3757 56.9228C13.124 56.0951 22.7872 45.2739 23.166 44.8496C23.209 44.7968 23.5959 44.3149 23.9413 43.5656C24.2374 42.9252 24.7214 41.8845 24.9984 41.2906C25.2197 40.8167 25.4999 40.3716 25.8342 39.9697C26.1287 39.6175 26.4391 39.2909 26.7623 38.9995C27.7557 38.1013 28.7299 37.6338 29.467 37.3264C30.1149 37.0575 30.626 36.931 30.7772 36.8974L32.6318 36.3578C32.8834 36.2746 33.6045 35.988 34.0694 35.6166C34.6297 35.1699 41.8986 28.9884 45.6636 25.7831C45.7273 25.7287 47.2635 24.4319 49.7677 23.3016C52.1556 22.2257 69.4777 14.5585 69.6528 14.48L86.4496 7.07532C86.6008 7.00968 87.6897 6.49896 87.833 6.42851C88.3806 6.15634 89.4472 5.71927 90.404 5.87296C91.6139 6.06829 92.4385 6.5598 93.0801 7.46917C93.1008 7.49959 93.1199 7.53001 93.1374 7.56203C93.2854 7.823 94.1244 9.12942 95.6638 8.52584C98.0565 7.58605 100.588 6.5646 100.613 6.55499C100.632 6.54699 100.653 6.53898 100.674 6.53258C100.774 6.50056 103.133 5.75769 104.824 7.60045C105.784 8.64912 111.784 15.2325 114.667 18.3961L116.148 20.0211C116.495 20.4021 116.751 20.8312 116.915 21.2987C117.48 22.9301 117.12 24.4223 115.902 25.5046C115.073 26.241 114.096 26.5692 113.075 26.4588C111.752 26.3131 110.69 25.4581 110.299 24.9186C110.092 24.6336 107.497 21.4796 105.902 19.5488C105.739 19.3679 104.924 18.5738 103.654 19.2142C101.626 20.2372 97.7955 22.1376 97.7573 22.1569C97.6267 22.2193 94.7883 23.5706 90.369 25.0083C86.1439 26.3835 80.2967 28.2711 79.8812 28.4056C79.6487 28.4969 76.8899 29.6496 76.9344 32.8884C76.9854 36.6092 77.5712 38.0933 77.5776 38.1061C77.5792 38.1109 77.5824 38.1157 77.584 38.1205L77.6445 38.271C77.6445 38.271 77.6492 38.2822 77.6508 38.2871C77.6636 38.3223 79.0804 41.7628 82.6543 42.693C86.4782 43.6889 97.294 46.433 99.7663 47.059C100.107 47.1438 100.433 47.2719 100.737 47.4352C101.482 47.8355 102.815 48.7128 103.35 50.0769C103.577 50.6533 103.714 51.2665 103.756 51.8989C103.81 52.6801 103.673 53.4887 103.363 54.2363C103.359 54.2443 103.356 54.2523 103.353 54.2603L102.77 55.5604C102.651 55.8277 102.568 56.1047 102.525 56.3849C102.415 57.0797 102.434 57.6753 102.575 58.0195C103.028 59.1338 103.359 59.6093 104.316 60.0656C105.345 60.5555 111.711 63.5014 114.078 64.5949C114.39 64.7406 114.677 64.9231 114.93 65.1392C115.336 65.4898 115.872 66.055 116.128 66.7771C116.503 67.8177 116.439 68.7607 115.922 69.8318L115.928 69.8302Z" fill="#15151E"/>
</g>
<defs>
<clipPath id="clip0_3042_503">
<rect width="121" height="85" fill="white"/>
</clipPath>
</defs>
</svg>
