<svg width="121" height="85" viewBox="0 0 121 85" fill="none" xmlns="http://www.w3.org/2000/svg">
<path d="M106.137 22.2983C104.384 21.075 102.047 21.8968 101.837 21.9739C100.812 22.4399 72.3882 35.383 69.8209 36.5386C66.9604 37.8265 65.4329 39.0372 63.7689 41.3342C62.2822 43.3856 61.7945 45.3505 61.4008 46.9296C61.1656 47.8758 60.9617 48.6929 60.5963 49.3746C59.6679 51.1017 57.3453 53.0335 54.8721 53.2161C51.9881 53.4271 50.114 52.0149 49.8929 51.8401C49.4146 51.4748 40.9035 44.9773 40.306 44.5097L40.2841 44.4924C39.605 43.9619 38.0164 42.7197 37.5569 40.0164C37.1742 37.7603 37.7435 35.7152 39.2945 33.763C40.6981 31.9981 42.9846 31.4392 43.2371 31.3809C43.5821 31.2943 51.3075 29.361 53.5328 28.8477C55.8225 28.3203 56.7462 27.9724 57.8017 27.5394C62.1113 25.7682 64.5123 21.7866 65.1459 20.6074C66.3597 18.3481 66.9494 14.897 66.9447 14.3476C66.9431 13.9729 66.8961 13.6659 66.6734 13.299C66.5087 13.0267 66.1794 12.8503 65.9975 12.77C65.6556 12.6173 65.4203 12.6724 65.3498 12.6945C65.3121 12.7181 65.3168 12.7102 65.2619 12.7307C65.1616 12.7685 55.2438 16.4982 50.7852 18.1277C47.4197 19.3573 43.7437 20.1398 41.0588 20.7128C40.2417 20.8876 39.5344 21.0372 38.9495 21.1757C36.5798 21.7378 34.4862 22.2069 28.9972 23.3468C23.0613 24.5795 19.9953 25.5069 15.3297 27.4827C10.661 29.4586 6.23533 32.3145 5.86835 32.5853C5.81503 32.6294 5.69427 32.7302 5.65664 32.7884C5.79935 32.9222 6.17417 33.1253 6.48782 33.2324C6.50664 33.2387 6.52703 33.2466 6.54428 33.2544C7.66716 33.7173 9.08801 34.2699 10.5904 34.8556C15.1384 36.6252 20.7999 38.8278 24.7503 41.0209C29.4269 43.6155 33.415 47.4932 36.3273 50.324C37.0754 51.0513 37.7827 51.7393 38.4053 52.3108C39.9814 53.7593 45.5629 58.7596 51.2165 62.2862C55.3834 64.8855 61.2456 68.3806 64.0622 70.0589L65.16 70.7139C66.2123 71.3437 66.9572 72.0254 67.5563 72.5732C67.8731 72.8629 68.3012 73.255 68.4863 73.3258C68.629 73.2896 68.938 73.1101 69.1434 72.9417C69.1481 72.9385 69.1544 72.9322 69.1591 72.9291L108.345 41.9167C108.345 41.9167 108.349 41.9136 108.352 41.912C112.37 38.6688 114.394 35.3374 114.92 34.3927C115.051 34.155 115.351 33.6181 115.356 33.3064C115.357 33.171 115.202 32.8624 115.066 32.6892C112.152 28.9815 107.372 23.1563 106.139 22.2967L106.137 22.2983ZM36.354 31.4077C34.1255 34.2101 33.2817 37.3211 33.8479 40.6541C34.0533 41.8648 34.4187 42.8928 34.8532 43.7588C32.4662 41.6365 29.6904 39.4449 26.5711 37.7147C23.0331 35.7514 18.3314 33.8322 14.1457 32.1901C14.9988 31.7651 15.8927 31.3478 16.7914 30.9668C21.2484 29.0792 24.0352 28.2369 29.7594 27.0498C35.2938 25.9005 37.411 25.4266 39.8152 24.8566C40.3593 24.7275 41.0463 24.5811 41.8414 24.4127C44.6345 23.8175 48.461 23.002 52.0743 21.6827C54.6338 20.7475 58.9794 19.1259 62.2493 17.901C62.1223 18.23 61.9842 18.5418 61.8353 18.8189C60.8394 20.6719 58.8822 23.0177 56.3792 24.0474C55.4618 24.4237 54.709 24.7055 52.6907 25.1699C50.4622 25.6832 43.1117 27.5237 42.3652 27.7094C41.5356 27.9015 38.4523 28.7706 36.3524 31.4092L36.354 31.4077ZM106.007 38.9553L68.6337 68.5318C68.1868 68.1838 67.6724 67.8202 67.0843 67.4675L65.9833 66.811C63.1777 65.139 57.3375 61.658 53.2019 59.0776C49.1385 56.5428 45.0861 53.1815 42.6929 51.0875C44.8619 52.7454 47.0668 54.4284 47.5922 54.8299C48.3246 55.4045 51.0628 57.2843 55.1466 56.9836C59.1786 56.6877 62.5143 53.7624 63.9101 51.1678C64.5013 50.0673 64.782 48.9369 65.0534 47.8443C65.4156 46.388 65.7575 45.0136 66.813 43.5557C68.0989 41.7813 69.076 41.0146 71.3625 39.9834C73.8843 38.8482 100.387 26.7805 103.214 25.4927C103.471 25.4203 103.823 25.3841 103.995 25.414C105.022 26.346 108.164 30.0773 110.98 33.6024C110.13 34.8666 108.538 36.9054 106.007 38.9522V38.9553Z" fill="#15151E"/>
<path d="M119.491 29.1736C115.948 24.6661 111.317 19.0094 109.36 17.6444C105.115 14.6814 100.261 16.5013 99.7216 16.7186C99.6573 16.7438 99.593 16.7721 99.5302 16.8005C99.237 16.9343 70.0985 30.2017 67.5093 31.3683C64.3006 32.8136 61.7914 34.4274 59.2021 38.0028C57.0709 40.9453 56.3808 43.721 55.9229 45.5567C55.8241 45.9519 55.6923 46.484 55.6124 46.7044C55.3803 47.0429 54.7529 47.509 54.4471 47.5641C53.823 47.6081 53.4152 47.3909 53.3117 47.3295C49.7094 44.579 44.2032 40.3722 43.775 40.0385L43.7531 40.0212C43.383 39.7315 43.2136 39.5992 43.1226 39.0671C43.0411 38.5853 43.0317 38.1492 43.6982 37.3116C43.8111 37.1904 44.1922 36.9983 44.4792 36.9133C44.5357 36.9039 44.498 36.9086 44.5937 36.885C44.6737 36.8645 52.584 34.8839 54.7969 34.3738C57.2465 33.8086 58.4933 33.3804 59.9408 32.7868C65.8202 30.3701 69.0148 25.3494 70.1157 23.3011C71.902 19.9776 72.5999 15.5819 72.5905 14.3161C72.5811 12.8503 72.2219 11.553 71.4927 10.3518C70.7697 9.16154 69.6641 8.20904 68.2903 7.59503C66.0571 6.59844 64.161 7.0739 63.2232 7.44861C62.3951 7.76034 53.111 11.2492 48.8547 12.8047C45.8608 13.8989 42.4075 14.6341 39.8857 15.171C39.0342 15.352 38.3002 15.5095 37.6494 15.6622C35.333 16.2117 33.2755 16.673 27.8524 17.7986C21.4962 19.118 18.195 20.1193 13.1342 22.2636C8.00747 24.4331 3.00469 27.6181 2.30524 28.1912C-0.114604 30.1765 -0.125582 32.5523 0.0829981 33.7929C0.445269 35.9451 2.05902 37.6706 4.52434 38.5507C5.67702 39.023 7.07435 39.5677 8.5501 40.1424C12.9397 41.8506 18.4035 43.976 22.02 45.9834C26.0395 48.2127 29.5649 51.6417 32.3988 54.3969C33.1767 55.1526 33.9106 55.8674 34.5928 56.494C36.2599 58.0259 42.1691 63.3174 48.2352 67.1022C52.4507 69.733 58.3459 73.2471 61.1797 74.9348L62.2697 75.5851C62.8311 75.9204 63.2781 76.3297 63.7517 76.7627C64.6582 77.5924 65.8971 78.7275 67.8449 78.9621C68.0582 78.9873 68.2683 78.9999 68.4738 78.9999C70.3572 78.9999 71.88 78.0128 72.6877 77.3531L111.807 46.3943C111.829 46.377 111.849 46.3612 111.871 46.3439C116.562 42.5622 119.011 38.6609 119.85 37.1526C120.374 36.2111 120.978 34.9312 120.998 33.3851C121.025 31.3494 119.965 29.775 119.49 29.1752L119.491 29.1736ZM116.565 35.309C115.832 36.6252 113.689 40.0322 109.514 43.3982C109.508 43.4045 109.5 43.4092 109.493 43.414L70.3306 74.4074C70.0781 74.6168 69.2736 75.2214 68.4643 75.2214C68.4048 75.2214 68.3436 75.2182 68.284 75.2104C67.5438 75.1206 66.9902 74.6137 66.2876 73.9713C65.7246 73.4549 65.0863 72.8708 64.1971 72.3402L63.1024 71.6869C60.2795 70.0054 54.4079 66.504 50.2238 63.8936C44.4322 60.2804 38.7425 55.1841 37.135 53.7073C36.492 53.1169 35.7769 52.4211 35.0178 51.6827C32.1824 48.9243 28.2978 45.1489 23.8407 42.6756C20.0016 40.5439 14.406 38.368 9.91136 36.6173C8.41052 36.0332 6.99437 35.4822 5.85737 35.0146C5.38062 34.8509 3.98329 34.2778 3.7951 33.1631C3.60063 32.0091 4.39104 31.3604 4.68901 31.1164C5.09833 30.7826 9.75296 27.796 14.5989 25.7446C19.3978 23.7121 22.5422 22.7596 28.6177 21.4985C34.0847 20.3633 36.1674 19.8973 38.5182 19.34C39.1251 19.1967 39.8403 19.044 40.6699 18.8677C43.2999 18.3072 46.9022 17.5389 50.1438 16.3549C54.4801 14.7711 63.9932 11.1941 64.5766 10.9752C64.8416 10.8603 65.6932 10.5706 66.7643 11.0477C67.2317 11.2571 67.8715 11.6459 68.2809 12.3198C68.7592 13.1085 68.8251 13.8139 68.8282 14.3397C68.8345 15.1206 68.2134 18.8834 66.8036 21.5079C64.9122 25.0267 61.8133 27.9346 58.5152 29.2917C57.4127 29.7435 56.3777 30.134 53.9547 30.6929C51.7074 31.2109 43.7625 33.2009 43.6825 33.2198C43.6715 33.2229 43.6621 33.2245 43.6512 33.2277C43.6355 33.2308 41.7943 33.6512 40.7655 34.9453C39.5344 36.4945 39.1157 37.9619 39.4121 39.7031C39.7493 41.6837 40.891 42.5764 41.4399 43.0046L41.4618 43.0219C42.0547 43.4848 50.9499 50.2767 51.0393 50.346C51.0487 50.3539 51.0581 50.3602 51.0675 50.368C51.1208 50.4106 52.5056 51.4985 54.7326 51.3347C56.4498 51.2088 58.2533 49.7556 58.9387 48.4804C59.1927 48.008 59.3699 47.2964 59.5738 46.4746C59.9831 44.8293 60.5446 42.5748 62.2446 40.2258C64.1061 37.6564 65.8861 36.2411 69.0493 34.8178C71.6464 33.648 100.79 20.3775 101.084 20.2437C101.097 20.2374 101.109 20.2327 101.122 20.2279C101.26 20.1728 104.539 18.885 107.21 20.7491C109.065 22.0432 115.779 30.5559 116.54 31.5226C116.654 31.6674 117.245 32.4546 117.234 33.3363C117.225 34.0306 116.907 34.6966 116.565 35.3122V35.309Z" fill="#15151E"/>
</svg>
