<svg width="121" height="85" viewBox="0 0 121 85" fill="none" xmlns="http://www.w3.org/2000/svg">
<g clip-path="url(#clip0_3042_419)">
<path d="M47.14 26.1413C47.2425 25.9131 48.7834 22.4906 49.0158 21.9984C49.1085 21.8011 49.1199 21.6414 49.1052 21.6039C49.1004 21.5958 49.0613 21.5599 48.9671 21.5192C48.8777 21.4801 48.7785 21.4377 48.6647 21.5811C48.3933 22.0081 44.6888 27.8363 44.1167 28.6316C43.3917 29.634 42.5075 30.4635 41.1583 31.4056C39.6515 32.4584 37.6554 32.7224 37.3482 32.7583C36.9776 32.8202 33.8665 33.3124 31.2429 32.7828C28.7121 32.2743 26.0756 31.1725 25.7342 31.0275C25.3978 30.9085 23.1887 30.0838 20.8578 28.1443C18.3367 26.0435 16.7746 22.352 16.7096 22.1956C16.6836 22.1336 14.3901 16.5581 13.9528 15.5818C13.7383 15.0994 13.5676 14.7197 12.8036 14.1525C12.4379 13.8819 11.001 13.8151 9.93953 13.9243C9.93141 13.9243 9.92328 13.9243 9.91515 13.9259C8.82934 14.014 7.05432 14.4165 6.50979 15.0358C5.80596 15.8377 5.84498 16.8938 5.85148 17.0209C5.88074 17.2067 6.1977 19.0011 7.98734 20.4631C10.3394 22.3846 12.5582 24.0421 15.1866 25.8398C17.7954 27.6244 22.8539 30.0153 23.3041 30.2272L32.2654 33.6302L40.8804 36.7089L48.4957 39.4079C47.709 35.3171 46.8653 30.9003 46.6979 29.9078C46.3582 27.9113 47.0409 26.3532 47.14 26.1397V26.1413Z" fill="#15151E"/>
<path d="M118.529 60.4112C116.658 58.136 105.08 43.9062 104.961 43.7611L93.5927 29.8035C93.1441 29.2314 90.8798 26.4722 87.7167 24.8293C84.0155 22.9094 80.5142 22.4303 77.3104 23.4032C76.9723 23.5059 76.1709 23.7488 74.7893 24.6582C73.024 23.7096 70.8329 23.8058 69.0563 24.9793L68.8677 25.1031C68.1379 25.5774 66.7806 26.4624 65.7208 27.4337L61.3174 31.4724L58.5005 33.9921C58.4436 34.0426 58.3769 34.0947 58.3054 34.1436C57.0863 34.9814 55.8298 35.7099 55.0236 36.0489C54.6595 36.2021 54.2807 36.339 53.8906 36.4628C53.0893 32.2857 52.5821 29.5965 52.4683 28.9234C52.4375 28.7457 52.4748 28.5828 52.4911 28.5224C53.1201 27.1273 54.1523 24.8358 54.3084 24.505C55.0756 22.8752 55.1731 21.1101 54.5815 19.5357C54.0109 18.0167 52.8422 16.8091 51.2931 16.136C48.1722 14.7816 45.1423 16.2386 43.7623 18.3802C43.7558 18.39 43.7509 18.3997 43.7444 18.4079C41.8703 21.3578 39.7214 24.7055 39.3784 25.1911C39.2208 25.4095 38.9265 25.817 37.8163 26.5928C37.6327 26.7134 37.0898 26.8764 36.7029 26.9285C36.568 26.9399 36.5371 26.9464 36.3924 26.9725C35.487 27.1241 33.6015 27.2757 32.3954 27.0328C30.7049 26.6922 28.6536 25.9001 28.0099 25.6247C27.8636 25.5611 27.8035 25.535 27.662 25.4894C27.467 25.4144 26.0642 24.8538 24.5996 23.6347C23.5382 22.7497 22.467 20.7662 22.1062 19.9252C21.8168 19.2212 19.7509 14.2063 19.2941 13.1844C18.7691 12.0077 18.0409 10.7397 16.287 9.4391C14.2795 7.95109 11.4431 7.87775 9.39338 8.08473C7.85893 8.21349 4.22113 8.76762 2.1194 11.1602C-0.227782 13.833 -0.0310998 17.0226 0.0322935 17.6354C0.0355445 17.6663 0.0387954 17.6957 0.0420463 17.7266C0.128196 18.4356 0.740999 22.1157 4.29265 25.0151C6.77637 27.0442 9.1203 28.7946 11.8885 30.6885C14.9476 32.7811 20.2694 35.2845 20.8659 35.5632C20.9749 35.6137 21.0854 35.661 21.1959 35.7034L30.1994 39.1227C30.2287 39.1341 30.2595 39.1455 30.2888 39.1553L38.9249 42.2421L45.5146 44.5776C45.6024 45.0372 45.6885 45.4773 45.7682 45.8929L45.7877 46.0005C45.9811 47.2635 46.589 48.4549 47.4993 49.353C48.7574 50.5965 50.5145 51.2272 52.4488 51.1376C54.0304 51.061 59.2059 50.6112 60.0398 50.5378C61.1874 50.4596 62.9429 49.9739 64.5358 48.0475C65.1454 47.3108 69.4252 42.159 69.9275 41.5543C70.199 41.2561 71.0653 40.4282 71.9155 40.0761C72.2015 39.9571 72.4616 39.8463 72.7038 39.742C73.9896 39.1911 74.0952 39.1455 75.9694 39.2091C77.0714 39.2465 78.7197 39.9718 79.9128 40.6906C79.5958 41.5658 79.126 42.8875 78.8156 43.766L78.653 44.224C78.2954 45.2377 78.1248 46.2873 78.1443 47.3516C78.1833 49.2079 78.7489 50.9453 79.7811 52.3795C81.5935 54.8926 83.8367 55.82 84.4787 56.0433C85.0541 56.2438 86.5544 56.7099 88.071 56.7131C88.5586 56.7131 89.3437 56.736 89.755 56.749C89.7729 56.7539 89.7891 56.7588 89.8054 56.7637C90.1614 58.0316 90.8327 60.5334 90.8408 60.5611C90.8587 60.6296 90.8782 60.6964 90.8993 60.7632C91.7608 63.4996 94.3941 66.43 98.3326 66.813C98.9535 66.8733 99.5127 66.901 99.9629 66.9238C100.091 66.9304 100.238 66.9369 100.379 66.945C102.031 69.4272 105.218 74.4763 105.247 74.5236C106.281 76.1681 108.658 77.9984 112.06 77.9984C112.26 77.9984 112.464 77.9918 112.672 77.9788C116.483 77.7376 119.025 74.9311 119.852 72.2549C119.855 72.2435 119.859 72.2305 119.864 72.2191L120.686 69.4892C120.691 69.4729 120.696 69.4549 120.701 69.4386C121.331 67.258 121.143 63.586 118.532 60.4079L118.529 60.4112ZM116.951 68.3516L116.127 71.0912C116.089 71.2135 115.226 73.8994 112.425 74.077C112.3 74.0852 112.18 74.0885 112.061 74.0885C110.117 74.0885 108.945 73.0731 108.547 72.4391C108.511 72.382 104.812 66.5245 103.272 64.251C102.518 63.1346 101.777 63.0987 100.156 63.0172C99.7272 62.996 99.2396 62.9716 98.7113 62.9194C95.6116 62.6195 94.6607 59.7103 94.6217 59.5865C94.6168 59.5734 94.6135 59.5588 94.6103 59.5457C94.6021 59.5148 93.7715 56.423 93.4546 55.3229C93.214 54.4885 92.9068 54.2098 92.2972 53.6573L92.2647 53.6279C92.0014 53.3883 91.3496 53.1162 90.5645 52.919C90.3954 52.8766 90.2199 52.8521 90.0411 52.8456C89.7079 52.8358 88.6968 52.8032 88.0726 52.8032C87.0843 52.8032 85.8945 52.3974 85.7612 52.3502C85.6003 52.2931 84.1439 51.752 82.9459 50.0896C82.3819 49.3041 82.0714 48.3294 82.0486 47.2701C82.0373 46.6833 82.1332 46.0982 82.3347 45.5294L82.4956 45.078C82.8094 44.1946 83.284 42.8582 83.5961 41.996C83.9943 40.9008 83.9114 40.2847 83.6432 39.2319C83.5506 38.8684 83.1686 38.3339 82.6436 37.8368C82.546 37.7439 82.4388 37.6591 82.325 37.5858C81.7577 37.2207 78.7879 35.3921 76.1076 35.3008C73.3654 35.2095 72.7688 35.4638 71.1775 36.145C70.9483 36.2428 70.7029 36.3488 70.4314 36.4612C68.4792 37.2712 66.9919 38.9858 66.9757 39.0037C66.9757 39.0037 62.187 44.7683 61.5417 45.5506C60.7712 46.4812 60.0658 46.6312 59.7277 46.6393C59.1702 46.6882 53.798 47.156 52.2717 47.2293C50.5584 47.3076 49.7912 46.2954 49.653 45.4023C49.6416 45.3306 49.6319 45.2687 49.6205 45.2067L49.6091 45.1448C49.4303 44.2207 49.1963 43.0081 48.9394 41.6717C48.4941 41.4989 48.1235 41.3523 47.9755 41.2936C47.9625 41.2903 47.9512 41.2854 47.9382 41.2805L40.2351 38.5506L31.6087 35.4687C31.6087 35.4687 31.5973 35.4638 31.5908 35.4621L22.5873 32.0428C22.5646 32.0347 22.5434 32.0249 22.5207 32.0151C22.2947 31.9092 16.9453 29.4058 14.0959 27.4549C11.422 25.6247 9.16093 23.9362 6.76499 21.9788C4.27965 19.9497 3.93667 17.355 3.92367 17.2458C3.92367 17.2393 3.92367 17.2344 3.92204 17.2279C3.91392 17.1481 3.73349 15.2493 5.05662 13.7434C6.32286 12.3027 9.35762 12.0109 9.76073 11.9783C10.4776 11.905 12.8377 11.7371 13.9756 12.5814C15.0614 13.3881 15.419 14.0547 15.7441 14.7832C16.1927 15.7855 18.4261 21.2144 18.522 21.4458C18.5334 21.4736 19.9687 24.8505 22.1176 26.6417C24.2989 28.4589 26.3893 29.1825 26.4104 29.1907C26.4348 29.1988 26.4592 29.2086 26.4836 29.2184C26.5096 29.2298 29.1884 30.3739 31.6412 30.8677C34.0127 31.3453 37.0296 30.8335 37.0605 30.8286C37.0833 30.8254 37.106 30.8221 37.1288 30.8188C37.145 30.8172 38.8778 30.6282 40.0562 29.8035C41.5094 28.7881 42.1141 28.0889 42.5497 27.4859C43.0048 26.8535 45.9518 22.2347 47.0474 20.5087C47.392 19.9758 48.3949 19.1332 49.7554 19.7248C50.4869 20.0426 50.8055 20.5462 50.9436 20.9145C51.2346 21.6887 50.9745 22.4498 50.7925 22.8344C50.5649 23.3169 48.9443 26.9171 48.9281 26.953C48.9232 26.9627 48.9183 26.9725 48.9134 26.9823C48.9118 26.9872 48.3852 28.1231 48.6322 29.5802C48.8143 30.6559 49.8107 35.8631 50.6527 40.2342C50.877 40.319 51.0932 40.3988 51.2866 40.4689C51.6263 40.5911 51.9986 40.6808 52.3611 40.7264C52.5902 40.7557 52.8227 40.7476 53.0519 40.702C54.2856 40.4624 55.4576 40.1103 56.5418 39.6556C58.0518 39.0216 59.8268 37.8465 60.5209 37.3706C60.7322 37.2256 60.9322 37.0691 61.1126 36.9062L63.9474 34.3702L68.3638 30.3201C69.1863 29.5655 70.368 28.7963 71.0036 28.3823L71.2133 28.2454C71.9642 27.7499 72.7542 27.8999 73.2045 28.2698C73.2158 28.2796 73.2256 28.2878 73.237 28.2975C73.263 28.322 73.8937 28.8892 74.5861 29.559C74.643 29.6128 74.656 29.6128 74.7161 29.5965C74.7649 29.5835 74.8153 29.5557 74.8641 29.515C75.7353 28.7718 77.3559 27.4794 78.4547 27.1469C80.654 26.4787 83.1702 26.8682 85.9384 28.3024C88.5018 29.634 90.3857 32.0216 90.558 32.2449L101.953 46.2351C102.07 46.3786 113.654 60.6149 115.532 62.8982C117.733 65.5776 116.996 68.2391 116.964 68.3516H116.951Z" fill="#15151E"/>
<path d="M100.428 47.4722L89.0252 33.4722C89.0252 33.4722 89.0122 33.4559 89.0073 33.4493C88.991 33.4282 87.2664 31.2035 85.0281 30.0398C82.7281 28.8468 80.7028 28.5029 79.0074 29.0179C78.4856 29.176 77.3234 29.9746 76.1173 31.003C75.8426 31.2377 75.5207 31.4072 75.1859 31.4919C74.4642 31.6777 73.7652 31.4919 73.2223 30.9672C72.7997 30.5581 72.3933 30.1816 72.1512 29.9599C72.1203 29.9795 72.0894 30.0007 72.0552 30.0219C71.4668 30.4049 70.3729 31.1171 69.6691 31.7625L65.2445 35.8207L62.4016 38.3632C62.1594 38.58 61.8944 38.7886 61.6132 38.9825C60.69 39.6165 58.9003 40.7802 57.2846 41.4598C56.0785 41.9667 54.7765 42.3578 53.416 42.6219C52.9852 42.7066 52.5431 42.7229 52.1059 42.6675C51.7564 42.6235 51.4085 42.5518 51.0704 42.4556C51.2395 43.3341 51.3923 44.1245 51.5174 44.7748L51.5288 44.8335C51.5451 44.9166 51.5597 45.0046 51.5727 45.091C51.6085 45.2915 52.0782 45.2801 52.1725 45.2752C53.7102 45.2002 59.5326 44.6917 59.5911 44.6868C59.5976 44.6868 59.6025 44.6868 59.609 44.6868C59.6627 44.6607 59.8138 44.5695 60.0349 44.3022C60.6835 43.5183 65.4818 37.7422 65.4818 37.7422C65.5631 37.6477 67.2861 35.6479 69.6804 34.6554C69.9438 34.5462 70.1843 34.4435 70.407 34.3474C72.2015 33.5797 73.1232 33.244 76.1693 33.3467C79.2788 33.4526 82.4713 35.3595 83.375 35.9413C83.5912 36.0798 83.7944 36.2412 83.9813 36.4172C84.5567 36.9632 85.2915 37.8123 85.5304 38.7511C85.8376 39.9588 86.0245 41.0149 85.4264 42.6659C85.1159 43.5215 84.6429 44.8531 84.3308 45.7348L84.1715 46.1846C84.0496 46.5301 83.9911 46.8838 83.9976 47.2326C84.0073 47.6922 84.1065 48.3653 84.5259 48.9471C85.3662 50.1141 86.3984 50.5036 86.4081 50.5085C86.6747 50.6014 87.5135 50.8491 88.0726 50.8491C88.6578 50.8491 89.5095 50.8736 90.0996 50.8915C90.4182 50.9013 90.7352 50.9453 91.0391 51.0235C91.8323 51.2223 92.9181 51.5858 93.5716 52.179L93.6041 52.2084C94.2868 52.8277 94.9321 53.4128 95.3271 54.7818C95.6359 55.8559 96.395 58.6787 96.4844 59.0112C96.5446 59.1807 97.1574 60.8056 98.8983 60.9751C99.381 61.0223 99.8248 61.0435 100.252 61.0647C102.04 61.1543 103.584 61.2309 104.885 63.1525C106.408 65.4 109.995 71.0766 110.187 71.383C110.239 71.4547 110.826 72.2191 112.302 72.1245C113.749 72.0333 114.243 70.573 114.264 70.511L115.077 67.8105C115.111 67.6752 115.507 65.9606 114.014 64.1434C112.134 61.8568 100.545 47.6172 100.428 47.4738V47.4722ZM100.446 57.1581C100.301 57.1516 100.16 57.1434 100.02 57.1369C99.7435 56.1134 99.2981 54.4738 99.0738 53.6964C98.3716 51.2582 97.0777 50.0847 96.2211 49.3089L96.1902 49.2796C95.1727 48.3555 93.7975 47.684 91.9965 47.2326C91.4195 47.0859 90.8213 47.0028 90.2215 46.9832C89.638 46.9653 88.8041 46.9408 88.1783 46.9376C88.1441 46.9311 88.1003 46.9229 88.0515 46.9115C88.362 46.0379 88.7992 44.8025 89.0902 44.0039C89.5746 42.6691 89.7322 41.5218 89.7192 40.5096L97.4061 49.9462C97.6434 50.2379 100.555 53.8153 103.648 57.6128C102.45 57.2575 101.317 57.2021 100.446 57.1581Z" fill="#15151E"/>
</g>
<defs>
<clipPath id="clip0_3042_419">
<rect width="121" height="85" fill="white"/>
</clipPath>
</defs>
</svg>
