<svg width="121" height="85" viewBox="0 0 121 85" fill="none" xmlns="http://www.w3.org/2000/svg">
<g clip-path="url(#clip0_3042_595)">
<path d="M43.8915 31.2056L43.884 31.2087C43.8734 31.2132 43.8764 31.2117 43.8915 31.2056Z" fill="#15151E"/>
<path d="M118.798 50.1763C118.509 49.8865 117.914 49.2901 115.493 48.0655C115.066 47.8211 113.827 47.1291 111.988 46.2823C111.427 46.0229 110.867 45.8089 110.325 45.601C109.617 45.3293 108.948 45.0714 108.277 44.7238C102.03 41.4778 92.6983 36.5231 85.201 32.5426C73.4722 26.3146 72.4386 25.7789 71.8907 25.565C70.8147 25.1431 67.2038 23.4814 66.1474 22.9396L65.5527 22.6346C63.6609 21.6452 58.1794 18.7619 55.0422 17.1123C53.7694 16.4431 52.7706 15.918 52.3287 15.6858C50.5928 14.7753 48.6935 14.7753 47.1196 15.6858C45.7121 16.4992 44.7723 17.9348 44.5332 19.5995C41.0146 19.9668 38.1134 20.6406 35.7223 21.6391C30.837 23.6802 28.0221 26.2888 27.3396 26.9687C26.5133 27.729 19.4427 34.2346 15.4095 37.9981C11.1297 41.9923 8.43282 45.9303 8.32083 46.0957L8.29359 46.1351C8.04842 46.5024 2.28846 55.166 1.18066 56.8626C-0.00583518 58.6806 -0.310026 60.9463 0.324084 63.2408C1.00511 65.7053 2.66378 67.7843 4.75831 68.7995C5.98113 69.3944 7.69126 70.0029 9.56786 70.0029C10.1566 70.0029 10.7634 69.9422 11.3749 69.8026C16.2873 68.6796 18.1896 65.3031 18.9191 62.6687C19.7454 59.6852 21.5933 52.1764 21.9035 50.6908C21.9186 50.6179 21.9428 50.5497 21.9655 50.495C22.7147 49.6801 24.6912 47.5207 25.8474 46.1685C26.2696 46.1367 26.9749 46.0805 27.7633 46.0168C27.7633 46.1974 27.7618 46.381 27.7618 46.5661C27.7618 50.8425 30.8098 53.5422 33.8562 54.0339C34.2119 54.0992 35.7843 54.3799 37.5413 54.6091C37.8667 54.6516 38.1876 54.6728 38.5039 54.6728C41.0554 54.6728 43.2771 53.3116 44.4439 50.973C45.5669 48.721 45.8029 46.4053 45.8029 44.8574C45.8029 43.7587 45.9089 36.7629 46.0148 34.9843C46.033 34.6732 46.0693 34.4395 46.1056 34.2711L51.4479 32.2816C51.2905 40.0559 50.9076 59.1799 50.9076 61.5594C50.9076 63.5898 51.6764 65.4078 53.0717 66.6765C55.1163 68.5355 57.6497 68.5415 58.5638 68.4717C60.3073 68.3746 68.2707 67.9194 70.3622 67.6052C74.8207 66.933 76.4385 64.165 78.0881 60.6185C79.037 58.5774 79.5878 57.5774 80.5337 57.2162C82.2363 56.5682 82.5677 56.7457 83.9615 57.4984C84.2793 57.6699 84.638 57.8642 85.03 58.0539C88.4866 59.7262 90.9973 60.5639 93.9908 61.0404C96.1897 61.3894 109.977 61.8765 113.483 61.9767C116.448 62.0617 119.024 60.5032 120.368 57.808C121.609 55.3178 121.009 52.3965 118.803 50.1824L118.798 50.1763ZM52.7978 31.7747L52.8054 31.7717L52.7963 31.7747H52.7978ZM117.114 56.1736C116.398 57.6092 115.146 58.3756 113.582 58.3301C107.976 58.1707 96.2033 57.6988 94.5537 57.4377C91.9432 57.0219 89.7139 56.2738 86.6039 54.7684C86.2846 54.6136 85.9759 54.4467 85.6777 54.2858C83.9691 53.3632 82.492 52.568 79.2398 53.8063C76.8123 54.7305 75.7862 56.9385 74.7934 59.0736C73.0061 62.9145 71.9846 63.6718 69.8174 63.9996C67.8076 64.3031 58.8801 64.8023 58.3126 64.8342C58.0538 64.8555 56.5646 64.9359 55.5068 63.9738C55.0634 63.5701 54.5352 62.8235 54.5352 61.5548C54.5352 58.6594 55.1163 30.3285 55.1406 29.1236V29.0796C55.1633 28.7108 55.0467 28.2389 54.9256 28.2146C54.4656 28.1175 53.4168 28.0294 52.8039 28.0674C52.3468 28.0947 51.7612 28.2768 51.5735 28.3451L43.8915 31.2056C43.7962 31.2497 42.5567 31.8673 42.3842 34.7643C42.2722 36.643 42.1663 43.7041 42.1663 44.8528C42.1663 45.7983 42.0391 47.6375 41.1916 49.3387C40.5848 50.5557 39.3937 51.1734 38.009 50.9928C36.2247 50.7606 34.6493 50.4723 34.4601 50.4374C33.3871 50.275 31.3909 49.2628 31.3909 46.5616C31.3909 44.4097 31.4984 42.5614 31.5029 42.484L31.515 42.3838C31.5287 42.2836 31.5029 42.1319 31.4727 42.1015C31.4575 42.0864 31.3319 42.0333 31.0232 42.0666C29.3902 42.2457 25.3389 42.5522 25.1664 42.5659L25.0771 42.572L25.0286 42.5659C24.9257 42.5644 24.104 42.578 23.3775 43.4521C22.2077 44.8619 19.3913 47.9183 19.0356 48.3037C18.9524 48.4221 18.5332 49.0443 18.3455 49.9457C18.0822 51.2143 16.2586 58.6548 15.4186 61.6899C14.3986 65.3729 11.5141 66.0315 10.5667 66.2486C10.2398 66.3229 9.90686 66.3548 9.57846 66.3548C8.28754 66.3548 7.04807 65.8616 6.34132 65.5171C5.18812 64.9571 4.22257 63.7097 3.82304 62.262C3.47193 60.9918 3.61268 59.7808 4.21955 58.8506C5.31827 57.1691 11.2553 48.24 11.3158 48.1504C11.4248 47.9911 13.8992 44.3778 17.8839 40.6584C22.0367 36.7826 29.4205 29.9901 29.8533 29.5925C30.1318 29.3087 32.5699 26.8958 37.1191 24.9959C39.7751 23.8866 43.2544 23.234 47.7567 22.9988L47.9293 22.9897L47.9898 23.011C47.9928 22.9882 47.9958 22.9609 47.9974 22.9275C48.0927 20.8242 48.1078 20.3553 48.1078 20.3507C48.1154 20.1641 48.1911 19.2657 48.9341 18.8362C49.2747 18.6389 49.8482 18.4917 50.6458 18.9091C51.0847 19.1397 52.0835 19.6648 53.3547 20.334C56.7932 22.1429 62.2853 25.0323 64.0241 25.9383L64.4933 26.1781C65.6631 26.779 69.3679 28.4817 70.5665 28.9521C70.9767 29.113 74.63 31.0478 83.5015 35.7582C91.0064 39.7433 100.345 44.7026 106.606 47.9547C107.458 48.3978 108.256 48.7043 109.025 49.0003C109.535 49.196 110.016 49.3812 110.47 49.5906C112.369 50.4662 113.565 51.1536 113.768 51.2705C114.385 51.5801 115.796 52.3145 116.23 52.7501C117.311 53.8351 117.642 55.1129 117.114 56.1706V56.1736Z" fill="#15151E"/>
<path d="M112.928 52.8867L112.872 52.8563C112.86 52.8502 111.664 52.1446 109.712 51.2462C109.311 51.0611 108.855 50.8865 108.376 50.7014C107.596 50.4025 106.714 50.0625 105.771 49.5724C99.5025 46.3157 90.1589 41.3549 82.6509 37.3684C76.3386 34.0161 70.3758 30.8505 69.8961 30.6457C68.9563 30.2769 66.6181 29.2177 64.9867 28.4437V28.4817L63.6655 27.8033C62.8815 27.4012 56.3906 23.9867 52.5118 21.9472C51.3404 21.331 50.4006 20.8363 49.9178 20.5829C49.9072 20.8621 49.88 21.5344 49.8134 23.0094C49.7756 23.8456 49.4018 24.2902 49.0946 24.5164C48.5951 24.8851 48.0337 24.8654 47.7461 24.8214C43.5646 25.0475 40.2261 25.6712 37.8213 26.6758C33.4597 28.4984 31.1685 30.8521 31.1458 30.8748L31.1034 30.9158C31.0262 30.9856 23.376 38.0224 19.1234 41.9908C15.293 45.5646 12.8474 49.1338 12.8232 49.1687C12.7687 49.2506 6.8362 58.1722 5.7405 59.8491C5.42874 60.3256 5.36821 61.0282 5.57554 61.7764C5.83282 62.7051 6.45936 63.5504 7.13585 63.8782C7.67764 64.1407 9.05482 64.7249 10.1657 64.4715C11.5383 64.1574 13.0275 63.5246 13.6707 61.2012C14.5045 58.1904 16.31 50.8243 16.5703 49.5724C16.8639 48.1565 17.548 47.2551 17.6251 47.1564L17.6736 47.1003C17.7054 47.0669 20.7927 43.7208 21.9852 42.2852C23.0461 41.0074 24.3991 40.716 25.0937 40.7433C25.6128 40.7039 29.3327 40.4186 30.8295 40.2547C31.8858 40.1394 32.4836 40.5172 32.7984 40.8541C33.4022 41.4976 33.3493 42.3671 33.316 42.6266C33.3008 42.8891 33.2085 44.6237 33.2085 46.5631C33.2085 48.2946 34.4919 48.5981 34.7476 48.6406L34.7749 48.6452C34.7915 48.6482 36.4335 48.9517 38.2451 49.1884C38.4751 49.2188 39.1773 49.3113 39.5693 48.5268C40.2503 47.1595 40.3532 45.6389 40.3532 44.8543C40.3532 43.9104 40.4561 36.6415 40.5742 34.6565C40.8224 30.4803 43.0168 29.5849 43.2665 29.4969L50.95 26.6348C51.0483 26.5984 51.8913 26.2979 52.6949 26.2494C53.4894 26.2008 54.7062 26.307 55.301 26.433C56.7236 26.735 57.0111 28.2905 56.9566 29.1828C56.9385 30.0963 56.3513 58.711 56.3513 61.5563C56.3513 62.0435 56.4723 62.391 56.722 62.6216C57.1473 63.0132 57.907 63.042 58.1643 63.0208L58.1976 63.0177C58.2914 63.0132 67.6003 62.4926 69.548 62.1998C71.0811 61.9691 71.635 61.5548 73.1484 58.3058C74.1865 56.0735 75.4805 53.2934 78.5966 52.1066C82.6237 50.5724 84.7046 51.6939 86.5388 52.6833C86.8339 52.8426 87.1124 52.9929 87.3954 53.1295C90.3692 54.5696 92.3881 55.2495 94.8398 55.641C96.2412 55.8641 107.381 56.3345 113.635 56.512C114.478 56.5348 115.092 56.16 115.49 55.3618C115.735 54.8716 115.08 54.1766 114.945 54.043C114.75 53.8624 113.744 53.2994 112.928 52.8897V52.8867ZM10.1702 60.2285C10.0431 60.6868 10.0098 60.7627 9.52095 60.8841C9.49371 60.8795 9.46193 60.8719 9.4256 60.8643C9.70104 60.447 10.0325 59.9477 10.3972 59.3969C10.3155 59.7034 10.2398 59.9826 10.1717 60.23L10.1702 60.2285ZM36.9481 34.4395C36.8785 35.6019 36.8164 38.379 36.7741 40.7889C36.5728 40.0028 36.1778 39.1439 35.4438 38.3593C34.7961 37.6673 33.431 36.5899 31.2169 36.5899C30.9672 36.5899 30.7054 36.6035 30.433 36.6339C30.3724 36.6399 30.3089 36.6475 30.2408 36.6536C32.1431 34.8993 33.5233 33.6307 33.5566 33.6003L33.6383 33.5351L33.7564 33.4061C33.9183 33.2482 35.2607 31.9841 37.6912 30.7428C37.3098 31.755 37.0359 32.9736 36.9496 34.438L36.9481 34.4395ZM95.3937 52.0399C93.6033 51.7531 91.9749 51.3008 88.9754 49.8486C88.7635 49.7454 88.5183 49.6133 88.2596 49.4737C86.2483 48.3887 82.884 46.5752 77.3056 48.6998C72.8109 50.4116 71.0326 54.2342 69.8567 56.764C69.3755 57.8004 69.0819 58.3346 68.9109 58.6108C67.6775 58.7777 63.4188 59.0615 60.0121 59.2633C60.1151 52.6241 60.4752 34.8204 60.5676 30.2921C61.3061 30.6791 61.8146 30.9446 62.0098 31.0448L68.6188 34.435V34.0707C69.9672 34.7521 75.5441 37.7143 80.9514 40.584C88.2293 44.4492 97.2324 49.2294 103.501 52.4921C99.5358 52.3206 96.161 52.1415 95.3952 52.0368L95.3937 52.0399Z" fill="#15151E"/>
</g>
<defs>
<clipPath id="clip0_3042_595">
<rect width="121" height="85" fill="white"/>
</clipPath>
</defs>
</svg>
