<svg width="121" height="85" viewBox="0 0 121 85" fill="none" xmlns="http://www.w3.org/2000/svg">
<path d="M97.6939 5.39277C96.1852 4.89232 93.1679 4.3854 87.3655 4.81861C87.2661 4.82636 87.1874 4.83154 87.1358 4.83542C86.2776 4.89232 85.5174 5.05008 85.0515 5.26733C83.8771 5.81434 83.3351 6.60447 83.0873 7.17087C82.4859 8.54809 82.664 9.59297 82.6653 9.60332C82.8253 10.4827 86.5783 31.0608 86.6957 32.7639C86.8416 34.8782 84.9586 36.2929 83.5739 36.6201C82.3749 36.9033 81.2134 36.6576 80.119 35.8921C79.4957 35.455 78.9756 34.5692 78.5174 33.7881C78.351 33.5036 78.178 33.21 78.0761 33.0807C78.0128 33.0005 77.8631 32.8105 77.5173 33.0704L77.4643 33.1079C71.3445 37.0895 60.2625 40.5332 55.6887 41.4915C51.0466 42.4639 45.7179 42.9683 42.2785 43.1157C38.572 43.2734 32.2922 42.5195 31.3978 42.3501C28.8451 41.8691 27.2912 40.0328 27.2448 37.4387C27.1725 33.4842 30.6222 32.2311 32.9052 31.4009L33.1052 31.3285C35.1817 30.572 39.0392 29.9293 41.1119 29.5853L41.2499 29.562C43.1806 29.24 45.5811 27.3559 45.6766 26.0886C45.7708 24.8381 42.5121 21.8819 38.9218 20.4556C35.0217 18.9076 30.9061 18.9464 29.6491 19.0926C28.7263 19.1999 28.3637 19.4184 27.8823 20.1555C27.5365 20.6857 26.8821 22.0617 26.0536 23.8061C25.4574 25.0592 24.7166 26.6188 23.8777 28.3115C22.8401 30.4039 21.5934 32.1354 20.3893 33.8088C19.8976 34.4916 19.4343 35.1369 18.9968 35.7873C18.2276 36.9318 17.3578 38.2288 17.0094 39.4043C15.8711 43.2553 17.6262 46.218 19.2988 48.0245C21.112 49.9837 24.1397 50.3509 24.3268 50.3716C24.7346 50.3988 33.1039 50.9484 36.3858 50.9717C36.4078 50.9717 36.431 50.9717 36.4529 50.9717C39.6329 50.9717 43.2529 49.341 45.2829 47.8163C46.5038 46.8982 50.8478 43.8838 55.4706 43.6329C57.5704 43.5191 60.185 44.0674 62.9533 44.6494C66.0597 45.3011 69.2719 45.9762 71.9601 45.7615C74.9413 45.5248 79.0595 44.4774 84.1998 42.645C84.3417 42.5945 84.4514 42.5557 84.5237 42.5299L84.725 42.4588C85.693 42.1186 87.0197 41.6518 88.296 41.9958C89.3001 42.2674 90.2344 42.9605 90.7971 43.8489C91.5702 45.0722 91.574 46.5568 90.8087 47.8189C90.1054 48.975 88.9878 49.447 88.8135 49.5156C88.6109 49.5983 83.7933 51.5678 82.8253 52.0036C81.7838 52.473 81.1128 53.3394 80.9334 54.4451C80.8688 54.846 80.8998 55.5029 80.9334 56.2633C81.0134 57.9987 81.1218 60.3756 80.4197 63.2903C79.7486 66.0784 77.8231 71.0196 76.5145 73.7107C75.5375 75.7202 75.2433 76.985 75.2897 77.4583C75.384 78.4385 76.1338 79.7045 77.5547 80.1636C79.9241 80.9291 80.954 78.8807 81.0715 78.6234C81.5928 77.3432 103.043 24.648 104.602 20.4969C106.201 16.2398 105 11.7616 103.205 9.40417C101.624 7.32605 100.026 6.1622 97.6939 5.38889V5.39277ZM36.4091 47.8694C33.3414 47.8474 25.5761 47.3443 24.6146 47.281C24.0352 47.2034 22.4039 46.8154 21.5702 45.9141C19.9338 44.1463 19.3995 42.2531 19.9802 40.2862C20.1932 39.5672 20.9869 38.3853 21.5676 37.5189C21.9767 36.9098 22.4258 36.2852 22.9021 35.6244C24.1203 33.9316 25.5025 32.0126 26.6524 29.6913C27.5029 27.9753 28.2501 26.4028 28.8502 25.1394C29.3832 24.0169 29.9756 22.7703 30.3034 22.1548C31.2868 22.103 34.5416 22.0552 37.7796 23.3406C39.4767 24.0143 41.0409 25.1122 41.952 25.9425C41.5481 26.2114 41.0796 26.4442 40.7402 26.5011L40.6034 26.5244C37.5977 27.0248 34.2099 27.6249 32.0444 28.4137L31.8482 28.4848C30.577 28.9465 28.8373 29.5788 27.3364 30.7569C25.1992 32.4354 24.0971 34.7657 24.1474 37.4969C24.1965 40.1401 25.3012 42.4019 27.2603 43.8657C28.2837 44.6313 29.4839 45.1472 30.8222 45.3994C31.603 45.5468 37.7796 46.346 42.0075 46.2296C40.344 47.1322 38.1836 47.8797 36.4078 47.8681L36.4091 47.8694ZM71.7149 42.6682C69.9107 42.8118 67.6277 42.4342 65.2995 41.9661C69.1518 40.6613 73.4159 38.9672 76.9288 37.0352C77.3211 37.5499 77.7818 38.0413 78.3445 38.4357C79.7396 39.4121 81.2689 39.8854 82.8408 39.8336C76.9533 41.9117 73.5449 42.5221 71.7136 42.6682H71.7149ZM82.9066 65.8948C83.117 65.2172 83.2951 64.5835 83.4306 64.0236C84.2372 60.6782 84.1107 57.9379 84.0268 56.1249C84.0075 55.7033 83.9817 55.1305 83.9946 54.9184C83.9984 54.9029 84.001 54.8938 84.001 54.8925C84.0114 54.8835 84.0397 54.8628 84.0927 54.8395C84.5882 54.6158 86.3718 53.8761 88.0753 53.1765C86.2247 57.7336 84.4385 62.1278 82.9066 65.8961V65.8948ZM101.704 19.4068C101.083 21.0608 97.246 30.5603 92.8465 41.4152C91.8773 40.2539 90.5532 39.394 89.1013 39.0008C88.4948 38.8366 87.905 38.7719 87.341 38.7719C86.9564 38.7719 86.586 38.803 86.2311 38.8534C86.8222 38.5107 87.3758 38.0879 87.8508 37.6055C89.2278 36.2115 89.9144 34.4153 89.7853 32.5479C89.6679 30.8474 86.9332 15.7381 85.7355 9.17399C85.7368 9.07571 85.7588 8.79638 85.924 8.41748C85.9691 8.31403 86.1201 8.19506 86.3395 8.09031C86.4647 8.04505 86.8351 7.96617 87.3358 7.93255C87.3952 7.92867 87.483 7.9222 87.5952 7.91444C93.3757 7.48253 95.9013 8.06833 96.7208 8.33989C98.4527 8.91406 99.5432 9.71453 100.742 11.2909C101.821 12.7095 102.968 16.042 101.704 19.4081V19.4068Z" fill="#15151E"/>
<path d="M106.901 6.58507C104.758 3.76985 102.37 2.0396 99.1561 0.972735C96.3762 0.050708 92.2942 -0.21827 87.0209 0.176145C86.9396 0.182611 86.8777 0.18649 86.8286 0.19037C85.3574 0.28865 84.1004 0.577026 83.0925 1.04645C80.6043 2.20641 79.4028 4.00133 78.8323 5.30484C77.7418 7.80452 77.9819 9.82703 78.0993 10.4555C79.4273 17.7321 80.8495 25.7006 81.5787 30.0198C80.7514 29.059 79.6364 28.4564 78.4142 28.3154C76.7571 28.1253 75.4614 28.8366 74.8716 29.2452C69.3183 32.8298 58.8674 36.0692 54.7402 36.9344C50.3729 37.8499 45.3371 38.3245 42.0824 38.4642C38.7398 38.6064 32.9452 37.8965 32.2599 37.7749C32.0779 37.74 31.9747 37.6947 31.9256 37.6676C31.9127 37.6171 31.8947 37.5189 31.8908 37.3533C31.8856 37.0443 31.9115 37.0236 32.1154 36.8632C32.6419 36.4494 33.624 36.0925 34.49 35.7783L34.6939 35.7046C36.3678 35.0955 40.0871 34.476 41.8746 34.1786L42.014 34.1553C43.6917 33.8747 45.5307 33.0199 47.06 31.807C49.0385 30.2396 50.1625 28.3839 50.3097 26.4403C50.4787 24.2044 49.2437 21.953 46.6393 19.7469C44.8945 18.2688 42.7044 16.9498 40.6343 16.1273C34.8604 13.8346 29.3471 14.441 29.1161 14.4682C26.8163 14.7359 25.2367 15.7045 23.9964 17.608C23.5009 18.3671 22.9537 19.5051 21.8619 21.8043C21.2424 23.1065 20.5416 24.5833 19.7195 26.2399C18.851 27.9895 17.7192 29.5633 16.6235 31.0854C16.1318 31.7682 15.6233 32.4755 15.1445 33.1894C14.2372 34.5407 13.108 36.2231 12.5569 38.0827C11.1838 42.7277 12.3698 47.3831 15.8943 51.1902C18.9065 54.4438 23.3938 54.9585 23.8958 55.0063L24.0081 55.0154C24.3681 55.0387 32.8716 55.6012 36.3561 55.6258C36.3884 55.6258 36.4207 55.6258 36.4529 55.6258C40.7221 55.6258 45.3578 53.58 48.0744 51.5394C50.0451 50.0574 53.0908 48.4228 55.7249 48.2806C57.2155 48.1991 59.6495 48.7099 62.0021 49.2039C65.2698 49.8893 68.9725 50.6665 72.3279 50.4014C74.1347 50.2578 76.2628 49.8686 78.6942 49.2375C77.4553 50.404 76.6319 51.9454 76.3493 53.7054C76.2086 54.5809 76.2486 55.4602 76.2951 56.4792C76.3661 58.0155 76.4538 59.9281 75.9066 62.2002C75.322 64.6262 73.5423 69.2027 72.3421 71.6726C70.4437 75.5754 70.614 77.3302 70.6695 77.9083C70.9135 80.4364 72.6983 83.4844 76.1312 84.5952C76.9997 84.8759 77.8218 85 78.5923 85C81.9181 85 84.2785 82.6865 85.2361 80.7002L85.2851 80.611L85.369 80.4028C86.266 78.1992 107.361 26.3782 108.954 22.1393C111.188 16.192 109.533 10.0417 106.903 6.58378L106.901 6.58507ZM106.053 21.0465C104.474 25.2467 82.7182 78.6919 82.4988 79.2312L82.473 79.2881C82.0032 80.3175 80.6817 81.8912 78.5755 81.8912C78.1135 81.8912 77.6153 81.8162 77.0785 81.6416C74.9813 80.964 73.8947 79.1277 73.7475 77.6096C73.6249 76.3384 74.5554 74.1969 75.122 73.0331C76.3958 70.4131 78.2658 65.6193 78.9136 62.9283C79.5641 60.2281 79.4608 57.9793 79.386 56.337C79.346 55.4551 79.3137 54.7593 79.4028 54.1994C79.6635 52.5855 80.6778 51.2691 82.1878 50.5889C83.197 50.135 88.0276 48.1603 88.2328 48.0776L88.2508 48.0711C88.2508 48.0711 89.0342 47.7543 89.4833 47.0146C89.9428 46.2555 89.9453 45.4046 89.4872 44.6804C89.3517 44.467 88.8393 43.7506 87.8921 43.4946C87.079 43.2747 86.0143 43.6498 85.2374 43.9226L85.0283 43.9963C84.9586 44.0209 84.8541 44.0584 84.7173 44.1062C79.4492 45.9839 75.1981 47.0611 72.0814 47.3081C69.1699 47.5383 65.8467 46.8413 62.6345 46.1676C59.9682 45.6076 57.4503 45.0787 55.5532 45.1822C51.3666 45.4098 47.344 48.2056 46.2121 49.0578C43.9821 50.7337 39.9878 52.5235 36.4503 52.5235C36.4245 52.5235 36.4 52.5235 36.3755 52.5235C32.9826 52.4989 24.5669 51.9428 24.2107 51.9195H24.1887C24.0365 51.9027 20.4345 51.5329 18.1644 49.0798C15.4129 46.1081 14.476 42.5157 15.5265 38.9646C15.9421 37.5615 16.8829 36.1597 17.714 34.9222C18.1657 34.2497 18.6368 33.5954 19.1362 32.901C20.3042 31.2781 21.5134 29.5982 22.4942 27.621C23.3279 25.9399 24.0661 24.3868 24.6585 23.1389C25.5787 21.203 26.1865 19.9241 26.5892 19.3072C27.3196 18.1873 28.1004 17.7115 29.4736 17.5511C29.5226 17.5459 34.4371 17.0054 39.4948 19.0124C42.7767 20.3159 47.4175 23.6264 47.2227 26.205C47.06 28.3503 43.9433 30.6858 41.5055 31.0918L41.3674 31.1151C39.3438 31.4513 35.5779 32.0785 33.6356 32.7859L33.4343 32.8596C30.7758 33.8256 28.7457 34.7735 28.7947 37.4089C28.8386 39.7884 30.3912 40.5798 31.6869 40.8229C32.3064 40.9406 38.4727 41.7229 42.214 41.5626C45.5927 41.4178 50.8233 40.9225 55.3738 39.9694C59.843 39.0319 70.6489 35.6813 76.601 31.8173C76.7636 31.697 77.3495 31.3143 78.0619 31.3957C78.3948 31.4332 78.8775 31.5897 79.2931 32.116C79.4595 32.3281 79.6428 32.6385 79.8532 32.998C80.1745 33.5463 80.6611 34.3739 81.0069 34.617C81.7335 35.1252 82.4575 35.2856 83.2177 35.1058C83.9339 34.9364 85.2361 34.1049 85.1509 32.8674C85.058 31.525 82.2265 15.8209 81.1424 9.88264C81.1321 9.8335 80.8611 8.39421 81.669 6.54498C82.0239 5.73287 82.7853 4.60911 84.3985 3.85649C85.2206 3.47242 86.2853 3.33276 87.0338 3.28233C87.0842 3.27845 87.1564 3.27327 87.2507 3.26681C93.3085 2.8142 96.5388 3.37026 98.1817 3.91468C100.803 4.78369 102.673 6.1441 104.437 8.46274C106.55 11.2392 107.869 16.2062 106.052 21.0427L106.053 21.0465ZM87.0106 45.2274C87.0364 45.2158 87.0674 45.2029 87.1061 45.1886L87.0635 45.2054C87.0493 45.2119 87.0313 45.2184 87.0093 45.2274H87.0106Z" fill="#15151E"/>
</svg>
